<svg width="500" height="168" viewBox="0 0 500 168" fill="none" xmlns="http://www.w3.org/2000/svg">
<g clip-path="url(#clip0)">
<path d="M459.9 0H39.6825C38.4294 0 36.7586 0 35.0877 0C33.8346 0 32.5815 0 31.3283 0C28.4043 0 25.8981 0.41751 22.9741 0.83502C20.0501 1.25253 17.5439 2.08755 15.0376 3.34008C12.5313 4.59261 10.4428 6.26265 8.35422 8.3502C6.26566 10.4378 4.59482 12.5253 3.34169 15.0304C2.08855 17.5354 1.25313 20.458 0.835422 22.9631C0.417711 25.8856 0 28.8082 0 31.3133C0 32.5658 0 33.8183 0 35.0709C0 36.7409 0 37.9934 0 39.6635V126.923C0 128.593 0 129.846 0 131.516C0 132.768 0 134.021 0 135.273C0 138.196 0.417711 140.701 0.835422 143.623C1.25313 146.546 2.08855 149.051 3.34169 151.556C4.59482 154.479 6.26566 156.566 8.35422 158.654C10.4428 160.741 12.5313 162.411 15.0376 163.664C17.5439 164.917 20.0501 165.752 22.9741 166.169C25.8981 166.587 28.4043 167.004 31.3283 167.004C32.5815 167.004 33.8346 167.004 35.0877 167.004C36.7586 167.004 38.0117 167.004 39.6825 167.004H459.9C461.571 167.004 462.824 167.004 464.495 167.004C465.748 167.004 467.001 167.004 468.254 167.004C471.178 167.004 473.684 166.587 476.608 166.169C479.532 165.752 482.038 164.917 484.545 163.664C487.051 162.411 489.139 160.741 491.228 158.654C493.317 156.566 494.987 154.479 496.241 151.974C497.494 149.469 498.329 146.964 498.747 144.041C499.165 141.118 499.582 138.613 499.582 135.691C499.582 134.438 499.582 133.186 499.582 131.933C499.582 130.263 499.582 129.011 499.582 127.341V39.6635C499.582 37.9934 499.582 36.7409 499.582 35.0709C499.582 33.8183 499.582 32.5658 499.582 31.3133C499.582 28.3907 499.165 25.8856 498.747 22.9631C498.329 20.0405 497.494 17.5354 496.241 15.0304C494.987 12.5253 493.317 10.4378 491.228 8.3502C489.139 6.26265 487.051 4.59261 484.545 3.34008C482.038 2.08755 479.532 1.25253 476.608 0.83502C473.684 0.41751 471.178 0 468.254 0C467.001 0 465.748 0 464.495 0C463.241 0 461.571 0 459.9 0Z" fill="#B7B7B7"/>
<path d="M35.0869 163.246C33.8337 163.246 32.5806 163.246 31.3275 163.246C28.8212 163.246 26.3149 163.246 23.3909 162.411C20.8847 161.994 18.3784 161.159 16.2899 160.324C14.2013 159.071 12.1128 157.819 10.4419 156.148C8.77106 154.478 7.10022 152.391 6.2648 150.303C5.01166 148.216 4.59395 146.128 4.17624 143.206C3.75853 140.283 3.34082 137.361 3.34082 135.273C3.34082 134.438 3.34082 131.515 3.34082 131.515V35.0706C3.34082 35.0706 3.34082 32.148 3.34082 31.313C3.34082 29.2254 3.34082 26.3029 4.17624 23.3803C5.01166 21.2927 5.42938 18.7877 6.68251 16.7001C7.93564 14.6126 9.18877 12.525 10.8596 10.855C12.5305 9.18496 14.619 7.93243 16.7076 6.67989C18.7961 5.42736 21.3024 5.00985 23.8087 4.59234C26.3149 3.75732 29.2389 3.75732 31.3275 3.75732H35.0869H464.494H468.253C470.342 3.75732 473.266 3.75732 476.19 4.59234C478.696 5.00985 480.784 5.84487 483.291 6.67989C485.379 7.93243 487.468 9.18496 489.139 10.855C490.81 12.525 492.48 14.6126 493.316 16.7001C494.569 18.7877 494.987 21.2927 495.404 23.3803C495.822 25.8854 496.24 28.8079 496.24 31.313C496.24 32.5655 496.24 33.818 496.24 35.0706C496.24 36.7406 496.24 37.9932 496.24 39.6632V126.923C496.24 128.593 496.24 129.845 496.24 131.515C496.24 132.768 496.24 134.02 496.24 135.273C496.24 137.778 495.822 140.283 495.404 143.206C494.987 145.711 494.151 148.216 493.316 150.303C492.063 152.391 490.81 154.478 489.139 156.148C487.468 157.819 485.379 159.489 483.291 160.324C481.202 161.576 479.114 161.994 476.19 162.411C473.683 162.829 470.759 162.829 468.253 163.246C467 163.246 465.747 163.246 464.494 163.246H459.899H35.0869Z" fill="#000001"/>
<path d="M103.592 84.7542C103.592 73.0639 113.199 67.6363 113.617 67.2188C108.187 59.2861 99.8324 58.4511 96.9084 58.0336C89.8073 57.1986 83.1239 62.2087 79.3645 62.2087C75.6051 62.2087 70.1749 58.0336 64.3269 58.0336C56.8081 58.0336 49.707 62.6262 45.5299 69.3064C37.5934 83.0842 43.4414 103.96 51.3779 115.232C55.1373 120.66 59.7321 126.923 65.58 126.923C71.428 126.505 73.5166 123.165 80.6176 123.165C87.7187 123.165 89.3896 126.923 95.6552 126.923C101.921 126.923 105.68 121.495 109.44 115.65C114.035 109.387 115.705 103.125 115.705 102.707C115.705 103.125 103.592 98.5321 103.592 84.7542Z" fill="white"/>
<path d="M91.8958 50.9361C94.8198 47.1785 97.3261 41.7509 96.4907 36.3232C91.8958 36.3232 86.4656 39.2458 83.1239 43.4209C80.1999 46.761 77.6937 52.1886 78.5291 57.6163C83.5416 57.6163 88.9719 54.6937 91.8958 50.9361Z" fill="white"/>
<path d="M176.692 113.145H157.059L152.465 127.34H144.11L162.907 75.5688H171.262L190.059 127.34H181.704L176.692 113.145ZM159.148 106.882H175.021L167.084 83.9191H166.667L159.148 106.882Z" fill="white"/>
<path d="M230.577 108.552C230.577 120.243 224.311 127.758 214.704 127.758C209.273 127.758 205.096 125.253 203.008 121.078V139.866H195.071V89.7645H202.59V96.0272C204.679 91.8521 209.273 89.347 214.704 89.347C223.893 88.9295 230.577 96.8622 230.577 108.552ZM222.222 108.552C222.222 101.037 218.463 96.0272 212.197 96.0272C206.349 96.0272 202.172 101.037 202.172 108.552C202.172 116.068 206.349 121.078 212.197 121.078C218.463 121.078 222.222 116.068 222.222 108.552Z" fill="white"/>
<path d="M271.928 108.552C271.928 120.243 265.663 127.758 256.055 127.758C250.625 127.758 246.448 125.253 244.359 121.078V139.866H236.423V89.7645H243.942V96.0272C246.03 91.8521 250.625 89.347 256.055 89.347C265.663 88.9295 271.928 96.8622 271.928 108.552ZM263.992 108.552C263.992 101.037 260.232 96.0272 253.967 96.0272C248.119 96.0272 243.942 101.037 243.942 108.552C243.942 116.068 248.119 121.078 253.967 121.078C260.232 121.078 263.992 116.068 263.992 108.552Z" fill="white"/>
<path d="M299.499 112.727C299.916 117.737 304.929 121.078 312.03 121.078C318.713 121.078 323.308 117.737 323.308 113.145C323.308 108.97 320.384 106.882 313.701 105.212L307.017 103.542C297.41 101.037 293.233 96.8619 293.233 89.7643C293.233 80.9965 301.169 74.7339 312.03 74.7339C322.89 74.7339 330.409 80.9965 330.827 89.7643H322.89C322.473 84.7541 318.296 81.4141 312.03 81.4141C305.764 81.4141 301.587 84.7541 301.587 89.3467C301.587 93.1043 304.511 95.1919 311.194 96.8619L317.042 98.1145C327.485 100.62 332.08 104.795 332.08 112.31C332.08 121.913 324.143 128.175 312.03 128.175C300.334 128.175 292.815 122.33 292.397 112.727H299.499Z" fill="white"/>
<path d="M347.954 80.5786V89.3463H355.055V95.609H347.954V116.484C347.954 119.825 349.207 121.077 352.549 121.077C353.384 121.077 354.637 121.077 355.055 121.077V127.34C354.22 127.757 352.549 127.757 350.878 127.757C343.359 127.757 340.435 124.835 340.435 117.737V96.0265H335.005V89.7638H340.435V80.9961H347.954V80.5786Z" fill="white"/>
<path d="M359.647 108.552C359.647 96.8619 366.749 89.3467 377.609 89.3467C388.469 89.3467 395.571 96.8619 395.571 108.552C395.571 120.66 388.469 127.758 377.609 127.758C366.331 127.758 359.647 120.242 359.647 108.552ZM387.634 108.552C387.634 100.202 383.875 95.6093 377.609 95.6093C371.343 95.6093 367.584 100.202 367.584 108.552C367.584 116.902 371.343 121.495 377.609 121.495C383.875 121.495 387.634 116.485 387.634 108.552Z" fill="white"/>
<path d="M401.839 89.3467H409.358V96.0268C410.611 91.8517 413.952 89.3467 418.547 89.3467C419.8 89.3467 420.636 89.3467 421.054 89.7642V96.8619C420.636 96.4444 418.965 96.4444 417.712 96.4444C412.699 96.4444 409.775 99.7844 409.775 105.212V127.758H401.839V89.3467Z" fill="white"/>
<path d="M456.976 116.067C456.141 122.747 449.04 127.757 440.686 127.757C429.825 127.757 422.724 120.242 422.724 108.552C422.724 96.8616 429.408 88.929 440.268 88.929C450.711 88.929 457.394 96.0266 457.394 107.717V110.222H430.661V110.639C430.661 116.902 434.838 121.495 440.686 121.495C444.863 121.495 448.205 119.407 449.458 116.067H456.976ZM430.661 104.794H449.458C449.458 98.9492 445.698 95.1916 440.268 95.1916C434.838 95.1916 431.078 99.3667 430.661 104.794Z" fill="white"/>
<path d="M157.893 36.3232C165.412 36.3232 169.589 40.9159 169.589 48.8485C169.589 56.7812 165.412 61.3739 157.893 61.3739H148.703V36.3232H157.893ZM152.88 58.0338H157.475C162.488 58.0338 165.829 54.6937 165.829 49.2661C165.829 43.8384 162.905 40.4983 157.475 40.4983H152.88V58.0338Z" fill="white"/>
<path d="M174.182 51.7707C174.182 45.508 177.523 42.168 182.954 42.168C188.384 42.168 191.725 45.9256 191.725 51.7707C191.725 58.0333 188.384 61.3734 182.954 61.3734C177.523 61.7909 174.182 58.0333 174.182 51.7707ZM187.966 51.7707C187.966 47.5956 186.295 45.508 182.954 45.508C179.612 45.508 177.941 48.0131 177.941 51.7707C177.941 55.9458 179.612 58.4509 182.954 58.4509C186.295 58.4509 187.966 55.9458 187.966 51.7707Z" fill="white"/>
<path d="M215.535 61.3739H211.776L208.016 47.5961H207.599L203.839 61.3739H200.08L195.067 42.5859H198.827L202.168 56.7813H202.586L206.346 42.5859H210.105L213.864 56.7813H214.282L217.624 42.5859H221.383L215.535 61.3739Z" fill="white"/>
<path d="M225.144 42.5855H228.903V45.508H229.321C230.156 43.4205 232.245 42.168 234.751 42.168C238.928 42.168 241.434 44.673 241.434 49.2656V61.3734H237.675V50.1007C237.675 47.1781 236.422 45.508 233.498 45.508C230.574 45.508 228.903 47.1781 228.903 50.1007V60.9559H225.144V42.5855Z" fill="white"/>
<path d="M246.865 35.0706H250.625V61.3737H246.865V35.0706Z" fill="white"/>
<path d="M255.636 51.7707C255.636 45.508 258.977 42.168 264.408 42.168C269.838 42.168 273.18 45.9256 273.18 51.7707C273.18 58.0333 269.838 61.3734 264.408 61.3734C258.977 61.7909 255.636 58.0333 255.636 51.7707ZM269.838 51.7707C269.838 47.5956 268.167 45.508 264.825 45.508C261.484 45.508 259.813 48.0131 259.813 51.7707C259.813 55.9458 261.484 58.4509 264.825 58.4509C267.749 58.4509 269.838 55.9458 269.838 51.7707Z" fill="white"/>
<path d="M277.357 55.9458C277.357 52.6057 279.864 50.5182 284.458 50.5182L289.471 50.1007V48.4306C289.471 46.3431 288.218 45.508 285.712 45.508C283.623 45.508 282.37 46.3431 281.952 47.5956H278.193C278.611 44.2555 281.535 42.168 285.712 42.168C290.306 42.168 293.23 44.673 293.23 48.4306V61.3734H289.471V58.8684H289.053C287.8 60.9559 285.712 61.7909 283.205 61.7909C279.864 61.7909 277.357 59.2859 277.357 55.9458ZM289.471 54.2758V52.6057L284.876 53.0232C282.37 53.0232 281.117 54.2758 281.117 55.5283C281.117 57.1983 282.788 58.0333 284.458 58.0333C287.382 58.4509 289.471 56.7808 289.471 54.2758Z" fill="white"/>
<path d="M297.827 51.771C297.827 45.9258 300.751 42.1682 305.764 42.1682C308.27 42.1682 310.358 43.4208 311.612 45.5083H312.029V35.0706H315.789V61.3737H312.029V58.4511H311.612C310.358 60.5387 308.27 61.7912 305.764 61.7912C301.169 61.7912 297.827 58.0336 297.827 51.771ZM302.004 51.771C302.004 55.9461 304.093 58.0336 307.017 58.0336C309.941 58.0336 312.029 55.5286 312.029 51.771C312.029 48.0134 309.941 45.5083 307.017 45.5083C303.675 45.5083 302.004 48.0134 302.004 51.771Z" fill="white"/>
<path d="M330.823 51.7707C330.823 45.508 334.165 42.168 339.595 42.168C345.025 42.168 348.367 45.9256 348.367 51.7707C348.367 58.0333 345.025 61.3734 339.595 61.3734C334.165 61.7909 330.823 58.0333 330.823 51.7707ZM345.025 51.7707C345.025 47.5956 343.355 45.508 340.013 45.508C336.671 45.508 335 48.0131 335 51.7707C335 55.9458 336.671 58.4509 340.013 58.4509C342.937 58.4509 345.025 55.9458 345.025 51.7707Z" fill="white"/>
<path d="M353.798 42.5855H357.557V45.508H357.975C358.81 43.4205 360.899 42.168 363.405 42.168C367.582 42.168 370.089 44.673 370.089 49.2656V61.3734H366.329V50.1007C366.329 47.1781 365.076 45.508 362.152 45.508C359.228 45.508 357.557 47.1781 357.557 50.1007V60.9559H353.798V42.5855Z" fill="white"/>
<path d="M390.559 37.9929V42.5855H394.736V45.9256H390.559V55.5283C390.559 57.6159 391.394 58.4509 393.065 58.4509C393.483 58.4509 393.9 58.4509 394.318 58.4509V61.3735C393.9 61.3735 393.065 61.3735 392.229 61.3735C388.052 61.3735 386.381 60.121 386.381 56.3634V45.9256H383.458V43.003H386.381V37.9929H390.559Z" fill="white"/>
<path d="M399.746 35.0706H403.505V45.5083H403.923C404.759 43.4208 406.847 42.1682 409.771 42.1682C413.948 42.1682 416.455 44.6733 416.455 49.2659V61.3737H412.695V50.1009C412.695 47.1784 411.442 45.5083 408.518 45.5083C405.594 45.5083 403.923 47.5959 403.923 50.1009V60.9562H400.164V35.0706H399.746Z" fill="white"/>
<path d="M437.758 56.3633C436.922 59.7034 433.998 61.7909 429.403 61.7909C423.973 61.7909 420.631 58.0334 420.631 52.1882C420.631 46.3431 423.973 42.168 429.403 42.168C434.834 42.168 437.758 45.9256 437.758 51.7707V53.0232H424.391C424.391 56.3633 426.479 58.4509 429.403 58.4509C431.492 58.4509 433.163 57.6158 433.998 56.3633H437.758ZM424.391 50.1007H433.998C433.998 47.1781 431.91 45.0905 429.403 45.0905C426.479 45.508 424.808 47.1781 424.391 50.1007Z" fill="white"/>
</g>
<defs>
<clipPath id="clip0">
<rect width="500" height="167.004" fill="white"/>
</clipPath>
</defs>
</svg>
