<svg width="32" height="39" id="lightning" viewBox="0 0 32 39" fill="none" xmlns="http://www.w3.org/2000/svg">
<path d="M24.4481 15.9137H21.5628C20.0725 15.9137 19.3273 15.9137 18.7781 15.6156C18.2956 15.3538 17.9144 14.9381 17.6953 14.4347C17.4458 13.8618 17.5103 13.1194 17.6391 11.6347L17.9206 8.39119C17.9603 7.85321 17.5326 7.38613 16.9641 7.3486C16.6139 7.32525 16.2743 7.47288 16.0649 7.74061L6.34145 20.733C6.01851 21.1775 6.1373 21.7855 6.60632 22.0917C6.78054 22.2051 6.98821 22.2651 7.20028 22.2635H10.2083C11.7141 22.2635 12.467 22.2635 13.0191 22.5656C13.5041 22.8309 13.8857 23.2519 14.1023 23.7605C14.3489 24.3395 14.2753 25.0888 14.1279 26.5874L13.7972 29.9495C13.755 30.3957 14.0383 30.8119 14.4844 30.9587C14.5251 30.9664 14.4236 30.9471 14.5583 30.9576C14.653 30.965 15.2086 30.9237 15.3012 30.9024C15.4329 30.872 14.9951 31.0249 15.1702 30.9637C15.3806 30.8903 15.5633 30.7525 15.6865 30.5675L25.3069 17.4434C25.6299 16.9988 25.511 16.3907 25.042 16.0847C24.8678 15.972 24.6601 15.912 24.4481 15.9137Z" fill="#A217AB"/>
</svg>
