<svg width="171" height="192" viewBox="0 0 171 192" fill="none" xmlns="http://www.w3.org/2000/svg">
<path d="M21.7056 79.0278C21.1695 77.8831 8.58803 50.8687 9.40587 39.9599C9.82606 34.3541 16.8614 28.1254 28.7039 22.8706C40.5755 17.6045 55.8053 13.9951 70.4894 12.968C77.6391 12.4689 85.5341 12.2032 93.3213 12.2032C104.264 12.2032 120.245 12.7136 134.237 15.1414C147.807 17.4967 156.124 21.1142 158.956 25.894C161.087 29.4906 161.855 34.3332 161.236 40.2867C160.749 44.9587 159.412 50.339 157.261 56.278C153.614 66.3449 148.809 74.6842 148.76 74.768L148.491 75.2316L21.9745 79.6058L21.704 79.0262L21.7056 79.0278Z" fill="#00DACB"/>
<path d="M93.3214 13.1708C121.41 13.1708 152.301 16.5629 158.125 26.3883C166.998 41.3573 147.925 74.2834 147.925 74.2834L22.5815 78.6173C22.5815 78.6173 9.56216 50.814 10.3703 40.0324C11.1801 29.2507 39.4358 16.1089 70.5572 13.9323C77.4798 13.4477 85.2879 13.1708 93.3214 13.1708ZM93.3263 11.2357C85.5101 11.2357 77.5925 11.5014 70.4219 12.002C62.7909 12.5349 55.1406 13.723 47.6802 15.531C40.7237 17.2182 34.0265 19.4495 28.3113 21.9852C22.6218 24.5095 17.8387 27.3639 14.4804 30.2408C10.7116 33.4703 8.67832 36.7143 8.44166 39.8875C8.08426 44.6448 10.0773 52.7765 14.3645 64.0556C17.5071 72.3257 20.7961 79.3675 20.83 79.4384L21.3725 80.5959L22.6508 80.5524L147.994 76.2185L149.065 76.1815L149.602 75.2542C149.8 74.9113 154.5 66.757 158.175 56.6081C160.353 50.595 161.709 45.1374 162.203 40.3865C162.846 34.2222 162.034 29.1799 159.795 25.4014C158.162 22.6468 155.034 20.3527 150.23 18.387C146.139 16.7127 140.817 15.3008 134.41 14.1883C120.345 11.7477 104.306 11.2357 93.3263 11.2357Z" fill="#00836D"/>
<path d="M19.6577 66.8278C19.6577 66.8278 8.8181 41.1029 15.6281 35.378C24.8723 27.6053 46.4887 13.3366 102.174 15.8256C153.79 18.1326 154.165 25.0842 157.482 29.7449" stroke="#B2FFF4" stroke-width="2.08547" stroke-linecap="round" stroke-linejoin="round"/>
<path d="M20.8377 102.378C20.7572 102.378 20.6783 102.378 20.5994 102.377C17.9382 102.33 15.5137 99.4355 13.9489 97.0158C12.2633 94.4093 10.7789 91.1412 9.87894 88.0518C9.18023 85.653 8.55397 82.3993 9.54246 80.5286C10.3555 78.9911 12.3228 77.3989 15.5572 75.6586C15.9484 75.4477 16.3396 75.2432 16.7195 75.0533C17.5857 74.6234 18.5001 74.1936 19.4403 73.7766C19.788 73.6269 20.1197 73.4836 20.4417 73.3468C22.6923 72.4001 24.3763 71.8141 24.4455 71.79L25.3165 71.4873L36.1497 98.4052L35.261 98.7706C35.2111 98.7915 34.0358 99.2729 32.2665 99.8879C30.2461 100.582 28.3705 101.139 26.6898 101.545C24.3876 102.098 22.4186 102.38 20.8345 102.38L20.8377 102.378Z" fill="#00DACB"/>
<path d="M24.7643 72.7042L26.5384 77.1138L34.8939 97.8753C34.8939 97.8753 33.7138 98.3599 31.951 98.9733C30.428 99.4965 28.4703 100.12 26.4644 100.602C24.518 101.071 22.5233 101.411 20.8361 101.411C20.762 101.411 20.688 101.411 20.6155 101.409C18.6965 101.375 16.5875 99.3162 14.7602 96.4892C11.4197 91.3245 9.01282 83.5985 10.3974 80.9792C11.2136 79.4353 13.4997 77.8624 16.016 76.51C16.3895 76.3088 16.7694 76.1092 17.1526 75.9176C18.0606 75.4668 18.9734 75.0418 19.8331 74.6602C20.1696 74.5154 20.4996 74.3737 20.82 74.2368C23.0642 73.2934 24.7643 72.7042 24.7643 72.7042ZM25.8719 70.2716L24.13 70.8753C24.0575 70.8995 22.3462 71.4951 20.0698 72.453C19.7413 72.5931 19.4081 72.7364 19.0668 72.8829L19.0571 72.8877L19.0475 72.8926C18.0944 73.316 17.1671 73.7506 16.2897 74.1869C15.8968 74.3833 15.496 74.5926 15.0935 74.81C11.6869 76.6421 9.59079 78.3647 8.6844 80.0776C7.76836 81.8099 7.8569 84.5838 8.94682 88.3236C9.87252 91.5 11.3971 94.8599 13.1326 97.5436C15.5942 101.351 18.1008 103.304 20.5785 103.347C20.6622 103.347 20.7475 103.349 20.8329 103.349C22.4927 103.349 24.5389 103.059 26.9151 102.488C28.6249 102.076 30.5294 101.51 32.5772 100.807C34.3771 100.181 35.5781 99.6897 35.628 99.6687L37.4054 98.9378L36.6874 97.1557L28.3319 76.3941L26.5577 71.9846L25.8703 70.2748L25.8719 70.2716Z" fill="#00836D"/>
<path d="M32.8448 104.727C32.4891 104.727 32.1268 104.724 31.7598 104.717C29.8552 104.684 27.8364 103.518 25.7548 101.258C24.9707 100.406 24.1738 99.3919 23.3882 98.2456C19.2941 92.2728 15.791 83.1767 15.0568 76.6163C14.7606 73.9455 14.9506 71.9041 15.6235 70.5469C16.1387 69.5021 16.8535 68.4943 17.747 67.5508C19.1798 66.0391 21.0763 64.6723 23.385 63.4858C24.1835 63.0769 25.0045 62.6986 25.8256 62.3621C26.0945 62.2478 26.3907 62.1302 26.7191 62.0063C28.5222 61.3188 29.8021 61.0049 29.8568 60.992L30.6908 60.7892L36.6668 76.721L46.5002 102.943L45.5069 103.24C45.4457 103.257 43.9742 103.692 41.4096 104.088C40.7077 104.196 39.9865 104.292 39.2684 104.373C37.1691 104.606 35.0102 104.724 32.8465 104.724L32.8448 104.727Z" fill="#00C5B2"/>
<path d="M30.0831 61.9354L35.7581 77.0638L45.2276 102.315C45.2276 102.315 43.7883 102.744 41.2591 103.135C40.6232 103.233 39.9245 103.328 39.1566 103.415C37.3712 103.613 35.2445 103.76 32.8441 103.76C32.4931 103.76 32.1373 103.756 31.7751 103.75C30.0557 103.719 28.2349 102.526 26.4656 100.602C25.6928 99.7637 24.9281 98.7817 24.1859 97.6982C20.1225 91.7689 16.7159 82.742 16.0172 76.5084C15.7564 74.1644 15.8755 72.2148 16.4889 70.9783C16.9896 69.9641 17.6658 69.0448 18.4482 68.2189C19.9937 66.5897 21.9546 65.3114 23.8253 64.3487C24.648 63.9269 25.4497 63.5631 26.1903 63.2588C26.4914 63.1316 26.7811 63.0173 27.0597 62.9126C28.829 62.2381 30.0831 61.9338 30.0831 61.9338M31.2921 59.6477L29.6243 60.0534C29.5679 60.0663 28.2301 60.3947 26.369 61.1047C26.039 61.2303 25.7347 61.351 25.4465 61.4718C24.6045 61.8179 23.7609 62.2059 22.9431 62.6245C20.5363 63.8625 18.5512 65.2953 17.0427 66.8843C16.0816 67.897 15.3121 68.9853 14.7518 70.1186C13.9968 71.64 13.7746 73.8617 14.0917 76.7193C14.842 83.4198 18.4144 92.701 22.5873 98.7897C23.3987 99.9746 24.2246 101.024 25.0408 101.91C27.3076 104.373 29.5615 105.643 31.7397 105.682C32.1051 105.688 32.477 105.691 32.8425 105.691C35.0416 105.691 37.2376 105.572 39.3691 105.336C40.1048 105.252 40.8373 105.154 41.5522 105.044C44.1828 104.639 45.7154 104.186 45.7798 104.167L47.7681 103.574L47.0404 101.633L37.5708 76.3812L31.8959 61.2528L31.2937 59.6461L31.2921 59.6477Z" fill="#00836D"/>
<path d="M16.8132 74.0227C16.8132 74.0227 16.2916 76.7418 18.6018 76.188C19.5211 75.9675 19.4164 74.9178 20.8895 73.0342C22.3626 71.1506 21.8249 70.3343 21.2469 69.8932C20.0105 68.9514 17.1738 70.4406 16.8116 74.0227H16.8132Z" fill="#B2FFF4"/>
<path d="M19.9428 80.538C20.7261 80.538 21.3611 79.903 21.3611 79.1196C21.3611 78.3363 20.7261 77.7013 19.9428 77.7013C19.1594 77.7013 18.5244 78.3363 18.5244 79.1196C18.5244 79.903 19.1594 80.538 19.9428 80.538Z" fill="#B2FFF4"/>
<path d="M10.8934 84.2699C10.8934 84.2699 10.5521 86.3161 12.1684 85.9185C12.8108 85.7607 12.7287 84.9686 13.7461 83.5599C14.7636 82.1529 14.3788 81.5314 13.9699 81.195C13.0941 80.4737 11.1171 81.5717 10.895 84.2699H10.8934Z" fill="#B2FFF4"/>
<path d="M13.3116 89.2016C13.8527 89.1115 14.2125 88.5648 14.1152 87.9807C14.0179 87.3966 13.5003 86.9962 12.9592 87.0864C12.418 87.1765 12.0582 87.7231 12.1556 88.3073C12.2529 88.8914 12.7705 89.2918 13.3116 89.2016Z" fill="#B2FFF4"/>
<g style="mix-blend-mode:multiply" opacity="0.34">
<path d="M39.1569 103.415C37.1107 103.642 34.6169 103.801 31.7754 103.75C30.056 103.719 28.2352 102.526 26.4659 100.603C24.4342 101.092 22.3493 101.44 20.6171 101.409C18.698 101.375 14.9357 97.8592 13.1084 95.0338C15.6666 96.0513 19.2583 94.9066 21.3399 93.9149C21.3399 93.9149 26.9102 98.2939 34.9824 94.9469C35.504 94.7311 39.7477 104.534 39.1585 103.417L39.1569 103.415Z" fill="#00836D"/>
</g>
<path d="M149.203 100.641C142.626 100.641 133.21 97.5501 132.812 97.4181L131.85 97.0994L143.412 66.9971L144.256 67.2273C144.409 67.2692 148.036 68.2609 152.062 69.8096C157.608 71.9411 161.054 74.0308 162.301 76.0207C163.388 77.7513 163.053 80.7329 162.581 82.9272C161.979 85.7237 160.836 88.8485 159.362 91.7238C158.117 94.15 156.715 96.2268 155.309 97.7305C153.616 99.54 151.941 100.509 150.332 100.609C149.974 100.632 149.594 100.643 149.201 100.643L149.203 100.641Z" fill="#00DACB"/>
<path d="M144.001 68.1611C144.001 68.1611 158.745 72.1746 161.484 76.5343C164.222 80.8939 156.725 99.2406 150.274 99.6415C149.929 99.6624 149.572 99.6737 149.205 99.6737C142.709 99.6737 133.118 96.5005 133.118 96.5005L144.003 68.1611M142.823 65.8331L142.195 67.4656L131.31 95.805L130.583 97.6999L132.51 98.3374C132.914 98.471 142.474 101.609 149.205 101.609C149.617 101.609 150.018 101.598 150.394 101.573C154.891 101.295 158.484 95.5587 160.225 92.165C161.738 89.2172 162.912 86.0086 163.53 83.1301C164.272 79.6817 164.135 77.1154 163.122 75.5055C161.74 73.3048 158.236 71.1459 152.41 68.9065C148.337 67.3416 144.665 66.3354 144.51 66.2936L142.821 65.8347L142.823 65.8331Z" fill="#00836D"/>
<path d="M137.304 102.671C131.497 102.671 125.814 99.8539 125.576 99.7332L124.808 99.3484L140.081 56.9946L141.03 57.4132C141.242 57.5066 146.313 59.7733 152.457 65.1972C155.279 67.6893 155.052 73.3353 154.365 77.6338C152.826 87.2579 147.471 99.5835 142.607 101.676C141.073 102.336 139.289 102.671 137.306 102.671H137.304Z" fill="#00C5B2"/>
<path d="M140.64 58.2985C140.64 58.2985 145.716 60.5363 151.816 65.9231C157.916 71.3099 148.894 97.9187 142.224 100.788C140.687 101.449 138.996 101.704 137.304 101.704C131.66 101.704 126.009 98.8685 126.009 98.8685L140.64 58.2985ZM139.523 55.6905L138.819 57.6417L124.188 98.2117L123.605 99.828L125.141 100.599C125.389 100.723 131.27 103.639 137.304 103.639C139.42 103.639 141.332 103.278 142.989 102.565C146.167 101.198 148.892 96.5261 150.618 92.8474C152.829 88.1368 154.542 82.6486 155.319 77.7866C155.783 74.892 155.892 72.3547 155.646 70.2473C155.342 67.6409 154.484 65.6977 153.096 64.471C146.843 58.9489 141.638 56.6226 141.419 56.526L139.521 55.6888L139.523 55.6905Z" fill="#00836D"/>
<path d="M151.692 69.5506C151.692 69.5506 152.785 72.0943 150.409 72.0492C149.464 72.0315 149.342 70.9834 147.498 69.4604C145.655 67.9375 146.006 67.023 146.474 66.4692C147.479 65.2843 150.57 66.1311 151.692 69.5506Z" fill="#B2FFF4"/>
<path d="M149.73 76.6195C150.513 76.6195 151.148 75.9845 151.148 75.2012C151.148 74.4178 150.513 73.7828 149.73 73.7828C148.946 73.7828 148.311 74.4178 148.311 75.2012C148.311 75.9845 148.946 76.6195 149.73 76.6195Z" fill="#B2FFF4"/>
<path d="M160.936 78.4791C160.936 78.4791 161.709 80.4046 160.044 80.3627C159.383 80.3466 159.293 79.5545 157.998 78.3986C156.704 77.2427 156.945 76.552 157.272 76.135C157.972 75.2415 160.139 75.8903 160.935 78.4791H160.936Z" fill="#B2FFF4"/>
<path d="M159.635 83.8053C160.183 83.7773 160.602 83.2751 160.572 82.6837C160.542 82.0923 160.073 81.6357 159.525 81.6637C158.977 81.6917 158.558 82.1939 158.588 82.7853C158.618 83.3767 159.087 83.8334 159.635 83.8053Z" fill="#B2FFF4"/>
<g style="mix-blend-mode:multiply" opacity="0.34">
<path d="M132.262 101.226C134.313 101.408 136.353 101.762 139.193 101.649C140.91 101.58 143.226 101.211 144.953 99.2486C146.994 99.693 148.781 99.7187 150.512 99.6495C152.429 99.5738 155.52 96.486 157.287 93.622C154.751 94.6942 151.972 92.2857 149.87 91.3407C149.87 91.3407 144.396 95.8404 136.253 92.6673C135.726 92.4628 131.697 102.356 132.262 101.226Z" fill="#00836D"/>
</g>
<path d="M146.708 62.1286C145.507 66.1904 144.153 70.3504 142.726 74.4638C139.849 82.7758 136.684 90.8785 133.967 97.5162C133.295 99.1615 132.65 100.72 132.043 102.164C131.006 104.632 130.084 106.783 129.324 108.525C128.723 109.909 128.226 111.031 127.862 111.848C127.419 112.841 127.174 113.384 127.174 113.384L124.533 113.499L121.585 113.632L119.374 113.728L115.213 113.91L98.9797 114.623L95.6118 114.77L93.8924 114.847L75.8291 115.637L74.232 115.708L70.6033 115.868L66.345 116.056L66.2549 116.059L66.1937 116.062L65.8782 116.075L65.3259 116.101L54.9098 116.555L53.8649 116.603L53.749 116.607L53.1163 116.636L52.8362 116.649L48.4588 116.84C48.4588 116.84 47.1821 115.217 45.1247 112.068C44.822 111.603 44.4984 111.11 44.1635 110.577C44.1378 110.532 44.1088 110.487 44.0798 110.442C43.5131 109.546 42.903 108.555 42.2574 107.474C41.6843 106.516 41.0838 105.485 40.4623 104.386C39.601 102.866 38.6963 101.211 37.7641 99.424C34.789 93.7297 31.5128 86.6992 28.3799 78.4161C27.2964 75.5569 26.2339 72.5512 25.2051 69.399C24.8026 68.169 24.4002 66.9631 24.0025 65.7815C19.0359 50.9911 15.2204 40.026 31.6013 30.4759C50.7771 19.295 121.348 14.4186 147.709 27.8501C153.819 30.9621 151.545 45.7235 146.711 62.1286H146.708Z" fill="#D83DFA" stroke="#870EA8" stroke-width="1.83389" stroke-miterlimit="10"/>
<g style="mix-blend-mode:soft-light">
<path d="M29.6631 71.4196C29.6631 71.4196 20.8875 51.6659 29.3733 44.088C37.8592 36.5101 128.062 31.5371 136.298 38.3374C144.536 45.1361 138.349 75.19 138.349 75.19C138.349 75.19 153.226 42.8226 145.829 33.1953C138.431 23.568 74.7296 19.7267 51.0574 28.3543C27.3867 36.9818 12.8314 39.7299 29.6631 71.4196Z" fill="#FFE347"/>
</g>
<path d="M51.0495 112.35C51.0495 112.35 32.8011 69.3715 35.6281 56.9381C39.0202 42.0302 90.8322 41.9208 99.69 43.0236C113.284 44.7172 133.348 46.765 134.031 57.9701C134.63 67.7793 119.807 111.621 119.807 111.621L51.0479 112.348L51.0495 112.35Z" fill="#F8FCB1"/>
<path d="M67.0817 59.928L66.9791 59.9482C65.0239 60.3325 63.7505 62.229 64.1348 64.1841L66.4495 75.9608C66.8338 77.9159 68.7303 79.1893 70.6855 78.805L70.7881 78.7849C72.7433 78.4006 74.0167 76.5041 73.6324 74.5489L71.3177 62.7723C70.9334 60.8172 69.0369 59.5437 67.0817 59.928Z" fill="#8F0AB5"/>
<path d="M97.278 59.4458L97.1734 59.4469C95.181 59.4682 93.583 61.1005 93.6042 63.093L93.732 75.0943C93.7532 77.0867 95.3856 78.6847 97.378 78.6635L97.4826 78.6624C99.4751 78.6411 101.073 77.0088 101.052 75.0163L100.924 63.015C100.903 61.0226 99.2705 59.4246 97.278 59.4458Z" fill="#8F0AB5"/>
<path d="M78.0398 78.8282C78.0398 78.8282 77.7162 86.749 83.8516 86.076C89.987 85.4015 89.459 78.7074 89.459 78.7074C89.459 78.7074 89.591 76.7932 88.0712 77.0041C86.5515 77.215 86.5627 78.2808 86.4194 79.1969C86.2762 80.1113 86.0701 83.5018 83.557 83.4921C81.0439 83.4841 80.8121 81.6922 80.4837 79.411C80.1553 77.1297 78.9703 77.1007 78.9703 77.1007C78.9703 77.1007 77.9464 77.1426 78.0414 78.8282H78.0398Z" fill="#8F0AB5"/>
<path d="M50.1173 166.997C44.2024 166.997 38.8269 163.743 36.0852 158.506C28.7536 144.494 20.0794 126.754 20.3869 121.811C20.3997 121.581 20.4335 121.359 20.4867 121.163C21.2176 118.477 25.7366 115.684 34.2998 112.625C40.4223 110.439 46.4338 108.932 46.4933 108.918L46.5883 108.893L129.003 107.557L129.118 107.588C129.977 107.816 150.211 113.282 154.152 121.819C155.499 124.737 153.928 130.395 149.346 139.118C145.605 146.242 140.604 153.939 137.067 159.141C134.092 163.516 129.153 166.161 123.853 166.218L50.2847 166.995C50.2283 166.995 50.172 166.995 50.1156 166.995L50.1173 166.997Z" fill="#B017DB"/>
<path d="M128.899 108.409C128.899 108.409 149.56 113.903 153.379 122.175C156.15 128.174 143.517 148.138 136.364 158.661C133.542 162.811 128.863 165.311 123.844 165.365L50.2753 166.142C50.2221 166.142 50.169 166.142 50.1159 166.142C44.544 166.142 39.426 163.053 36.8389 158.107C30.8822 146.722 20.9248 126.858 21.2371 121.86C21.2468 121.681 21.271 121.522 21.308 121.383C22.8616 115.681 46.6996 109.739 46.6996 109.739L128.899 108.407M129.108 106.702L128.871 106.706L46.6723 108.037L46.4775 108.04L46.2891 108.087C46.0428 108.148 40.1779 109.618 34.0151 111.819C30.3557 113.126 27.3581 114.422 25.1074 115.668C21.8892 117.45 20.1601 119.124 19.6675 120.934C19.5982 121.185 19.5548 121.465 19.5387 121.763C19.4421 123.371 19.9218 126.839 25.1396 138.292C28.4013 145.455 32.4824 153.448 35.332 158.894C36.7455 161.594 38.8706 163.856 41.4787 165.434C44.0851 167.01 47.0715 167.842 50.1175 167.842C50.1771 167.842 50.2366 167.842 50.2946 167.842L123.863 167.065C129.441 167.005 134.641 164.222 137.773 159.616C141.321 154.396 146.341 146.67 150.101 139.511C152.167 135.576 153.654 132.187 154.521 129.436C155.636 125.893 155.768 123.284 154.926 121.46C153.16 117.635 148.264 113.989 140.376 110.622C134.686 108.195 129.552 106.82 129.337 106.762L129.108 106.701V106.702Z" fill="#870EA8"/>
<path d="M153.381 122.175C151.729 133.617 55.2066 131.186 36.8342 128.61C28.2726 127.411 23.6908 124.56 21.2373 121.863C21.2469 121.684 21.2711 121.525 21.3081 121.386C22.8617 115.684 46.6998 109.742 46.6998 109.742L128.899 108.41C128.899 108.41 149.561 113.905 153.379 122.177L153.381 122.175Z" fill="#C14DE8"/>
<path d="M82.6036 171.084C69.0867 171.084 57.74 170.199 48.8806 168.451C41.0258 166.902 35.4362 164.696 32.7154 162.075C27.3238 156.882 29.6598 152.086 29.7628 151.885L30.27 150.882L30.922 151.798C34.4091 156.695 41.0371 159.947 51.1828 161.742C59.5947 163.23 68.9419 163.434 77.7884 163.434C78.7109 163.434 79.6092 163.432 80.4818 163.431C81.3028 163.429 82.0997 163.428 82.8693 163.428C83.4215 163.428 83.9592 163.428 84.4824 163.431C85.0845 163.434 85.677 163.434 86.2694 163.434C105.473 163.434 120.975 162.042 129.918 159.514C137.6 157.342 142.108 153.419 143.417 151.648L144.14 150.672L144.595 151.798C145.8 154.781 145.623 157.476 144.069 159.807C137.74 169.299 109.731 170.811 86.0376 171.068C84.8849 171.081 83.7306 171.088 82.6036 171.088V171.084Z" fill="#FF27FF"/>
<path d="M143.964 152.049C150.517 168.279 112.037 170.103 86.0299 170.386C84.8675 170.399 83.7277 170.405 82.6039 170.405C53.9635 170.405 38.1363 166.356 33.1858 161.586C28.0953 156.681 30.3669 152.191 30.3669 152.191C38.4535 163.545 61.6653 164.112 77.7887 164.112C79.5773 164.112 81.2806 164.106 82.8648 164.106C83.417 164.106 83.9547 164.106 84.4779 164.109C85.08 164.112 85.6757 164.112 86.2681 164.112C106.843 164.112 121.73 162.533 130.101 160.166C140.08 157.346 143.964 152.049 143.964 152.049ZM144.312 149.277L142.871 151.242C142.833 151.292 141.892 152.521 139.848 154.047C137.929 155.48 134.617 157.478 129.733 158.857C124.586 160.313 112.096 162.752 86.2697 162.752C85.6789 162.752 85.0864 162.752 84.4859 162.748C83.9611 162.747 83.4218 162.745 82.868 162.745C82.1 162.745 81.3015 162.747 80.4805 162.748C79.6095 162.75 78.7112 162.752 77.7919 162.752C68.976 162.752 59.6642 162.547 51.3039 161.069C46.6544 160.247 42.6811 159.083 39.4951 157.608C35.9356 155.961 33.2374 153.871 31.4777 151.4L30.1737 149.568L29.1578 151.574C29.0838 151.721 28.4317 153.07 28.5122 155.1C28.5847 156.932 29.2898 159.715 32.2456 162.562C35.0614 165.274 40.7686 167.541 48.7522 169.116C57.655 170.872 69.0468 171.762 82.6072 171.762C83.7341 171.762 84.8916 171.756 86.0476 171.743C95.3754 171.642 109.108 171.32 120.608 169.708C133.727 167.87 141.587 164.753 144.636 160.177C146.321 157.648 146.521 154.742 145.227 151.537L144.312 149.273V149.277Z" fill="#FFA0FF"/>
<path d="M86.3376 158.266C78.5246 158.266 64.7839 155.425 49.5815 150.666C38.6131 147.234 24.6889 141.972 21.5431 138.442C15.8907 132.102 18.9737 128.085 19.1073 127.918L19.7819 127.071L20.2503 128.047C22.4833 132.694 33.69 138.368 50.995 143.611C62.7023 147.16 79.4213 150.957 85.6501 150.957C85.9947 150.957 86.2877 150.943 86.5243 150.917C109.565 148.27 138.904 139.762 149.741 133.923C153.149 132.086 154.22 129.842 154.229 129.819L154.849 128.483L155.466 129.818C156.427 131.907 156.23 134.045 154.881 136.174C153.019 139.113 148.9 142.059 142.639 144.931C137.332 147.366 130.639 149.694 122.747 151.851C107.849 155.924 93.0413 158.194 86.6724 158.26C86.5613 158.26 86.4519 158.262 86.3376 158.262V158.266Z" fill="#FF27FF"/>
<path d="M19.637 128.344C25.1123 139.738 75.25 151.642 85.6485 151.642C86.0172 151.642 86.3359 151.627 86.6016 151.597C109.395 148.977 139.004 140.483 150.063 134.525C153.75 132.538 154.848 130.106 154.848 130.106C161.627 144.846 101.921 157.424 86.6644 157.585C86.5549 157.585 86.4486 157.587 86.3376 157.587C69.2788 157.587 27.3501 143.937 22.0486 137.991C16.7133 132.007 19.637 128.344 19.637 128.344ZM19.9251 125.804L18.5744 127.496C18.4263 127.683 15.0052 132.134 21.0344 138.896C22.4495 140.483 25.9366 142.473 31.3958 144.811C36.3817 146.945 42.5992 149.195 49.377 151.316C56.3544 153.499 63.3318 155.359 69.5558 156.69C76.5492 158.188 82.1952 158.946 86.3376 158.946C86.4535 158.946 86.5646 158.946 86.6789 158.944C93.0896 158.877 107.971 156.599 122.926 152.511C135.293 149.13 150.976 143.615 155.456 136.541C156.915 134.237 157.132 131.815 156.084 129.536L154.802 126.751L153.611 129.537C153.548 129.663 152.508 131.659 149.417 133.326C144.095 136.193 133.985 139.809 122.372 143C109.797 146.454 97.0387 149.027 86.447 150.243C86.2361 150.267 85.9673 150.28 85.6501 150.28C80.669 150.28 65.6356 147.34 51.1914 142.963C43.3285 140.58 36.4799 138.022 31.391 135.565C24.1029 132.047 21.6429 129.376 20.8637 127.754L19.9267 125.802L19.9251 125.804Z" fill="#FFA0FF"/>
<path d="M53.1924 129.9L84.9239 142.629L118.066 130.067L53.1924 129.9Z" fill="#8F0AB5"/>
<path d="M57.4236 114.786C57.4413 116.388 54.5692 117.718 51.0081 117.755C47.4485 117.792 44.5491 116.525 44.5314 114.923C44.5249 114.345 44.1434 111.836 44.7857 111.378C45.9239 110.565 48.6721 111.978 50.9469 111.954C53.1718 111.93 56.5108 110.483 57.6763 111.241C58.3767 111.696 57.4155 114.185 57.422 114.786H57.4236Z" fill="#FF5109"/>
<path d="M51.2692 114.206C54.8291 114.168 57.7012 112.839 57.6841 111.237C57.6671 109.634 54.7674 108.366 51.2075 108.404C47.6476 108.442 44.7755 109.772 44.7926 111.374C44.8097 112.976 47.7094 114.244 51.2692 114.206Z" fill="#FF7F68"/>
<path d="M45.0332 111.494C45.0332 111.494 45.1974 114.493 50.7822 114.533C56.367 114.573 57.8079 112.263 57.9238 111.357C57.9238 111.357 55.187 113.303 51.497 113.195C47.8071 113.087 45.8897 112.487 45.0332 111.492V111.494Z" fill="#FFAEA3"/>
<path d="M57.6761 111.241C57.6584 109.639 54.7589 108.37 51.1994 108.409C47.6399 108.446 44.7678 109.776 44.7839 111.378C44.412 112.804 44.5247 114.345 44.5295 114.923C44.5472 116.524 47.4467 117.793 51.0062 117.754C54.5657 117.717 57.4378 116.388 57.4217 114.786C57.4153 114.185 57.8629 112.67 57.6761 111.241Z" stroke="#F32B2B" stroke-width="1.52853" stroke-miterlimit="10"/>
<path d="M45.8284 122.043C45.8461 123.645 42.974 124.975 39.4129 125.012C35.8534 125.049 32.9539 123.782 32.9362 122.18C32.9297 121.602 32.5482 119.094 33.1905 118.635C34.3288 117.822 37.0769 119.236 39.3517 119.212C41.5766 119.187 44.9156 117.74 46.0812 118.498C46.7815 118.954 45.8204 121.443 45.8268 122.043H45.8284Z" fill="#FFD600" stroke="#EE9900" stroke-width="1.52853" stroke-miterlimit="10"/>
<path d="M39.6749 121.464C43.2348 121.426 46.1068 120.097 46.0898 118.495C46.0727 116.893 43.173 115.625 39.6131 115.662C36.0532 115.7 33.1812 117.03 33.1983 118.632C33.2153 120.234 36.115 121.502 39.6749 121.464Z" fill="#FFEB90"/>
<path d="M33.1924 118.635C33.1924 118.635 33.3566 121.635 38.9414 121.675C44.5262 121.715 45.9671 119.405 46.083 118.498C46.083 118.498 43.3461 120.445 39.6562 120.337C35.9663 120.229 34.0489 119.63 33.1924 118.635Z" fill="#FAFFD9"/>
<path d="M46.0827 118.498C46.065 116.896 43.1656 115.628 39.606 115.666C36.0465 115.703 33.1744 117.033 33.1905 118.635C32.8283 119.788 32.9313 121.602 32.9361 122.18C32.9539 123.782 35.8533 125.051 39.4129 125.012C42.9724 124.975 45.8445 123.645 45.8284 122.043C45.8219 121.443 46.2132 120.231 46.0827 118.498Z" stroke="#EE9900" stroke-width="1.52853" stroke-miterlimit="10"/>
<path d="M84.9143 124.325C92.7667 124.242 99.09 120.204 99.0379 115.307C98.9857 110.41 92.5779 106.508 84.7255 106.591C76.8731 106.675 70.5497 110.713 70.6019 115.61C70.654 120.507 77.0619 124.409 84.9143 124.325Z" fill="#FFD600" stroke="#EE9900" stroke-width="1.52853" stroke-miterlimit="10"/>
<path d="M94.1183 113.942C94.136 115.544 91.4861 118.488 84.85 118.558C77.5425 118.635 75.5076 116.085 75.4899 114.483C75.4722 112.881 76.7553 105.97 84.7147 105.884C94.0297 105.786 94.099 112.339 94.1167 113.94L94.1183 113.942Z" fill="#FF635B" stroke="#F32B2B" stroke-width="1.52853" stroke-miterlimit="10"/>
<path d="M88.2548 108.011C88.2548 108.011 85.7224 106.889 85.7433 109.267C85.7513 110.212 86.7978 110.347 88.2998 112.207C89.8019 114.066 90.7196 113.726 91.2782 113.263C92.4744 112.271 91.663 109.172 88.2548 108.011Z" fill="#FFCC8E"/>
<path d="M73.9744 113.801C73.9744 113.801 72.8861 119.96 84.5049 119.838C96.1237 119.715 95.8114 113.57 95.8114 113.57" stroke="#FAFFD9" stroke-width="1.52853" stroke-linecap="round" stroke-linejoin="round"/>
<path d="M83.1498 110.312C83.9331 110.312 84.5681 109.677 84.5681 108.893C84.5681 108.11 83.9331 107.475 83.1498 107.475C82.3665 107.475 81.7314 108.11 81.7314 108.893C81.7314 109.677 82.3665 110.312 83.1498 110.312Z" fill="#FFCC8E"/>
<path d="M66.2087 123.219C66.2265 124.821 63.3544 126.15 59.7932 126.187C56.2337 126.224 53.3342 124.957 53.3165 123.356C53.3101 122.778 52.9285 120.269 53.5709 119.81C54.7091 118.997 57.4572 120.411 59.732 120.387C61.957 120.363 65.2959 118.915 66.4615 119.674C67.1618 120.129 66.2007 122.618 66.2071 123.219H66.2087Z" fill="#00D2C8"/>
<path d="M60.0553 122.64C63.6152 122.602 66.4873 121.272 66.4702 119.67C66.4531 118.068 63.5535 116.8 59.9936 116.838C56.4337 116.876 53.5616 118.205 53.5787 119.808C53.5958 121.41 56.4954 122.678 60.0553 122.64Z" fill="#00FBF4"/>
<path d="M53.8682 119.978C53.8682 119.978 54.0324 122.977 59.6172 123.017C65.202 123.058 66.6429 120.747 66.7588 119.841C66.7588 119.841 64.022 121.787 60.332 121.679C56.6421 121.572 54.7247 120.971 53.8682 119.976V119.978Z" fill="#44F8FF"/>
<path d="M66.6013 119.611C66.5836 118.009 63.6841 116.74 60.1246 116.779C56.565 116.816 53.6929 118.146 53.709 119.748C53.3468 120.9 53.4498 122.715 53.4547 123.293C53.4724 124.894 56.3718 126.163 59.9314 126.124C63.4909 126.087 66.363 124.758 66.3469 123.156C66.3405 122.555 66.7317 121.343 66.6013 119.611Z" stroke="#0097BB" stroke-width="1.52853" stroke-miterlimit="10"/>
<path d="M139.883 115.451C140.394 115.451 140.856 115.592 141.187 115.821C141.52 116.05 141.727 116.367 141.727 116.716L141.73 118.352H144.112C144.621 118.353 145.083 118.497 145.418 118.725C145.751 118.954 145.957 119.269 145.957 119.619V121.423C145.957 121.774 145.75 122.09 145.418 122.319C145.085 122.547 144.624 122.689 144.114 122.689H141.731L141.728 124.326C141.728 124.677 141.52 124.993 141.189 125.221C140.856 125.45 140.395 125.592 139.885 125.592H135.63C135.119 125.592 134.657 125.45 134.326 125.221C133.992 124.993 133.786 124.676 133.786 124.326L133.783 122.69H131.4C130.89 122.689 130.428 122.547 130.096 122.319C129.763 122.09 129.557 121.773 129.557 121.423V119.619C129.557 118.922 130.386 118.353 131.4 118.353H133.783L133.786 116.716C133.786 116.367 133.994 116.051 134.327 115.821C134.379 115.789 134.43 115.757 134.482 115.726C134.599 115.665 134.743 115.6 134.913 115.55C135.197 115.467 135.446 115.449 135.631 115.451H139.886H139.883Z" fill="#6B038E" stroke="#682D6D" stroke-width="1.92932" stroke-miterlimit="10"/>
<path fill-rule="evenodd" clip-rule="evenodd" d="M135.628 125.476C134.767 125.476 134.092 124.972 134.092 124.328V122.571H131.397C130.536 122.571 129.862 122.067 129.862 121.424V119.62C129.862 118.976 130.536 118.473 131.397 118.473H134.092V116.716C134.092 116.072 134.767 115.568 135.628 115.568H139.883C140.745 115.568 141.419 116.072 141.419 116.716V118.473H144.114C144.976 118.473 145.65 118.976 145.65 119.62V121.424C145.65 122.067 144.976 122.571 144.114 122.571H141.419V124.328C141.419 124.972 140.745 125.476 139.883 125.476H135.628Z" fill="#00917F"/>
<path d="M139.883 115.869C140.564 115.869 141.12 116.251 141.12 116.718V118.772H144.112C144.793 118.772 145.349 119.153 145.349 119.62V121.423C145.349 121.89 144.792 122.272 144.112 122.272H141.12V124.326C141.12 124.793 140.563 125.175 139.883 125.175H135.628C134.949 125.175 134.392 124.793 134.392 124.326V122.272H131.399C130.72 122.272 130.162 121.89 130.162 121.423V119.62C130.162 119.153 130.72 118.772 131.399 118.772H134.392V116.718C134.392 116.251 134.949 115.869 135.628 115.869H139.883ZM139.883 115.272H135.628C134.599 115.272 133.794 115.908 133.794 116.718V118.175H131.399C130.37 118.175 129.565 118.811 129.565 119.62V121.423C129.565 122.235 130.37 122.869 131.399 122.869H133.794V124.326C133.794 125.138 134.599 125.772 135.628 125.772H139.883C140.912 125.772 141.717 125.136 141.717 124.326V122.869H144.112C145.141 122.869 145.946 122.233 145.946 121.423V119.62C145.946 118.809 145.141 118.175 144.112 118.175H141.717V116.718C141.717 115.906 140.912 115.272 139.883 115.272Z" fill="#006B5E"/>
<path fill-rule="evenodd" clip-rule="evenodd" d="M135.628 113.644H139.883C140.564 113.644 141.12 114.026 141.12 114.493V116.547H144.113C144.794 116.547 145.349 116.929 145.349 117.396V119.199C145.349 119.666 144.792 120.047 144.113 120.047H141.12V122.101C141.12 122.568 140.563 122.95 139.883 122.95H135.628C134.949 122.95 134.392 122.568 134.392 122.101V120.047H131.399C130.72 120.047 130.163 119.666 130.163 119.199V117.396C130.163 116.929 130.72 116.547 131.399 116.547H134.392V114.493C134.392 114.026 134.949 113.644 135.628 113.644Z" fill="#00C5B2"/>
<path fill-rule="evenodd" clip-rule="evenodd" d="M114.872 115.302C118.531 115.302 121.674 116.666 123.027 118.609H123.737V120.746C123.737 123.751 119.767 126.19 114.873 126.19C109.979 126.19 106.009 123.753 106.009 120.746V118.609H106.719C108.071 116.664 111.213 115.302 114.872 115.302Z" fill="#6B038E" stroke="#460163" stroke-width="1.28737" stroke-miterlimit="10"/>
<path fill-rule="evenodd" clip-rule="evenodd" d="M114.814 113.165C119.708 113.113 123.704 115.509 123.736 118.514C123.768 121.52 119.824 124.001 114.93 124.053C110.036 124.104 106.04 121.708 106.008 118.703C105.975 115.697 109.92 113.216 114.814 113.165Z" fill="#8F0AB5" stroke="#590C75" stroke-width="1.28737" stroke-miterlimit="10"/>
<path fill-rule="evenodd" clip-rule="evenodd" d="M114.872 116.299C116.606 116.299 118.013 117.162 118.013 118.228C118.013 119.294 116.607 120.157 114.872 120.157C113.136 120.157 111.731 119.294 111.731 118.228C111.731 117.162 113.136 116.299 114.872 116.299Z" fill="#6B038E"/>
<path fill-rule="evenodd" clip-rule="evenodd" d="M116.795 118.068C116.795 118.722 115.933 119.252 114.872 119.252C113.811 119.252 112.948 118.722 112.948 118.068V110.265H116.797V118.068H116.795Z" fill="#B7A6B7"/>
<path fill-rule="evenodd" clip-rule="evenodd" d="M115.319 118.217C115.176 118.237 115.024 118.249 114.871 118.249C114.495 118.249 114.144 118.181 113.846 118.067V111.333C114.182 111.374 114.524 111.395 114.871 111.395C115.021 111.395 115.171 111.39 115.319 111.384V118.217Z" fill="#D9CCD9"/>
<path fill-rule="evenodd" clip-rule="evenodd" d="M114.871 93.9905C119.471 93.9905 123.201 97.7207 123.201 102.32C123.201 106.92 119.471 110.65 114.871 110.65C110.272 110.65 106.542 106.92 106.542 102.32C106.542 97.7207 110.272 93.9905 114.871 93.9905Z" fill="#D63434" stroke="#B71818" stroke-width="1.28737" stroke-miterlimit="10"/>
<path fill-rule="evenodd" clip-rule="evenodd" d="M114.203 94.8453C117.961 94.8453 121.01 97.8929 121.01 101.652C121.01 105.411 117.962 108.459 114.203 108.459C110.444 108.459 107.396 105.411 107.396 101.652C107.396 97.8929 110.444 94.8453 114.203 94.8453Z" fill="#FF635B"/>
<path fill-rule="evenodd" clip-rule="evenodd" d="M110.267 97.6675C111.684 96.2508 113.46 95.7292 114.232 96.5036C115.005 97.2763 114.485 99.0521 113.068 100.469C111.652 101.886 109.876 102.407 109.103 101.633C108.33 100.86 108.85 99.0843 110.267 97.6675Z" fill="#FFCC8E"/>
</svg>
