<svg width="179" height="192" viewBox="0 0 179 192" fill="none" xmlns="http://www.w3.org/2000/svg">
<g clip-path="url(#clip0_110_794)">
<mask id="mask0_110_794" style="mask-type:luminance" maskUnits="userSpaceOnUse" x="0" y="0" width="179" height="192">
<path d="M179 0H0V192H179V0Z" fill="white"/>
</mask>
<g mask="url(#mask0_110_794)">
<path d="M13.8833 167.079H23.2091V182.859C23.2091 184.443 21.9235 185.731 20.3378 185.731H16.7547C15.1707 185.731 13.8833 184.445 13.8833 182.859V167.079Z" fill="#FF8D15"/>
<path d="M15.7476 167.079H21.3421V178.287C21.3421 179.308 20.5135 180.134 19.4947 180.134H17.595C16.5745 180.134 15.7476 179.306 15.7476 178.287V167.079Z" fill="#FFD017"/>
<path d="M19.1268 163.343H17.9546C17.2465 163.343 16.6724 163.917 16.6724 164.625V171.393C16.6724 172.101 17.2465 172.675 17.9546 172.675H19.1268C19.835 172.675 20.409 172.101 20.409 171.393V164.625C20.409 163.917 19.835 163.343 19.1268 163.343Z" fill="white"/>
<path d="M22.7836 161.017H14.3074C13.3006 161.017 12.4844 161.833 12.4844 162.84V166.655C12.4844 167.662 13.3006 168.478 14.3074 168.478H22.7836C23.7904 168.478 24.6065 167.662 24.6065 166.655V162.84C24.6065 161.833 23.7904 161.017 22.7836 161.017Z" fill="#2F3C59" stroke="#27273D" stroke-width="2.77541" stroke-miterlimit="10"/>
<path d="M16.5662 89.6783H23.5928C26.9822 89.6783 29.735 92.4311 29.735 95.8205V157.281C29.735 159.601 27.8527 161.483 25.5326 161.483H11.5579C9.23773 161.483 7.35547 159.601 7.35547 157.281V98.8907C7.35547 93.8057 11.4829 89.6783 16.5679 89.6783H16.5662Z" fill="url(#paint0_linear_110_794)" stroke="#A30C22" stroke-width="1.86481" stroke-linecap="round" stroke-linejoin="round"/>
<path opacity="0.48" d="M14.6964 102.734H13.0706C12.0889 102.734 11.293 103.53 11.293 104.511V151.146C11.293 152.127 12.0889 152.923 13.0706 152.923H14.6964C15.6782 152.923 16.474 152.127 16.474 151.146V104.511C16.474 103.53 15.6782 102.734 14.6964 102.734Z" fill="#FF8DAA"/>
<path d="M7.35547 116.723V155.358C7.35547 158.741 10.0978 161.483 13.4802 161.483H23.6102C26.9927 161.483 29.735 158.741 29.735 155.358V116.723H7.35547Z" fill="url(#paint1_linear_110_794)" stroke="#A30C22" stroke-width="1.86481" stroke-linecap="round" stroke-linejoin="round"/>
<path opacity="0.48" d="M12.5294 95.1316C11.0047 96.0353 10.3628 98.0536 11.2298 98.9991C12.184 100.041 16.4578 99.088 17.0475 97.1273C17.2097 96.5865 17.1138 95.9009 16.6654 95.409C15.9014 94.5647 14.0523 94.2298 12.5276 95.1334L12.5294 95.1316Z" fill="#FF8DAA"/>
<path opacity="0.48" d="M11.293 117.659H16.474V151.507C16.474 152.29 15.839 152.925 15.0558 152.925H13.1945C12.146 152.925 11.2948 152.074 11.2948 151.025V117.661L11.293 117.659Z" fill="#FF8DAA"/>
<path d="M105.32 25.3349H79.1076C50.8093 25.3349 27.8682 48.276 27.8682 76.5744V149.614C28.0287 153.087 28.8869 160.086 34.0766 164.602C39.1826 169.045 45.8481 168.793 50.975 168.602C65.0352 168.084 83.6885 167.399 90.6558 167.301C121.044 166.877 134.345 168.091 134.347 168.091C137.606 168.39 145.332 169.168 150.351 164.601C152.397 162.739 154.478 159.547 155.607 155.912C156.226 153.921 156.559 151.805 156.559 149.612V76.5726C156.559 48.2743 133.618 25.3331 105.32 25.3331V25.3349Z" fill="url(#paint2_linear_110_794)" stroke="#115468" stroke-width="2.79808" stroke-miterlimit="10"/>
<path d="M27.0533 151.055C27.7894 153.771 31.3847 161.79 31.9621 162.82C35.2173 168.627 47.2871 168.391 50.9504 168.283C75.5086 167.559 87.7773 167.029 89.5828 167.003C119.075 166.586 132.037 167.772 132.119 167.781C132.119 167.781 145.676 169.748 150.333 162.495C151.542 160.613 152.088 158.722 152.817 155.798C153.44 153.3 153.663 151.146 153.744 149.6L155.833 76.679C155.833 76.679 156.918 67.8992 153.562 59.2695C150.206 50.6397 144.861 43.9812 144.861 43.9812C144.861 43.9812 137.346 33.9925 125.159 29.4622C112.971 24.9336 79.2575 24.4452 73.4816 25.7884C67.7058 27.1299 57.9247 27.866 51.0725 32.7191C44.2203 37.5704 39.6342 42.2873 36.1069 48.7034C33.8932 52.7313 29.4606 58.8246 29.7659 62.87C30.1078 67.4021 31.1283 69.136 32.6233 67.3044C35.4528 63.8382 38.5945 50.4862 52.1052 41.5529C63.1824 34.228 89.8863 32.8918 96.1785 32.9895C106.305 33.1482 118.476 38.4757 120.191 39.2921C128.7 43.3479 146.884 48.3615 145.374 92.4767C145.02 102.8 143.969 133.328 143.969 132.615C144.699 148.428 144.761 152.92 134.01 157.727C126.474 161.098 79.3028 162.12 51.6935 161.018C47.5836 160.854 40.1052 161.434 34.6765 160.294C29.2495 159.153 29.1082 148.506 29.1082 148.506C29.1082 148.506 26.9835 150.792 27.055 151.055H27.0533Z" fill="#118EB5"/>
<path d="M135.262 145.549C135.262 145.549 137.517 147.29 136.277 149.686C135.036 152.081 136.238 153.042 130.25 154.717C124.261 156.391 45.8744 162.041 39.0902 156.581C32.3044 151.121 31.4723 141.363 31.7688 139.496C32.0671 137.631 135.262 145.549 135.262 145.549Z" fill="#118EB5"/>
<path d="M105.32 25.4815H79.1076C50.8093 25.4815 27.8682 48.4226 27.8682 76.721V149.761C28.0287 153.234 28.8869 160.233 34.0766 164.749C39.1826 169.192 45.8481 168.939 50.975 168.749C65.0352 168.231 83.6885 167.545 90.6558 167.448C121.044 167.024 134.345 168.238 134.347 168.238C137.606 168.536 145.332 169.314 150.351 164.747C152.397 162.886 154.478 159.694 155.607 156.058C156.226 154.068 156.559 151.952 156.559 149.759V76.7192C156.559 48.4209 133.618 25.4797 105.32 25.4797V25.4815Z" stroke="#115468" stroke-width="2.79808" stroke-miterlimit="10"/>
<path d="M37.937 63.3444C38.3766 62.6257 38.8842 61.8372 39.4633 61.0016" stroke="#0D7AB5" stroke-width="0.933276" stroke-miterlimit="10" stroke-linecap="round"/>
<path d="M43.0972 56.3962C45.3458 53.8859 48.184 51.2693 51.7235 48.923C52.5451 48.3787 55.2368 46.6325 59.4322 44.841C71.3362 39.7594 82.3245 39.8641 91.0868 40.0333C101.055 40.227 106.914 40.3403 114.3 43.4838C122.108 46.8052 127.063 51.5711 128.818 53.3661C131.143 55.7455 132.959 58.1424 134.37 60.3316" stroke="#0D7AB5" stroke-width="0.933276" stroke-miterlimit="10" stroke-linecap="round"/>
<path d="M135.877 62.8488C136.374 63.7454 136.798 64.581 137.158 65.3363" stroke="#0D7AB5" stroke-width="0.933276" stroke-miterlimit="10" stroke-linecap="round"/>
<path d="M32.6221 67.3042C34.1764 62.0465 37.5833 53.3679 45.3879 46.0168C59.0852 33.1149 76.9117 33.1742 89.4717 33.2161C102.131 33.258 115.79 33.3051 128.095 43.1053C140.12 52.6841 143.827 65.9802 145.004 71.3322" stroke="white" stroke-width="2.79808" stroke-miterlimit="10" stroke-linecap="round"/>
<path d="M56.222 58.9047H113.285C126.618 58.9047 137.442 69.7289 137.442 83.0617V137.821C137.442 143.674 132.69 148.428 126.836 148.428H42.6711C36.8185 148.428 32.0649 143.676 32.0649 137.821V83.0617C32.0649 69.7289 42.8892 58.9047 56.222 58.9047Z" fill="#A81D35" stroke="white" stroke-width="2.14566" stroke-miterlimit="10"/>
<path opacity="0.17" d="M98.8694 114.603C100.847 114.558 103.444 111.986 105.207 106.793C109.418 94.4142 122.01 66.8636 126.36 52.2549L126.368 52.2345C126.482 51.9525 126.568 51.6611 126.625 51.3621C127.323 48.9101 127.761 46.8697 127.849 45.3908C127.89 44.5972 127.711 43.807 127.334 43.1075C127.443 41.8839 127.504 40.4663 127.363 39.3554C127.359 39.3146 127.351 39.2757 127.341 39.2369C127.339 39.2239 127.336 39.2109 127.332 39.1981C127.326 39.1705 127.319 39.143 127.311 39.1157L127.288 39.0729L127.261 38.9992L127.236 38.9501L127.199 38.882L127.107 38.7061L127.068 38.6316L127.039 38.5762L126.991 38.504L126.955 38.4541L126.899 38.3792L126.86 38.3311C126.848 38.3106 126.829 38.2939 126.814 38.2769C128.29 37.5928 131.364 35.7903 133.76 31.8783C134.851 30.0966 135.037 28.2975 134.592 26.633C134.767 26.4355 134.873 26.1886 134.896 25.9267L134.897 25.8542C134.9 25.8227 134.901 25.793 134.899 25.7618C134.844 25.0117 134.663 24.276 134.364 23.5854C134.282 23.3907 134.19 23.2 134.092 23.013C133.994 22.8244 133.885 22.6384 133.774 22.4639C133.162 21.5235 132.438 20.6591 131.619 19.8923C131.451 19.7288 131.28 19.5671 131.107 19.4072C130.585 18.9244 130.035 18.4487 129.479 17.9735L128.92 17.4985C128.27 16.9446 127.615 16.378 126.979 15.8034C126.799 15.6391 126.624 15.4694 126.446 15.3033C126.185 15.0513 125.926 14.794 125.681 14.5309C125.516 14.3555 125.355 14.1799 125.198 14.0007C123.711 12.2994 122.634 10.3697 122.55 7.94695L122.547 7.94065C122.428 8.00393 122.306 8.06746 122.184 8.13099L122.133 8.15786C122.116 8.1674 122.1 8.17519 122.083 8.18473C121.957 8.25014 121.831 8.31732 121.708 8.39735C121.696 8.40324 121.681 8.4109 121.669 8.41844C121.563 8.48237 121.456 8.54971 121.351 8.61855L121.296 8.64743C121.275 8.65886 121.254 8.66865 121.234 8.68008C121.108 8.76199 120.981 8.84894 120.858 8.93728L120.803 8.97598C120.705 9.04597 120.605 9.11772 120.507 9.19263C120.492 9.19865 120.476 9.20643 120.464 9.21561L120.453 9.22138C120.429 9.23469 120.411 9.25255 120.389 9.26901C120.261 9.36591 120.135 9.46759 120.01 9.56928L119.954 9.61466C119.828 9.71634 119.712 9.81729 119.591 9.92024L119.557 9.94916C119.429 10.0609 119.3 10.1777 119.172 10.296C119.151 10.3074 119.136 10.3283 119.119 10.3428C118.858 10.5848 118.601 10.8346 118.346 11.096L118.305 11.1369C118.046 11.4034 117.794 11.6777 117.543 11.9617L117.516 11.9917C117.261 12.281 117.012 12.5813 116.77 12.8861L116.754 12.8939C113.36 17.161 109.758 30.8753 117.284 36.0431C117.276 36.047 117.266 36.051 117.259 36.0565C117.218 36.0794 117.175 36.1007 117.133 36.1219L117.067 36.1566C117.026 36.1778 116.986 36.1989 116.951 36.2312C116.915 36.2619 116.908 36.2542 116.888 36.2721C116.87 36.2916 116.81 36.3274 116.771 36.3567L116.718 36.3953C116.663 36.4389 116.609 36.4825 116.558 36.5275C116.224 36.8194 115.77 37.4103 115.283 38.0941C115.155 38.2767 115.027 38.4658 114.897 38.6551C114.897 38.6551 114.884 38.661 114.883 38.6742C114.884 38.6873 114.85 38.6916 114.833 38.7011C114.815 38.7107 114.825 38.705 114.82 38.707C114.747 38.7454 114.673 38.7691 114.597 38.8061L114.578 38.8158C114.51 38.8522 114.437 38.889 114.372 38.9235L114.346 38.937C114.28 38.9716 114.215 39.0062 114.154 39.0503C114.145 39.0559 114.134 39.0617 114.124 39.0657C114.061 39.0985 114.006 39.1454 113.949 39.1859C113.936 39.1918 113.922 39.1995 113.909 39.207C113.854 39.2457 113.802 39.2892 113.749 39.3311L113.71 39.362C113.66 39.4036 113.612 39.4467 113.565 39.4915C113.549 39.4993 113.537 39.515 113.523 39.5292C113.477 39.5738 113.431 39.6201 113.389 39.6662C113.375 39.6787 113.363 39.6928 113.351 39.7085C113.306 39.7563 113.264 39.8073 113.225 39.858C113.209 39.8657 113.201 39.8861 113.189 39.9002C113.145 39.9578 113.102 40.0171 113.062 40.0761C113.056 40.0848 113.049 40.0952 113.043 40.1022C112.997 40.1732 112.951 40.2458 112.909 40.3198C112.44 41.1489 111.818 42.9101 111.081 45.3518C111.04 45.3993 110.998 45.447 110.957 45.4978C110.916 45.547 110.901 45.5679 110.875 45.6061C110.848 45.6427 110.789 45.7163 110.749 45.772C110.727 45.8066 110.705 45.8429 110.679 45.8793C110.64 45.9416 110.598 46.0024 110.56 46.0695C110.541 46.0989 110.527 46.1312 110.51 46.1622C110.409 46.3394 110.321 46.5222 110.245 46.7108C109.926 47.489 109.837 48.3438 109.99 49.1722C105.962 64.0498 99.775 92.4787 96.752 104.761L96.7471 104.784C96.7043 104.959 96.6631 105.133 96.6249 105.304L96.586 105.488L96.5114 105.831C96.4969 105.902 96.484 105.97 96.4674 106.034L96.4063 106.338L96.3698 106.554C96.3522 106.649 96.3347 106.744 96.3203 106.837L96.2871 107.052L96.2478 107.319L96.221 107.531C96.2093 107.616 96.1977 107.703 96.1891 107.786L96.1636 107.994L96.1409 108.239C96.1327 108.306 96.128 108.373 96.1216 108.441L96.1048 108.678L96.0892 108.865L96.0787 109.097L96.0694 109.28L96.0653 109.51L96.0632 109.679C96.0625 109.78 96.0634 109.879 96.0674 109.975L96.0749 110.228L96.0824 110.416L96.0966 110.604L96.1088 110.766L96.1277 110.952L96.1437 111.099L96.1693 111.285L96.1892 111.419L96.2209 111.599L96.2432 111.721L96.2811 111.896L96.3075 112.006L96.3518 112.179L96.3804 112.274L96.4328 112.446L96.4582 112.52C96.4792 112.581 96.5002 112.64 96.5226 112.698L96.5456 112.741C96.673 113.077 96.8483 113.393 97.066 113.681L97.0697 113.688C97.1079 113.736 97.146 113.782 97.1856 113.827L97.1953 113.846C97.2331 113.889 97.2724 113.929 97.3112 113.964L97.3325 113.984C97.3732 114.022 97.414 114.06 97.4564 114.098L97.4759 114.117L97.6034 114.214L97.6225 114.227C97.6676 114.257 97.7126 114.287 97.759 114.313L97.7729 114.321C98.1051 114.512 98.4843 114.606 98.8672 114.595L98.871 114.601L98.8694 114.603Z" fill="#7F3116"/>
<path d="M114.46 41.9948C114.46 41.9948 117.006 37.5939 118.132 36.6083C121.265 33.8677 128.605 36.9514 128.915 39.4066C129.223 41.8619 128.555 45.8234 128.555 45.8234L114.46 41.9932V41.9948Z" fill="#93B4BF"/>
<path d="M114.771 42.0816C114.958 41.9028 115.125 41.7059 115.27 41.4907C115.97 40.4384 117.787 38.1328 119.692 35.7794C119.116 35.9413 118.581 36.2269 118.126 36.6152C117 37.6008 114.454 42.0017 114.454 42.0017L114.773 42.0831L114.771 42.0816Z" fill="#7C969E"/>
<path d="M124.043 35.9014L121.63 43.9434L126.956 45.3903L128.957 39.8611C128.946 39.7039 128.931 39.5518 128.912 39.4034C128.746 38.0852 126.533 36.5802 124.042 35.9015L124.043 35.9014Z" fill="#B6D5DE"/>
<path d="M98.3034 104.804C102.239 88.8629 111.488 45.7015 114.482 40.4137C117.153 35.6971 129.75 39.4853 129.399 45.4436C128.799 55.5904 111.793 92.055 106.763 106.84C102.957 118.034 95.2832 117.058 98.3034 104.804Z" fill="#EC2A7B"/>
<path d="M118.029 38.365C116.461 38.5752 115.156 39.2219 114.481 40.4106C111.488 45.6999 102.237 88.863 98.3037 104.802C96.9221 110.405 97.7789 113.649 99.4794 114.45C96.1831 112.511 110.378 49.6321 118.031 38.3648L118.029 38.365Z" fill="#CC1B6D"/>
<path d="M123.131 38.9425L100.426 114.649C100.998 114.617 101.553 114.435 102.033 114.121L128.156 42.0787C126.99 40.6925 125.125 39.5895 123.131 38.9409V38.9425Z" fill="#F53E90"/>
<path d="M127.508 38.6757C127.508 38.6757 132.048 37.2653 135.318 31.9238C138.589 26.5824 133.745 21.0891 128.073 19.5448C122.4 18.0021 123.605 8.91642 123.605 8.91642C115.683 13.3514 109.639 33.6029 120.201 36.6352C124.528 37.879 127.508 38.6741 127.508 38.6741V38.6757Z" fill="#A85900"/>
<path d="M123.767 8.70515C121.637 9.72347 119.219 11.689 117.917 13.4898C114.82 17.7724 112.764 23.0554 114.631 26.0472C118.56 32.3437 124.385 20.6179 128.703 26.6991C130.248 28.8736 136.591 28.0322 136.455 25.8061C136.093 19.8191 124.038 16.8662 123.765 8.70528L123.767 8.70515Z" fill="#EFD02F"/>
<path d="M136.454 25.9723C136.461 25.9174 136.462 25.863 136.458 25.8089C135.714 19.8985 123.974 17.0784 123.7 8.91912C121.438 10.0001 119.102 11.8095 117.595 13.9239C115.446 17.6658 114.418 21.9031 116.02 24.5048C119.969 30.9085 125.184 19.3834 129.5 25.5883C130.765 27.4083 135.067 27.2987 136.454 25.9723Z" fill="#FFDD41"/>
<path d="M123.004 9.37529C123.06 9.34641 123.119 9.33039 123.182 9.33061C123.245 9.33084 123.305 9.34606 123.36 9.3765C123.415 9.40531 123.461 9.44796 123.495 9.50142C123.528 9.55324 123.549 9.61259 123.554 9.67482C124.126 17.1742 133.907 20.0858 136.456 25.9016C136.459 25.8718 136.46 25.8404 136.459 25.8108C135.952 18.7215 124.38 16.1522 124.107 7.99127C121.926 9.03319 119.646 11.1596 117.795 13.6654C119.434 11.854 121.245 10.3328 123.004 9.37692V9.37529Z" fill="#FFEAA4"/>
<path d="M113.119 51.3016C114.591 51.8857 116.395 50.8195 117.151 48.9182C117.905 47.0169 117.326 45.0037 115.854 44.4178C114.382 43.8337 112.578 44.8999 111.822 46.8012C111.068 48.7025 111.647 50.7157 113.119 51.3016Z" fill="#F0EFE8"/>
<path d="M117.011 45.4306C116.746 44.9779 116.341 44.6247 115.857 44.4273C114.473 43.8776 112.791 44.7865 111.97 46.4835C113.051 47.4298 114.954 47.2701 116.401 46.0562C116.624 45.8665 116.829 45.6584 117.013 45.4321L117.011 45.4306Z" fill="black"/>
<path d="M123.9 54.6648C125.372 55.249 127.175 54.1828 127.931 52.2814C128.686 50.3802 128.106 48.3669 126.634 47.7827C125.163 47.1985 123.359 48.2647 122.603 50.1661C121.848 52.0673 122.428 54.0806 123.9 54.6648Z" fill="#F0EFE8"/>
<path d="M126.977 47.961C126.867 47.892 126.752 47.8331 126.631 47.7845C125.161 47.2018 123.354 48.2683 122.6 50.1679C122.481 50.4683 122.394 50.7795 122.339 51.0982C123.348 51.2742 124.558 50.9394 125.554 50.1036C126.234 49.5485 126.729 48.8015 126.976 47.9612L126.977 47.961Z" fill="black"/>
<path d="M121.459 50.2471C121.034 54.1162 117.909 53.9051 117.072 50.6876L121.459 50.2471Z" fill="#720719"/>
<path d="M120.827 52.2399C120.033 51.7513 119.019 52.2426 118.307 52.7392C119.147 53.3693 120.164 53.2367 120.827 52.2399Z" fill="#FF6C8A"/>
<path d="M119.463 52.6716C118.811 52.7206 118.072 52.6626 117.487 52.5173C116.841 52.3568 116.449 51.7028 116.608 51.0569C116.768 50.4124 117.419 50.0176 118.068 50.1779C118.402 50.2614 118.891 50.2971 119.282 50.2677C119.798 50.2288 120.181 50.1407 120.648 49.954C121.264 49.7068 121.966 50.0063 122.214 50.625C122.461 51.2421 122.162 51.9431 121.543 52.1906C120.846 52.4703 120.224 52.6126 119.463 52.67V52.6716Z" fill="white"/>
<path d="M120.211 49.9691L121.048 52.8424" stroke="#F53E90" stroke-width="0.64021" stroke-miterlimit="10"/>
<path d="M118.68 50.0496L118.062 52.9764" stroke="#EC2A7B" stroke-width="0.64021" stroke-miterlimit="10"/>
<path d="M115.12 48.0794C115.953 48.2654 116.696 48.1007 116.782 47.7138C116.868 47.3269 116.264 46.8636 115.431 46.6776C114.599 46.4915 113.855 46.6562 113.769 47.0431C113.683 47.43 114.288 47.8934 115.12 48.0794Z" fill="white"/>
<path d="M125.886 51.0601C126.718 51.2445 127.462 51.0815 127.548 50.6946C127.634 50.3077 127.03 49.8443 126.197 49.6583C125.365 49.4739 124.621 49.6369 124.535 50.0238C124.449 50.4107 125.054 50.8741 125.886 51.0601Z" fill="white"/>
<path d="M30.9455 40.6074C30.9455 40.6074 49.0267 37.2145 66.806 31.9131C84.5854 26.6117 97.3774 23.6427 97.3774 23.6427C97.3774 23.6427 98.8078 27.4595 99.6102 41.8808C100.413 56.3004 100.846 71.5416 100.413 82.2647C99.9783 92.9877 98.1833 103.179 98.1833 103.179L56.1806 108.681C56.1806 108.681 53.1453 89.1709 47.291 71.3584C44.0638 61.5372 39.4254 53.1988 35.9137 47.6933C33.0563 43.2136 30.9438 40.6091 30.9438 40.6091L30.9455 40.6074Z" fill="#D6D6BD" stroke="#828277" stroke-width="0.961187" stroke-miterlimit="10"/>
<path d="M35.4704 46.078C35.4704 46.078 53.3755 37.7779 67.3606 34.4914C81.3458 31.2049 92.0777 30.3553 92.0777 30.3553C92.0777 30.3553 95.9067 38.6345 98.8165 59.5713C101.726 80.508 100.561 101.078 100.561 101.078L56.9515 104.471C56.9515 104.471 58.6541 98.2856 50.3819 77.0087C42.1098 55.7317 41.2638 56.1207 35.4688 46.078H35.4704Z" fill="#C2C1A9"/>
<path d="M100.099 102.319L49.4577 113.945C49.4577 113.945 48.2243 92.4678 46.7084 84.8899C45.1925 77.3121 42.1676 68.5759 39.2963 63.3077C36.4249 58.0395 31.4341 53.2597 31.4341 53.2597C31.4341 53.2597 37.9496 47.7996 55.9731 40.7364C73.9967 33.6731 86.6422 35.4856 86.6422 35.4856C86.6422 35.4856 88.6518 36.4537 92.8628 55.2344C97.0739 74.0168 100.097 102.319 100.097 102.319H100.099Z" fill="#DDEDEA" stroke="#BAB099" stroke-width="0.961187" stroke-miterlimit="10"/>
<path d="M49.9202 43.7698C49.9202 43.7698 46.3388 45.0868 40.5107 48.1972C34.6825 51.3075 32.167 53.3188 32.167 53.3188C32.167 53.3188 32.6519 53.7445 33.8225 55.072C34.9912 56.4013 35.6559 57.1514 35.6559 57.1514C35.6559 57.1514 41.587 50.6254 45.4858 46.8208C48.1147 44.2547 49.9202 43.7698 49.9202 43.7698Z" fill="#C9D1CF"/>
<path d="M69.2987 64.6111C69.2987 64.6111 69.7435 68.1052 70.5791 69.7345C71.0484 70.6469 69.1278 71.3813 67.3816 71.397C65.0719 71.4214 64.3776 70.612 65.3545 64.9931" fill="#D5DD23"/>
<path d="M69.2987 64.6111C69.2987 64.6111 69.7435 68.1052 70.5791 69.7345C71.0484 70.6469 69.1278 71.3813 67.3816 71.397C65.0719 71.4214 64.3776 70.612 65.3545 64.9931" stroke="black" stroke-width="0.181422" stroke-linecap="round" stroke-linejoin="round"/>
<path d="M60.3582 46.6658C62.9766 42.2158 66.059 40.1835 65.3403 44.3858C67.7215 40.5446 73.0786 39.6287 70.7359 43.7788C74.237 42.2489 78.947 44.2655 73.9561 46.0832C78.1096 46.4635 78.7045 49.7831 74.544 49.75C80.7367 51.0479 79.3604 54.3832 74.7777 53.757C79.151 54.856 79.6255 57.996 75.2609 57.4971C78.1462 57.8878 80.6216 58.5838 76.6652 60.412C79.3098 59.8468 81.3089 59.7369 79.6901 62.1687C82.8248 59.3828 83.9606 59.5293 83.6726 61.7657L81.5601 63.5817L80.0878 63.3235L75.7285 61.1255L72.5536 56.7347L72.3634 48.6213L68.7664 45.7343L63.6953 47.3915L60.3564 46.6623L60.3582 46.6658Z" fill="#39B34A"/>
<path d="M60.3582 46.6658C62.9766 42.2158 66.059 40.1835 65.3403 44.3858C67.7215 40.5446 73.0786 39.6287 70.7359 43.7788C74.237 42.2489 78.947 44.2655 73.9561 46.0832C78.1096 46.4635 78.7045 49.7831 74.544 49.75C80.7367 51.0479 79.3604 54.3832 74.7777 53.757C79.151 54.856 79.6255 57.996 75.2609 57.4971C78.1462 57.8878 80.6216 58.5838 76.6652 60.412C79.3098 59.8468 81.3089 59.7369 79.6901 62.1687C82.8248 59.3828 83.9605 59.5293 83.6726 61.7657L81.5601 63.5817L80.0878 63.3235L75.7285 61.1255L72.5536 56.7347L72.3634 48.6213L68.7664 45.7343L63.6953 47.3915L60.3564 46.6623L60.3582 46.6658Z" stroke="black" stroke-width="0.240733" stroke-miterlimit="10"/>
<path d="M64.1948 59.482C60.2802 58.301 60.3326 61.4392 63.7412 61.4915L64.1948 59.482Z" fill="#D5DD23"/>
<path d="M64.1948 59.482C60.2802 58.301 60.3326 61.4392 63.7412 61.4915" stroke="black" stroke-width="0.181422" stroke-linecap="round" stroke-linejoin="round"/>
<path d="M63.1982 58.3572C60.367 75.3533 79.3083 67.3515 83.753 64.4679C86.1028 62.9416 85.5254 61.2198 83.2994 61.696C75.3483 63.3951 75.2175 57.846 75.2401 49.9088C75.2663 40.4452 67.0918 41.4291 60.4665 45.7623C55.6169 48.9337 51.7059 57.5495 63.1982 58.3589V58.3572Z" fill="white"/>
<path d="M63.4029 58.3275C63.2075 59.5695 62.7714 60.7645 62.9197 61.8391C63.4605 65.7484 64.3449 66.9276 65.0095 67.0811C66.7348 67.4806 65.0776 60.2865 68.952 60.3563C69.655 60.3685 72.3379 62.0484 73.7841 61.4937C75.2285 60.9389 75.0645 60.5586 75.2023 59.662C75.3401 58.7636 76.3344 59.1369 76.2228 58.9904C76.0885 58.8125 76.0937 58.4461 76.0187 58.2106C75.4465 56.4156 75.4343 53.9943 75.4448 49.8792C75.4709 40.4156 67.2965 41.3994 60.6711 45.7326C55.8216 48.904 51.9105 57.5198 63.4029 58.3293V58.3275Z" fill="#D5DD23"/>
<path d="M74.4877 70.6605L74.2637 71.0403C74.3459 70.9178 74.4212 70.7918 74.4877 70.6605Z" fill="#D5DD23"/>
<path d="M77.0737 66.8374L77.2187 66.7099C77.2187 66.5404 77.2152 66.3832 77.2152 66.24L77.0737 66.8374Z" fill="#D5DD23"/>
<path d="M76.2001 65.7971L76.0776 66.3291C76.5554 65.7236 76.2526 65.9144 76.2001 65.7971Z" fill="#D5DD23"/>
<path d="M73.2895 68.2358C73.1722 68.4615 73.146 68.577 73.1915 68.6015C73.3157 68.3705 73.3665 68.2253 73.2895 68.2358Z" fill="#D5DD23"/>
<path d="M76.2225 65.6995C76.2119 65.71 76.2031 65.7223 76.1908 65.7329C76.1873 65.754 76.1908 65.7769 76.1979 65.798L76.2207 65.6995H76.2225Z" fill="#D5DD23"/>
<path d="M50.3735 52.1923C50.3894 52.1516 50.4018 52.102 50.4195 52.0666C50.3912 52.049 50.3806 52.1073 50.3735 52.1923Z" fill="#D5DD23"/>
<path d="M58.269 44.1067C58.3512 44.1364 58.423 44.1504 58.4615 44.1154C58.3985 44.1364 58.3302 44.1347 58.269 44.1067Z" fill="#D5DD23"/>
<path d="M55.6782 47.6915C55.6782 47.7074 55.6817 47.7215 55.6817 47.7374C55.6958 47.755 55.7134 47.7691 55.7346 47.7762L55.6782 47.6915Z" fill="#D5DD23"/>
<path d="M63.3189 58.3451C60.4877 75.3412 79.4288 67.3394 83.8737 64.4559C86.2234 62.9295 85.646 61.2077 83.4201 61.6839C75.4689 63.383 75.3381 57.834 75.3608 49.8968C75.387 40.4332 67.2125 41.417 60.5871 45.7502C55.7376 48.9216 51.8265 57.5374 63.3189 58.3468V58.3451Z" stroke="black" stroke-width="0.181422" stroke-miterlimit="10"/>
<path d="M69.922 51.231C69.8523 51.1752 69.7702 51.135 69.6829 51.1159C69.5957 51.0967 69.505 51.0984 69.4178 51.1211L59.4763 53.6435C59.3926 53.6645 59.3123 53.7046 59.246 53.7622C59.1798 53.818 59.1257 53.8895 59.0908 53.968C59.0559 54.0483 59.0385 54.1337 59.0402 54.221C59.0419 54.3082 59.0646 54.3937 59.1047 54.4704C60.1846 56.5794 62.4104 57.654 64.8665 57.3016C65.0462 57.2755 65.226 57.2423 65.4074 57.2005C67.6996 56.6806 70.051 54.7792 70.14 51.7002C70.1435 51.6113 70.1243 51.5223 70.0859 51.4403C70.0475 51.3583 69.9918 51.2868 69.922 51.231Z" fill="black"/>
<path d="M70.7239 48.2968C70.6646 47.5571 70.0941 47.0006 69.4487 47.053C68.8033 47.1053 68.3305 47.7473 68.3898 48.4852C68.4491 49.2248 69.0196 49.7813 69.665 49.7289C70.3105 49.6766 70.7832 49.0347 70.7239 48.2968Z" fill="black"/>
<path d="M59.1707 51.3722C59.1114 50.6326 58.5409 50.0761 57.8955 50.1284C57.25 50.1807 56.7773 50.8227 56.8366 51.5606C56.8959 52.3002 57.4664 52.8567 58.1118 52.8044C58.7572 52.752 59.23 52.1101 59.1707 51.3722Z" fill="black"/>
<path d="M72.521 58.0694C68.4844 57.4169 68.9501 60.5203 72.3361 60.1208L72.521 58.0694Z" fill="#D5DD23"/>
<path d="M72.521 58.0694C68.4844 57.4169 68.9501 60.5203 72.3361 60.1208" stroke="black" stroke-width="0.181422" stroke-linecap="round" stroke-linejoin="round"/>
<path d="M66.3213 55.749C66.0125 55.8153 65.8067 56.1467 65.7666 56.5724C65.5555 56.2025 65.2293 55.9845 64.9223 56.0508C64.5978 56.1205 64.385 56.4851 64.3606 56.9422C64.1512 56.5357 63.8076 56.2898 63.4831 56.3613C63.1464 56.4328 62.9284 56.8218 62.9214 57.2998C64.3797 57.5859 65.9794 57.2562 67.2406 56.4154C67.0365 55.9548 66.6667 55.6722 66.3213 55.749Z" fill="white"/>
<path d="M61.4766 58.0378C61.4766 58.0378 65.6825 58.8769 68.8416 56.8429" stroke="black" stroke-width="0.301788" stroke-linecap="round" stroke-linejoin="round"/>
<path d="M69.9727 47.7267C69.9465 47.5415 69.7631 47.414 69.564 47.442C69.3649 47.4699 69.2251 47.6446 69.2531 47.8297C69.2793 48.0149 69.4627 48.1424 69.6618 48.1145C69.8609 48.0865 70.0007 47.9118 69.9727 47.7267Z" fill="white"/>
<path d="M58.4932 50.7953C58.467 50.6101 58.2836 50.4826 58.0845 50.5106C57.8854 50.5385 57.7456 50.7132 57.7736 50.8983C57.7998 51.0835 57.9832 51.211 58.1823 51.1831C58.3815 51.1551 58.5212 50.9804 58.4932 50.7953Z" fill="white"/>
<path d="M69.922 51.231C69.8523 51.1752 69.7702 51.135 69.6829 51.1159C69.5957 51.0967 69.505 51.0984 69.4178 51.1211L59.4763 53.6435C59.3926 53.6645 59.3123 53.7046 59.246 53.7622C59.1798 53.818 59.1257 53.8895 59.0908 53.968C59.0559 54.0483 59.0385 54.1337 59.0402 54.221C59.0419 54.3082 59.0646 54.3937 59.1047 54.4704C60.1846 56.5794 62.4104 57.654 64.8665 57.3016C65.0462 57.2755 65.226 57.2423 65.4074 57.2005C67.6996 56.6806 70.051 54.7792 70.14 51.7002C70.1435 51.6113 70.1243 51.5223 70.0859 51.4403C70.0475 51.3583 69.9918 51.2868 69.922 51.231Z" stroke="black" stroke-width="0.181422" stroke-miterlimit="10"/>
<path d="M72.578 64.5027C72.578 64.5027 73.3735 68.4853 72.7472 69.1377C71.7459 70.1792 74.558 70.9781 76.2361 70.5036C78.4603 69.8756 78.9871 68.8778 76.4699 63.7614" fill="white"/>
<path d="M72.578 64.5027C72.578 64.5027 73.3735 68.4853 72.7472 69.1377C71.7459 70.1792 74.558 70.9781 76.2361 70.5036C78.4603 69.8756 78.9871 68.8778 76.4699 63.7614" stroke="black" stroke-width="0.181422" stroke-linecap="round" stroke-linejoin="round"/>
<path d="M73.5799 46.3901C73.6758 46.3326 73.7438 46.2401 73.7718 46.132C73.7997 46.0238 73.7822 45.9087 73.7247 45.8127C71.8389 42.6657 67.9192 43.7037 67.4796 43.8328C67.4255 43.8485 67.3766 43.8746 67.333 43.9095C67.2894 43.9444 67.2545 43.988 67.2266 44.0351C67.2004 44.084 67.183 44.1381 67.1778 44.1921C67.1725 44.248 67.1778 44.3038 67.1917 44.3561C67.2074 44.4102 67.2336 44.459 67.2685 44.5026C67.3034 44.5463 67.347 44.5811 67.3941 44.6091C67.4429 44.6352 67.497 44.6527 67.5511 44.6579C67.6069 44.6631 67.6627 44.6579 67.7151 44.6439C68.0919 44.534 71.4394 43.6409 73.0025 46.2488C73.0461 46.3204 73.1071 46.3762 73.1821 46.4128C73.2572 46.4477 73.3409 46.4617 73.4229 46.4494C73.4787 46.4407 73.531 46.4215 73.5781 46.3919L73.5799 46.3901Z" fill="#FFFF6E"/>
<path d="M73.833 46.9799C73.7336 46.9938 73.6411 47.0374 73.5661 47.1037C73.4911 47.17 73.4387 47.2572 73.4143 47.3549C73.3899 47.4526 73.3934 47.5538 73.4265 47.648C73.4597 47.7422 73.5207 47.8242 73.5992 47.8852C73.6795 47.9445 73.7754 47.9794 73.8749 47.9864C73.9743 47.9916 74.0737 47.9672 74.1592 47.9166C74.2447 47.866 74.3145 47.791 74.3581 47.7003C74.4017 47.6096 74.4174 47.5084 74.4034 47.4107C74.3842 47.2782 74.3145 47.1578 74.2063 47.0775C74.0999 46.9973 73.9638 46.9624 73.8312 46.9816L73.833 46.9799Z" fill="#FFFF6E"/>
<path opacity="0.13" d="M94.0662 63.5675L93.1119 58.8994C93.1119 58.8994 79.378 57.9766 64.5886 59.2169C49.9074 60.4467 42.1812 68.5113 42.1812 68.5113C42.1812 68.5113 42.9558 70.0848 43.6117 72.0525C44.2676 74.022 44.7386 75.421 44.7386 75.421C44.7386 75.421 59.1948 68.4939 71.6885 65.4812C84.1839 62.4686 94.0662 63.5658 94.0662 63.5658V63.5675Z" fill="#424242"/>
<path d="M155.628 167.079H164.954V182.859C164.954 184.443 163.668 185.731 162.083 185.731H158.5C156.916 185.731 155.628 184.445 155.628 182.859V167.079Z" fill="#FF8D15"/>
<path d="M157.492 167.079H163.087V178.287C163.087 179.308 162.258 180.134 161.239 180.134H159.34C158.319 180.134 157.492 179.306 157.492 178.287V167.079Z" fill="#FFD017"/>
<path d="M160.872 163.343H159.7C158.992 163.343 158.417 163.917 158.417 164.625V171.393C158.417 172.101 158.992 172.675 159.7 172.675H160.872C161.58 172.675 162.154 172.101 162.154 171.393V164.625C162.154 163.917 161.58 163.343 160.872 163.343Z" fill="white"/>
<path d="M164.528 161.017H156.052C155.045 161.017 154.229 161.833 154.229 162.84V166.655C154.229 167.662 155.045 168.478 156.052 168.478H164.528C165.535 168.478 166.351 167.662 166.351 166.655V162.84C166.351 161.833 165.535 161.017 164.528 161.017Z" fill="#2F3C59" stroke="#27273D" stroke-width="2.77541" stroke-miterlimit="10"/>
<path d="M167.273 161.485H153.297C150.977 161.485 149.094 159.603 149.094 157.283V95.8223C149.094 92.4329 151.847 89.6802 155.237 89.6802H162.263C167.348 89.6802 171.476 93.8075 171.476 98.8926V157.283C171.476 159.603 169.593 161.485 167.273 161.485Z" fill="url(#paint3_linear_110_794)" stroke="#A30C22" stroke-width="1.86481" stroke-linecap="round" stroke-linejoin="round"/>
<path d="M167.277 161.485H153.301C150.981 161.485 149.098 159.603 149.098 157.283V95.8223C149.098 92.4329 151.851 89.6802 155.24 89.6802H162.267C167.352 89.6802 171.479 93.8075 171.479 98.8926V157.283C171.479 159.603 169.597 161.485 167.277 161.485Z" stroke="#A30C22" stroke-width="1.86481" stroke-linecap="round" stroke-linejoin="round"/>
<path opacity="0.48" d="M152.868 96.4345C153.831 96.4345 153.753 94.5819 157.02 93.5282C160.289 92.4746 160.117 94.2469 161.585 93.3137C161.779 93.1915 162.332 92.7659 162.247 92.267C162.069 91.2256 158.245 90.3411 154.95 91.7524C154.203 92.0716 153.038 92.6386 151.792 94.5993C151.021 95.8117 151.905 96.4345 152.868 96.4345Z" fill="#FF8DAA"/>
<path d="M156.503 139.228L155.102 72.4245L152.456 72.4816L148.279 137.755L156.502 139.226L156.503 139.228Z" fill="#4FB9C5"/>
<path opacity="0.08" d="M155.141 74.3944L156.5 139.227L154.755 139.05L154.19 74.4719L155.139 74.3931L155.141 74.3944Z" fill="black"/>
<path d="M153.248 78.6025L165.656 89.1288L162.144 73.3026L173.94 64.2649L160.278 64.2108L157.178 46.6584L149.797 60.411L133.429 60.7691L145.452 69.915L136.483 83.6006L153.249 78.5987L153.248 78.6025Z" fill="url(#paint4_linear_110_794)"/>
<path d="M138.225 80.9447L145.449 69.919L133.426 60.7732L149.794 60.4151L156.827 47.3083L151.102 62.1141L138.814 62.2264L149.126 69.1773L138.223 80.9451L138.225 80.9447Z" fill="url(#paint5_linear_110_794)"/>
<path d="M159.402 63.1342C158.509 60.8146 159.153 58.431 160.838 57.8115C162.523 57.192 164.614 58.5704 165.508 60.8897C166.4 63.2093 165.756 65.593 164.071 66.2125C162.386 66.832 160.296 65.4535 159.403 63.1338L159.402 63.1342Z" fill="#F0EFE8"/>
<path d="M160.214 59.7581C161.909 61.2738 164.105 61.5458 165.314 60.4461C164.333 58.3788 162.382 57.2165 160.805 57.8228C160.247 58.0487 159.787 58.461 159.5 58.9938C159.716 59.2688 159.956 59.5237 160.214 59.7581Z" fill="black"/>
<path d="M147.108 66.7603C146.215 64.4407 146.859 62.0571 148.544 61.4376C150.229 60.8181 152.32 62.1965 153.212 64.5162C154.104 66.8358 153.461 69.2195 151.775 69.839C150.09 70.4585 148 69.08 147.108 66.7603Z" fill="#F0EFE8"/>
<path d="M149.801 64.2803C150.963 65.3218 152.359 65.7716 153.512 65.5979C153.444 65.2125 153.336 64.8347 153.19 64.4712C152.28 62.1577 150.184 60.8075 148.508 61.4516C148.372 61.5072 148.241 61.5742 148.117 61.654C148.419 62.6705 149.004 63.5839 149.801 64.282V64.2803Z" fill="black"/>
<path d="M159.549 65.3099C158.664 69.1479 155.072 69.2775 154.504 64.6108L159.549 65.3099Z" fill="#720719"/>
<path d="M161.732 62.2518C160.782 62.4418 159.925 62.2153 159.819 61.7474C159.714 61.2795 160.399 60.7471 161.349 60.557C162.299 60.367 163.156 60.5935 163.262 61.0614C163.368 61.5293 162.682 62.0618 161.732 62.2518Z" fill="white"/>
<path d="M149.443 65.4198C148.493 65.6098 147.636 65.3833 147.53 64.9154C147.424 64.4475 148.109 63.915 149.059 63.725C150.009 63.535 150.867 63.7615 150.972 64.2294C151.078 64.6973 150.393 65.2297 149.443 65.4198Z" fill="white"/>
<path d="M149.1 116.723V155.358C149.1 158.741 151.843 161.483 155.225 161.483H165.355C168.738 161.483 171.48 158.741 171.48 155.358V116.723H149.099H149.1Z" fill="url(#paint6_linear_110_794)" stroke="#A30C22" stroke-width="1.86481" stroke-linecap="round" stroke-linejoin="round"/>
<path d="M149.095 116.723V155.358C149.095 158.741 151.838 161.483 155.22 161.483H165.35C168.733 161.483 171.475 158.741 171.475 155.358V116.723H149.094H149.095Z" stroke="#A30C22" stroke-width="1.86481" stroke-linecap="round" stroke-linejoin="round"/>
<path opacity="0.48" d="M155.521 119.521C156.027 118.059 168.258 117.094 169.124 119.076C170.203 121.541 170.361 136.184 169.529 138.092C168.601 140.217 168.09 137.874 167.945 136.184C167.8 134.493 167.837 132.58 167.837 127.781C167.837 122.982 167.242 122.277 163.893 120.721C160.544 119.165 155.103 120.73 155.521 119.519V119.521Z" fill="#FF8DAA"/>
<path opacity="0.48" d="M152.399 119.786C150.52 119.451 151.572 123.608 153.219 121.933C154.039 121.099 154.278 120.123 152.399 119.786Z" fill="#FF8DAA"/>
<path d="M102.531 65.4324C90.7797 64.8114 79.0292 64.1886 67.2786 63.5676C47.8316 63.5676 32.0688 79.3321 32.0688 98.7774V137.631C32.0688 146.169 38.9907 153.091 47.528 153.091H121.986C130.524 153.091 137.446 146.169 137.446 137.631V98.7774C137.341 96.2881 136.586 84.63 126.921 75.2502C117.001 65.6226 104.933 65.422 102.531 65.4324Z" fill="#FF3D56" stroke="white" stroke-width="2.60445" stroke-miterlimit="10"/>
<path d="M85.1004 66.1599C65.8226 65.6157 66.7978 64.7452 62.7768 65.6104C59.5967 66.296 48.3468 68.8952 40.0101 79.3479C33.2853 87.7805 32.0589 96.8063 31.7676 100.642V139.496C31.7676 148.034 38.6878 154.955 47.2269 154.955H122.28C130.817 154.955 137.739 148.034 137.739 139.496V100.642C136.884 95.6026 133.938 82.6379 122.863 74.4391C117.941 70.7967 112.94 69.2214 109.765 68.248C103.013 66.1791 99.274 66.5594 85.0987 66.1582L85.1004 66.1599Z" fill="url(#paint7_linear_110_794)" stroke="#A30C22" stroke-width="1.86481" stroke-linecap="round" stroke-linejoin="round"/>
<path d="M61.8411 86.849H102.942C116.275 86.849 127.099 97.6733 127.099 111.006V137.324C127.099 143.177 122.347 147.931 116.493 147.931H48.2903C42.4377 147.931 37.6841 143.179 37.6841 137.324V111.006C37.6841 97.6733 48.5083 86.849 61.8411 86.849Z" fill="#ABE247"/>
<path d="M39.0215 116.689C39.0215 116.689 35.7873 140.927 41.2614 145.265C46.7355 149.603 64.4642 147.657 74.5296 147.931C84.5951 148.204 117.834 149.603 123.458 145.933C129.082 142.263 126.584 122.952 126.584 122.952C126.584 122.952 124.517 136.824 119.736 139.071C113.074 142.2 101.384 143.313 87.1664 142.655C62.7425 141.527 51.0198 143.385 45.5771 139.071C40.1345 134.757 39.0198 116.689 39.0198 116.689H39.0215Z" fill="#80D659"/>
<path d="M61.8411 86.849H102.942C116.275 86.849 127.099 97.6733 127.099 111.006V137.324C127.099 143.177 122.347 147.931 116.493 147.931H48.2903C42.4377 147.931 37.6841 143.179 37.6841 137.324V111.006C37.6841 97.6733 48.5083 86.849 61.8411 86.849Z" stroke="#3D9C35" stroke-width="2.63062" stroke-miterlimit="10"/>
<path d="M37.3823 93.4063C37.9056 92.7278 38.4935 91.9986 39.1511 91.2397" stroke="#B81515" stroke-width="0.866988" stroke-miterlimit="10" stroke-linecap="round"/>
<path d="M43.1724 87.1352C45.5274 85.0157 48.3918 82.8962 51.8231 81.0942C59.7987 76.9075 68.8017 76.8779 86.4817 76.9895C110.384 77.1413 116.019 79.8155 119.619 82.1583C122.533 84.0528 124.854 86.2089 126.684 88.283" stroke="#B81515" stroke-width="0.866988" stroke-miterlimit="10" stroke-linecap="round"/>
<path d="M128.503 90.5088C129.112 91.3165 129.646 92.0875 130.108 92.7992" stroke="#B81515" stroke-width="0.866988" stroke-miterlimit="10" stroke-linecap="round"/>
<path d="M49.147 100.335C49.9948 100.239 50.9229 100.138 51.9277 100.035" stroke="#358F0F" stroke-width="0.866988" stroke-miterlimit="10" stroke-linecap="round"/>
<path d="M57.2974 99.5484C58.979 99.4158 60.7845 99.2902 62.6982 99.1821C69.4195 98.8035 74.2725 98.814 81.0322 98.8279C92.1827 98.8524 100.24 99.2501 102.377 99.36C104.573 99.4734 106.618 99.5955 108.481 99.7211" stroke="#358F0F" stroke-width="0.866988" stroke-miterlimit="10" stroke-linecap="round"/>
<path d="M111.169 99.9095C112.17 99.9828 113.102 100.056 113.959 100.124" stroke="#358F0F" stroke-width="0.866988" stroke-miterlimit="10" stroke-linecap="round"/>
<path d="M115.771 105.033H47.146C45.7529 105.033 44.6235 106.162 44.6235 107.556V110.903C44.6235 112.296 45.7529 113.426 47.146 113.426H115.771C117.164 113.426 118.294 112.296 118.294 110.903V107.556C118.294 106.162 117.164 105.033 115.771 105.033Z" fill="#38851A" stroke="white" stroke-width="2.82774" stroke-miterlimit="10"/>
<path d="M141.912 101.979L141.903 101.944L140.764 97.3942C140.516 96.4051 139.619 95.6707 138.552 95.6707C137.484 95.6707 136.588 96.4051 136.34 97.3959L135.206 101.931L135.194 101.982C135.124 102.251 135.089 102.533 135.089 102.825C135.089 104.737 136.64 106.289 138.552 106.289C140.464 106.289 142.016 104.737 142.016 102.825C142.016 102.533 141.98 102.249 141.912 101.98V101.979ZM138.552 104.878C137.4 104.878 136.465 103.945 136.465 102.791C136.465 101.638 137.399 100.705 138.552 100.705C139.705 100.705 140.638 101.638 140.638 102.791C140.638 103.945 139.705 104.878 138.552 104.878Z" fill="#DDEDEA" stroke="#7DB09F" stroke-width="0.479722" stroke-miterlimit="10"/>
<path opacity="0.17" d="M37.5979 71.9479C37.5804 72.0264 37.5682 72.1049 37.563 72.1852L56.778 121.856L62.2399 121.869L69.324 119.446L73.7026 115.95L57.2508 64.7451C57.2508 64.7451 49.1129 57.8267 45.9485 55.381L46.0113 55.3513C41.5072 49.9627 38.3236 50.7826 39.5988 58.1721L37.5979 71.9497V71.9479Z" fill="#7F3116"/>
<path d="M36.4131 72.8376L38.6443 57.4726C38.6443 57.4726 43.1031 55.2275 43.5723 55.1821C44.0416 55.1385 56.1009 65.3941 56.1009 65.3941L56.6958 69.2144L52.4132 78.5646L41.8035 79.9515L36.4149 72.8376H36.4131Z" fill="url(#paint8_linear_110_794)"/>
<path d="M36.4146 72.8377C36.5262 70.7757 40.5419 71.0287 42.3841 74.8665C41.1106 64.5341 46.9092 64.4644 51.9489 70.0972C52.5524 65.5791 53.9707 64.1434 56.1024 65.4011L72.5541 116.607L68.1755 120.103L61.0915 122.526L55.6279 122.509L36.4146 72.8377Z" fill="#9B70E3"/>
<path opacity="0.43" d="M51.9473 70.0989C52.5508 65.5808 53.9691 64.1451 56.1008 65.4028L72.5526 116.607L68.1741 120.103C68.1741 120.103 62.0546 101.223 51.9473 70.0989Z" fill="white"/>
<path d="M38.4841 59.0392C37.1095 51.4527 40.3123 50.5665 44.8653 56.0091L38.4841 59.0392Z" fill="#9B70E3"/>
<path opacity="0.1" d="M42.3823 74.8715C42.3579 74.6726 61.1699 122.498 61.1699 122.498L61.0897 122.526L55.6261 122.509L36.4111 72.8375C36.5192 70.7808 40.5349 71.0337 42.3806 74.8715H42.3823Z" fill="black"/>
<path d="M51.5508 76.2655C52.3219 78.4199 54.4885 79.6166 56.3899 78.9362C58.2914 78.2559 59.2072 75.9585 58.4379 73.8041C57.6686 71.6497 55.5473 70.5943 53.6477 71.2677C51.748 71.941 50.7798 74.1129 51.5491 76.2672L51.5508 76.2655Z" fill="#F0EFE8"/>
<path d="M55.4323 71.1089C56.1056 73.2197 55.1915 75.4299 53.3354 76.0945C52.758 76.2986 52.1353 76.3388 51.5369 76.2114C50.7955 74.0727 51.7602 71.9323 53.6494 71.2572C54.2199 71.0514 54.8357 70.999 55.434 71.1072L55.4323 71.1089Z" fill="black"/>
<path d="M46.6789 78.151C45.8747 76.0088 43.6889 74.847 41.7979 75.557C39.907 76.2688 39.0278 78.5801 39.8337 80.7223C40.6396 82.8645 42.7155 83.7385 44.6065 83.0267C46.4975 82.315 47.4848 80.2932 46.6789 78.151Z" fill="#F0EFE8"/>
<path d="M41.7979 75.5572C42.1468 75.4264 42.5149 75.3566 42.8864 75.3496L42.9161 75.4246C43.6871 77.579 42.7696 79.8782 40.8664 80.5585C40.5367 80.6754 40.1913 80.7382 39.8406 80.7469L39.8302 80.7207C39.026 78.5786 39.9087 76.2585 41.7962 75.5555L41.7979 75.5572Z" fill="black"/>
<path d="M51.7703 78.3082C51.1877 81.6314 48.2378 80.6458 47.3813 78.767C49.3263 80.4609 50.6556 80.7818 51.7703 78.3082Z" fill="#4A2582"/>
<path d="M54.4293 75.627C54.7607 76.0265 55.6766 75.8137 56.479 75.1508C57.2797 74.4879 57.6635 73.6279 57.332 73.2284C57.0006 72.8272 56.1894 73.1691 55.387 73.832C54.5845 74.4949 54.0996 75.2276 54.4293 75.627Z" fill="white"/>
<path d="M42.2044 79.6619C42.5358 80.0614 43.4517 79.8486 44.2524 79.1857C45.0513 78.5228 45.4368 77.6611 45.1054 77.2616C44.774 76.8621 43.9628 77.2023 43.1621 77.8652C42.3614 78.5281 41.8677 79.259 42.2044 79.6602V79.6619Z" fill="white"/>
<path d="M105.822 93.0427L87.5961 89.5957L83.8706 109.294L102.096 112.741L105.822 93.0427Z" fill="#EDECA9"/>
<path d="M105.822 93.0421L92.4945 90.5216L88.769 110.22L102.096 112.74L105.822 93.0421Z" fill="#FCFCFF"/>
<path d="M103.583 101.656L85.2817 98.1945L81.5562 117.892L99.8572 121.354L103.583 101.656Z" fill="#008CAE"/>
<path d="M105.736 102.065L90.1763 99.1218L86.4507 118.82L102.011 121.763L105.736 102.065Z" fill="#00B7EE"/>
<path d="M44.6187 110.068C44.774 110.905 44.3291 113.426 48.2995 113.426C48.2995 113.426 113.899 113.426 114.616 113.426C115.333 113.426 118.292 113.426 118.292 109.75" stroke="white" stroke-width="2.82774" stroke-miterlimit="10"/>
<path d="M113.377 114.824H51.4025C48.9457 114.824 46.9541 116.816 46.9541 119.273V131.702C46.9541 134.159 48.9457 136.15 51.4025 136.15H113.377C115.834 136.15 117.826 134.159 117.826 131.702V119.273C117.826 116.816 115.834 114.824 113.377 114.824Z" fill="#ABE247"/>
<path d="M95.4339 119.179C89.2359 120.203 85.0406 126.059 86.0645 132.257C87.0885 138.455 92.9446 142.65 99.1426 141.626C105.341 140.602 109.536 134.746 108.512 128.548C107.488 122.35 101.632 118.155 95.4339 119.179ZM88.3707 128.55C88.1282 127.086 89.1191 125.705 90.5809 125.464C92.0445 125.222 93.4261 126.212 93.6668 127.674C93.9093 129.138 92.9185 130.519 91.4566 130.76C89.993 131.003 88.6114 130.012 88.3707 128.55ZM98.7327 137.249C95.1915 137.834 91.8195 135.953 90.3524 132.866L105.257 130.403C104.861 133.797 102.274 136.665 98.7327 137.249ZM103.79 128.724C102.326 128.967 100.945 127.976 100.704 126.514C100.462 125.051 101.452 123.669 102.914 123.428C104.378 123.186 105.759 124.177 106 125.638C106.243 127.102 105.252 128.484 103.79 128.724Z" fill="#39B1C0"/>
<path d="M121.058 117.722L121.049 117.687L119.91 113.138C119.663 112.148 118.766 111.414 117.698 111.414C116.631 111.414 115.734 112.148 115.486 113.139L114.352 117.675L114.34 117.725C114.27 117.994 114.236 118.277 114.236 118.568C114.236 120.48 115.786 122.032 117.698 122.032C119.61 122.032 121.163 120.48 121.163 118.568C121.163 118.277 121.126 117.992 121.058 117.724V117.722ZM117.698 120.621C116.547 120.621 115.612 119.688 115.612 118.535C115.612 117.382 116.545 116.449 117.698 116.449C118.851 116.449 119.785 117.382 119.785 118.535C119.785 119.688 118.851 120.621 117.698 120.621Z" fill="#DDEDEA" stroke="#7DB09F" stroke-width="0.479722" stroke-miterlimit="10"/>
</g>
</g>
<defs>
<linearGradient id="paint0_linear_110_794" x1="8.10209" y1="106.141" x2="21.2099" y2="131.461" gradientUnits="userSpaceOnUse">
<stop stop-color="#FF3754"/>
<stop offset="1" stop-color="#9E0F19"/>
</linearGradient>
<linearGradient id="paint1_linear_110_794" x1="15.5614" y1="128.597" x2="32.8593" y2="174.968" gradientUnits="userSpaceOnUse">
<stop stop-color="#FF3754"/>
<stop offset="1" stop-color="#9E0F19"/>
</linearGradient>
<linearGradient id="paint2_linear_110_794" x1="31.9519" y1="97.0105" x2="194.707" y2="97.0105" gradientUnits="userSpaceOnUse">
<stop stop-color="#00B7EE"/>
<stop offset="0.24" stop-color="#01B2E7"/>
<stop offset="0.57" stop-color="#07A6D6"/>
<stop offset="0.94" stop-color="#0F91B9"/>
<stop offset="1" stop-color="#118EB5"/>
</linearGradient>
<linearGradient id="paint3_linear_110_794" x1="150.544" y1="120.197" x2="169.759" y2="133.125" gradientUnits="userSpaceOnUse">
<stop stop-color="#FF3754"/>
<stop offset="0.86" stop-color="#9E0F19"/>
</linearGradient>
<linearGradient id="paint4_linear_110_794" x1="133.234" y1="66.8203" x2="173.808" y2="67.0144" gradientUnits="userSpaceOnUse">
<stop stop-color="#FFF7E1"/>
<stop offset="0.05" stop-color="#FFF0BF"/>
<stop offset="0.13" stop-color="#FFE793"/>
<stop offset="0.22" stop-color="#FFDF6E"/>
<stop offset="0.31" stop-color="#FFD84E"/>
<stop offset="0.4" stop-color="#FFD333"/>
<stop offset="0.51" stop-color="#FFCE1F"/>
<stop offset="0.63" stop-color="#FFCB10"/>
<stop offset="0.77" stop-color="#FFCA08"/>
<stop offset="1" stop-color="#FFC905"/>
</linearGradient>
<linearGradient id="paint5_linear_110_794" x1="133.249" y1="63.6257" x2="156.62" y2="63.7388" gradientUnits="userSpaceOnUse">
<stop stop-color="#FFF7E1"/>
<stop offset="0.08" stop-color="#FFF6BA"/>
<stop offset="0.19" stop-color="#FFF58F"/>
<stop offset="0.3" stop-color="#FFF36D"/>
<stop offset="0.41" stop-color="#FFF34F"/>
<stop offset="0.53" stop-color="#FFF238"/>
<stop offset="0.66" stop-color="#FFF128"/>
<stop offset="0.81" stop-color="#FFF11E"/>
<stop offset="1" stop-color="#FFF11B"/>
</linearGradient>
<linearGradient id="paint6_linear_110_794" x1="155.656" y1="130.382" x2="176.417" y2="160.058" gradientUnits="userSpaceOnUse">
<stop stop-color="#FF3754"/>
<stop offset="1" stop-color="#9E0F19"/>
</linearGradient>
<linearGradient id="paint7_linear_110_794" x1="47.5391" y1="84.0073" x2="147.778" y2="172.737" gradientUnits="userSpaceOnUse">
<stop offset="0.2" stop-color="#FF3754"/>
<stop offset="0.94" stop-color="#9E0F19"/>
</linearGradient>
<linearGradient id="paint8_linear_110_794" x1="52.9021" y1="61.6754" x2="37.4879" y2="74.9349" gradientUnits="userSpaceOnUse">
<stop offset="0.14" stop-color="#FAD398"/>
<stop offset="0.18" stop-color="#FACF8F"/>
<stop offset="0.27" stop-color="#F9C880"/>
<stop offset="0.4" stop-color="#F9C474"/>
<stop offset="0.56" stop-color="#F9C16D"/>
<stop offset="1" stop-color="#F9C06B"/>
</linearGradient>
<clipPath id="clip0_110_794">
<rect width="179" height="192" fill="white"/>
</clipPath>
</defs>
</svg>
