<svg width="500" height="149" viewBox="0 0 500 149" fill="none" xmlns="http://www.w3.org/2000/svg">
<path d="M481.481 148.148H18.5185C8.14815 148.148 0 140 0 129.63V18.5185C0 8.14815 8.14815 0 18.5185 0H481.481C491.852 0 500 8.14815 500 18.5185V129.63C500 139.63 491.852 148.148 481.481 148.148Z" fill="black"/>
<path d="M481.481 2.96296C490 2.96296 497.037 10 497.037 18.5185V129.63C497.037 138.148 490 145.185 481.481 145.185H18.5185C10 145.185 2.96296 138.148 2.96296 129.63V18.5185C2.96296 10 10 2.96296 18.5185 2.96296H481.481ZM481.481 0H18.5185C8.14815 0 0 8.14815 0 18.5185V129.63C0 140 8.14815 148.148 18.5185 148.148H481.481C491.852 148.148 500 140 500 129.63V18.5185C500 8.51852 491.852 0 481.481 0Z" fill="#A6A6A6"/>
<path d="M175.556 37.7774C175.556 40.7404 174.815 43.333 172.964 45.1848C170.741 47.407 168.149 48.5181 164.815 48.5181C161.482 48.5181 158.89 47.407 156.667 45.1848C154.445 42.9626 153.334 40.37 153.334 37.0367C153.334 33.7033 154.445 31.1107 156.667 28.8885C158.89 26.6663 161.482 25.5552 164.815 25.5552C166.297 25.5552 167.778 25.9256 169.26 26.6663C170.741 27.407 171.852 28.1478 172.593 29.2589L170.741 31.1107C169.26 29.2589 167.408 28.5181 164.815 28.5181C162.593 28.5181 160.371 29.2589 158.89 31.1107C157.038 32.5922 156.297 34.8144 156.297 37.407C156.297 39.9996 157.038 42.2218 158.89 43.7033C160.741 45.1848 162.593 46.2959 164.815 46.2959C167.408 46.2959 169.26 45.5552 171.112 43.7033C172.223 42.5922 172.964 41.1107 172.964 39.2589H164.815V36.6663H175.556C175.556 36.6663 175.556 37.407 175.556 37.7774Z" fill="white" stroke="white" stroke-width="0.2" stroke-miterlimit="10"/>
<path d="M192.592 28.5184H182.592V35.5554H191.851V38.148H182.592V45.185H192.592V48.148H179.629V25.9258H192.592V28.5184Z" fill="white" stroke="white" stroke-width="0.2" stroke-miterlimit="10"/>
<path d="M204.817 48.148H201.854V28.5184H195.558V25.9258H211.113V28.5184H204.817V48.148Z" fill="white" stroke="white" stroke-width="0.2" stroke-miterlimit="10"/>
<path d="M221.853 48.148V25.9258H224.815V48.148H221.853Z" fill="white" stroke="white" stroke-width="0.2" stroke-miterlimit="10"/>
<path d="M237.409 48.148H234.446V28.5184H228.149V25.9258H243.335V28.5184H237.038V48.148H237.409Z" fill="white" stroke="white" stroke-width="0.2" stroke-miterlimit="10"/>
<path d="M272.594 45.1848C270.372 47.407 267.78 48.5181 264.446 48.5181C261.113 48.5181 258.52 47.407 256.298 45.1848C254.076 42.9626 252.965 40.37 252.965 37.0367C252.965 33.7033 254.076 31.1107 256.298 28.8885C258.52 26.6663 261.113 25.5552 264.446 25.5552C267.78 25.5552 270.372 26.6663 272.594 28.8885C274.817 31.1107 275.928 33.7033 275.928 37.0367C275.928 40.37 274.817 42.9626 272.594 45.1848ZM258.52 43.333C260.002 44.8144 262.224 45.9255 264.446 45.9255C266.669 45.9255 268.891 45.1848 270.372 43.333C271.854 41.8515 272.965 39.6293 272.965 37.0367C272.965 34.4441 272.224 32.2218 270.372 30.7404C268.891 29.2589 266.669 28.1478 264.446 28.1478C262.224 28.1478 260.002 28.8885 258.52 30.7404C257.039 32.2218 255.928 34.4441 255.928 37.0367C255.928 39.6293 256.669 41.8515 258.52 43.333Z" fill="white" stroke="white" stroke-width="0.2" stroke-miterlimit="10"/>
<path d="M280.001 48.148V25.9258H283.334L294.075 43.3332V38.8887V25.9258H297.038V48.148H294.075L282.594 29.9999V34.4443V48.148H280.001Z" fill="white" stroke="white" stroke-width="0.2" stroke-miterlimit="10"/>
<path d="M252.221 80.7409C243.332 80.7409 236.295 87.4076 236.295 96.6668C236.295 105.556 243.332 112.593 252.221 112.593C261.11 112.593 268.147 105.926 268.147 96.6668C268.147 87.0372 261.11 80.7409 252.221 80.7409ZM252.221 105.926C247.406 105.926 243.332 101.852 243.332 96.2965C243.332 90.7409 247.406 86.6668 252.221 86.6668C257.036 86.6668 261.11 90.3705 261.11 96.2965C261.11 101.852 257.036 105.926 252.221 105.926ZM217.776 80.7409C208.887 80.7409 201.85 87.4076 201.85 96.6668C201.85 105.556 208.887 112.593 217.776 112.593C226.665 112.593 233.702 105.926 233.702 96.6668C233.702 87.0372 226.665 80.7409 217.776 80.7409ZM217.776 105.926C212.961 105.926 208.887 101.852 208.887 96.2965C208.887 90.7409 212.961 86.6668 217.776 86.6668C222.591 86.6668 226.665 90.3705 226.665 96.2965C226.665 101.852 222.591 105.926 217.776 105.926ZM176.665 85.5557V92.2224H192.591C192.221 95.9261 190.739 98.8891 188.887 100.741C186.665 102.963 182.961 105.556 176.665 105.556C166.665 105.556 159.258 97.7779 159.258 87.7779C159.258 77.7779 167.036 70.0002 176.665 70.0002C181.85 70.0002 185.924 72.2224 188.887 74.815L193.702 70.0002C189.628 66.2965 184.443 63.3335 177.036 63.3335C163.702 63.3335 152.221 74.4446 152.221 87.7779C152.221 101.111 163.702 112.222 177.036 112.222C184.443 112.222 189.628 110 194.073 105.185C198.517 100.741 199.998 94.4446 199.998 89.6298C199.998 88.1483 199.998 86.6668 199.628 85.5557H176.665ZM344.813 90.7409C343.332 87.0372 339.628 80.7409 331.48 80.7409C323.332 80.7409 316.665 87.0372 316.665 96.6668C316.665 105.556 323.332 112.593 332.221 112.593C339.258 112.593 343.702 108.148 345.184 105.556L339.998 101.852C338.147 104.445 335.924 106.296 332.221 106.296C328.517 106.296 326.295 104.815 324.443 101.482L345.554 92.5928L344.813 90.7409ZM323.332 95.9261C323.332 90.0002 328.147 86.6668 331.48 86.6668C334.073 86.6668 336.665 88.1483 337.406 90.0002L323.332 95.9261ZM305.924 111.111H312.961V64.815H305.924V111.111ZM294.813 84.0742C292.961 82.2224 289.998 80.3705 286.295 80.3705C278.517 80.3705 271.11 87.4076 271.11 96.2965C271.11 105.185 278.147 111.852 286.295 111.852C289.998 111.852 292.961 110 294.443 108.148H294.813V110.371C294.813 116.296 291.48 119.63 286.295 119.63C282.221 119.63 279.258 116.667 278.517 114.074L272.591 116.667C274.443 120.741 278.887 125.926 286.665 125.926C294.813 125.926 301.48 121.111 301.48 109.63V81.4816H294.813V84.0742ZM286.665 105.926C281.85 105.926 277.776 101.852 277.776 96.2965C277.776 90.7409 281.85 86.6668 286.665 86.6668C291.48 86.6668 295.184 90.7409 295.184 96.2965C295.184 101.852 291.48 105.926 286.665 105.926ZM377.036 64.815H360.369V111.111H367.406V93.7039H377.036C384.813 93.7039 392.221 88.1483 392.221 79.2594C392.221 70.3705 384.813 64.815 377.036 64.815ZM377.406 87.0372H367.406V71.1113H377.406C382.591 71.1113 385.554 75.5557 385.554 78.889C385.184 82.9631 382.221 87.0372 377.406 87.0372ZM419.998 80.3705C414.813 80.3705 409.628 82.5927 407.776 87.4076L414.073 90.0002C415.554 87.4076 417.776 86.6668 420.369 86.6668C424.073 86.6668 427.406 88.889 427.776 92.5928V92.9631C426.665 92.2224 423.702 91.1113 420.739 91.1113C414.073 91.1113 407.406 94.815 407.406 101.482C407.406 107.778 412.961 111.852 418.887 111.852C423.702 111.852 425.924 109.63 427.776 107.408H428.147V111.111H434.813V93.3335C434.073 85.1853 427.776 80.3705 419.998 80.3705ZM419.258 105.926C417.036 105.926 413.702 104.815 413.702 101.852C413.702 98.1483 417.776 97.0372 421.11 97.0372C424.073 97.0372 425.554 97.7779 427.406 98.5187C426.665 102.963 422.961 105.926 419.258 105.926ZM458.147 81.4816L450.369 101.482H449.998L441.85 81.4816H434.443L446.665 109.63L439.628 125.185H446.665L465.554 81.4816H458.147ZM395.924 111.111H402.961V64.815H395.924V111.111Z" fill="white"/>
<path d="M38.5198 27.7778C37.4087 28.8889 36.668 30.7408 36.668 32.963V114.815C36.668 117.037 37.4087 118.889 38.5198 120L38.8902 120.37L84.8161 74.4445V74.0741V73.7038L38.5198 27.7778Z" fill="url(#paint0_linear)"/>
<path d="M100.002 89.9995L84.8164 74.8144V74.0736V73.7032L100.002 58.5181L100.372 58.8884L118.52 69.2588C123.705 72.2218 123.705 77.0366 118.52 79.9995L100.002 89.9995Z" fill="url(#paint1_linear)"/>
<path d="M100.371 89.6298L84.8158 74.0742L38.5195 120.371C40.3714 122.222 42.964 122.222 46.2973 120.741L100.371 89.6298Z" fill="url(#paint2_linear)"/>
<path d="M100.371 58.5183L46.2973 27.7776C42.964 25.9257 40.3714 26.2961 38.5195 28.1479L84.8158 74.0739L100.371 58.5183Z" fill="url(#paint3_linear)"/>
<path opacity="0.2" d="M100.001 89.2588L46.2973 119.629C43.3343 121.481 40.7418 121.111 38.8899 119.629L38.5195 120L38.8899 120.37C40.7418 121.851 43.3343 122.222 46.2973 120.37L100.001 89.2588Z" fill="black"/>
<path opacity="0.12" d="M38.5186 119.629C37.4075 118.518 37.0371 116.666 37.0371 114.444V114.814C37.0371 117.037 37.7779 118.889 38.889 120V119.629H38.5186Z" fill="black"/>
<path opacity="0.12" d="M118.519 78.889L100 89.2594L100.37 89.6298L118.519 79.2594C121.111 77.7779 122.222 75.9261 122.222 74.0742C122.222 75.9261 120.741 77.4075 118.519 78.889Z" fill="black"/>
<path opacity="0.25" d="M46.2964 28.1479L118.519 69.259C120.741 70.7405 122.222 72.2219 122.222 74.0738C122.222 72.2219 121.111 70.3701 118.519 68.8886L46.2964 27.7775C41.1112 24.8145 37.0371 27.4071 37.0371 33.3331V33.7034C37.0371 27.7775 41.1112 25.1849 46.2964 28.1479Z" fill="white"/>
<defs>
<linearGradient id="paint0_linear" x1="80.7409" y1="32.2582" x2="18.5839" y2="94.4152" gradientUnits="userSpaceOnUse">
<stop stop-color="#00A0FF"/>
<stop offset="0.00657445" stop-color="#00A1FF"/>
<stop offset="0.2601" stop-color="#00BEFF"/>
<stop offset="0.5122" stop-color="#00D2FF"/>
<stop offset="0.7604" stop-color="#00DFFF"/>
<stop offset="1" stop-color="#00E3FF"/>
</linearGradient>
<linearGradient id="paint1_linear" x1="125.314" y1="74.0788" x2="35.696" y2="74.0788" gradientUnits="userSpaceOnUse">
<stop stop-color="#FFE000"/>
<stop offset="0.4087" stop-color="#FFBD00"/>
<stop offset="0.7754" stop-color="#FFA500"/>
<stop offset="1" stop-color="#FF9C00"/>
</linearGradient>
<linearGradient id="paint2_linear" x1="91.9529" y1="82.5783" x2="7.66288" y2="166.868" gradientUnits="userSpaceOnUse">
<stop stop-color="#FF3A44"/>
<stop offset="1" stop-color="#C31162"/>
</linearGradient>
<linearGradient id="paint3_linear" x1="27.028" y1="0.652375" x2="64.6673" y2="38.2913" gradientUnits="userSpaceOnUse">
<stop stop-color="#32A071"/>
<stop offset="0.0685" stop-color="#2DA771"/>
<stop offset="0.4762" stop-color="#15CF74"/>
<stop offset="0.8009" stop-color="#06E775"/>
<stop offset="1" stop-color="#00F076"/>
</linearGradient>
</defs>
</svg>
