<svg width="177" height="192" viewBox="0 0 177 192" fill="none" xmlns="http://www.w3.org/2000/svg">
<path d="M78.4213 164.415C78.4837 169.204 88.8873 180.915 88.8873 180.915C88.8873 180.915 98.9831 168.938 98.9207 164.149C98.9192 163.978 98.9118 163.808 98.8984 163.638C98.3441 156.091 78.7869 156.345 78.4302 163.904C78.4228 164.074 78.4198 164.244 78.4213 164.415Z" fill="#FFCF00"/>
<path d="M82.5143 165.188C82.5693 169.483 88.8159 175.529 88.8159 175.529C88.8159 175.529 94.9034 169.324 94.8469 165.029C94.8454 164.876 94.8395 164.723 94.8321 164.572C94.4694 157.8 82.703 157.953 82.5173 164.731C82.5128 164.882 82.5113 165.035 82.5143 165.188Z" fill="#FFA600"/>
<path d="M83.1983 162.562C83.228 164.829 85.4053 166.805 88.7196 167.99C92.0026 166.721 94.1279 164.688 94.0982 162.421C94.0982 162.341 94.0937 162.259 94.0863 162.179C93.798 158.607 83.3989 158.743 83.2027 162.32C83.1983 162.4 83.1968 162.48 83.1983 162.562Z" fill="#FF7E00"/>
<path d="M75.3704 163.084C75.3303 161.513 76.7853 158.279 79.2836 152.193C81.7805 146.107 83.9875 144.629 88.0969 144.527C92.233 144.423 93.5766 145.986 96.2919 151.106C99.0072 156.226 101.073 160.881 101.113 162.439C101.207 166.162 95.5205 169.326 88.412 169.504C81.3034 169.683 75.4655 166.808 75.3719 163.085L75.3704 163.084Z" fill="#00A4E1" stroke="#3C3CB2" stroke-width="1.35255" stroke-miterlimit="10"/>
<path d="M74.3565 159.764C74.3148 158.123 75.9096 154.743 78.6457 148.384C81.3833 142.024 83.7969 140.478 88.2883 140.365C92.8093 140.252 94.2762 141.883 97.2383 147.227C100.2 152.572 102.453 157.432 102.494 159.058C102.592 162.947 96.3718 166.257 88.6004 166.453C80.8304 166.648 74.4516 163.653 74.355 159.765L74.3565 159.764Z" fill="url(#paint0_linear_110_931)" stroke="#BB1E2E" stroke-width="1.50328" stroke-linecap="round" stroke-linejoin="round"/>
<path d="M31.2607 104.329L42.5946 95.0463C42.5946 95.0463 56.6646 85.7634 63.7004 90.714C70.7361 95.6646 80.8974 85.1437 89.4967 85.1437C98.0959 85.1437 109.82 96.2829 117.638 95.0463C125.455 93.8083 129.363 89.476 129.363 89.476L140.698 97.5209L138.353 104.329L145.888 108.608C145.888 108.608 136.399 135.274 127.018 138.986C117.638 142.7 85.5879 151.364 66.8274 143.937C48.0669 136.51 31.2607 104.329 31.2607 104.329Z" fill="#9E7D35" stroke="#8C5C35" stroke-width="1.50328" stroke-linecap="round" stroke-linejoin="round"/>
<path opacity="0.24" d="M142.274 93.3C142.274 128.153 117.882 156.408 87.7923 156.408C57.7024 156.408 33.3105 128.153 33.3105 93.3C33.3105 58.4467 57.9312 21.2987 88.0197 21.2987C118.108 21.2987 142.273 58.4467 142.273 93.3015L142.274 93.3Z" fill="#3FFFF1" stroke="#00B7D8" stroke-width="1.50328" stroke-miterlimit="10"/>
<path opacity="0.5" d="M101.036 31.8655C104.275 29.7952 111.269 34.7859 113.497 36.3777C117.918 39.5344 120.666 42.8933 121.97 44.6188C126.309 50.3585 130.728 59.2446 128.378 61.2258C127.681 61.8143 126.592 61.6241 126.029 61.5185C122.369 60.8349 121.554 56.5293 117.96 51.2012C114.299 45.775 109.572 41.9807 108.001 40.7353C103.731 37.3526 99.4863 35.1709 100.033 33.0708C100.21 32.3916 100.813 32.0052 101.035 31.864L101.036 31.8655Z" fill="#3FFFF1"/>
<path opacity="0.5" d="M129.427 65.4704C130.575 66.5167 130.801 68.3968 129.971 69.2811C128.821 70.5087 125.545 69.9306 124.845 68.0847C124.456 67.0577 124.831 65.5462 126.046 64.8893C127.256 64.2354 128.662 64.7719 129.429 65.469L129.427 65.4704Z" fill="#3FFFF1"/>
<path opacity="0.5" d="M62.4004 43.2752C63.096 43.9158 62.0333 47.3742 59.2809 48.1248C57.8942 48.5023 55.9815 48.2184 55.7689 47.4485C55.3543 45.9385 61.4017 42.3582 62.4004 43.2767V43.2752Z" fill="#3FFFF1"/>
<path opacity="0.5" d="M55.7508 54.4175C56.0154 53.933 57.8984 52.6891 57.6071 51.399C57.4169 50.5593 56.4122 49.9173 55.5175 49.7449C52.3459 49.134 48.7864 54.0727 47.1189 56.3868C44.5626 59.9344 43.3721 63.106 43.0645 63.9516C39.4173 73.9687 38.3591 82.357 38.3145 85.1793C38.2164 91.3991 36.6455 100.281 39.3727 100.117C39.9717 100.082 40.9793 100.003 42.7197 94.1858C42.7197 94.1858 43.1031 77.558 55.7508 54.4175Z" fill="#3FFFF1"/>
<path d="M139.975 77.995C137.444 73.8053 132.679 70.9562 127.837 70.4985C129.937 68.4535 133.482 67.9169 135.362 65.5643C133.094 60.8856 121.036 64.1286 117.285 66.4619C116.753 66.6774 116.23 67.1946 115.723 67.4012C115.491 64.5789 116.375 60.5512 114.471 57.9727C113.015 57.0557 109.409 68.2171 108.008 69.8342C103.962 77.6948 96.0704 83.7273 93.7802 85.2314C92.1557 86.2985 88.1741 88.2454 90.4451 92.3756C91.1912 93.7177 92.8468 94.0521 94.2676 93.9926C95.1817 93.9049 96.0095 93.5884 96.8908 94.0937C98.4781 94.3686 100.14 92.0516 101.647 93.7504C102.222 94.8398 104.242 94.6807 103.558 93.2228C103.448 92.9954 103.094 92.7293 103.399 92.5956C104.709 92.716 106.397 93.193 107.489 92.1096C108.371 90.5401 105.535 91.2446 108.179 90.069C111.899 88.3955 115.594 85.8586 119.849 86.3683C130.766 87.9259 139.62 92.6996 126.535 79.7428C128.537 78.2625 143.1 83.1432 139.978 77.9994L139.975 77.995Z" fill="#1D9DCC"/>
<path d="M119.952 76.8329C117.809 74.3048 113.376 74.3167 112.165 77.732C114.385 75.4388 117.631 75.6038 120.239 77.1375C120.169 77.0632 120.071 76.9488 119.952 76.8343V76.8329Z" fill="#235A70"/>
<path d="M141.073 78.5434C138.82 74.0327 133.981 70.4955 128.873 70.2562C147.397 61.7565 121.831 60.5928 116.068 66.6744C116.65 64.9549 116.656 56.5562 113.507 57.3856C111.139 60.468 110.126 64.4213 108.162 67.8485C102.284 82.6602 85.242 85.7396 89.6918 92.9478C92.1187 96.8238 97.3933 94.4429 100.794 93.4427C101.699 95.1191 105.447 95.4194 103.572 92.9151C104.994 93.5497 109.493 92.976 107.534 90.7883C119.71 84.4644 119.053 87.5067 131.398 88.987C132.146 89.0435 133.277 89.4344 133.702 88.5694C133.963 85.2299 130.016 82.1058 127.668 80.0028C130.34 80.0177 141.512 82.9619 141.072 78.5404L141.073 78.5434ZM140.113 79.1973C135.759 81.1546 129.943 78.5478 125.208 79.0442C127.586 82.0479 131.762 84.2549 132.776 88.0938C128.61 87.5617 124.529 86.3683 120.333 85.9744C120.589 85.8243 121.651 85.4141 121.072 85.2061C121.368 85.3294 109.473 87.1367 113.381 87.3745C110.851 88.5203 107.92 89.8371 105.102 90.9622C110.534 91.1539 105.15 93.8321 101.064 91.7038C104.677 93.6552 103.662 95.5873 100.587 92.6282C96.6606 94.3998 87.9871 95.6809 90.365 88.6913C94.2128 84.6532 99.6732 82.0389 103.123 77.445C108.28 71.9951 110.509 64.5521 114.02 58.2609C116.212 61.1576 114.98 66.0547 114.836 68.6407C120.284 64.5937 128.463 62.0255 134.911 65.0336C132.849 67.8574 128.858 69.0568 125.915 70.9176C131.386 70.6768 138.067 74.0342 140.112 79.1973H140.113Z" fill="#235A70"/>
<path d="M110.375 90.8238C109.989 89.9751 108.592 89.828 107.03 88.7743C104.496 74.2138 96.5297 54.187 79.7607 52.8465C84.5954 50.8163 78.386 49.3538 73.9392 52.8405C75.097 51.7957 77.6295 47.9538 75.0167 49.2751C75.0212 49.2483 75.0227 49.2186 75.0256 49.1904C73.633 49.6957 72.8305 51.1967 72.2301 53.221C49.5325 59.7098 58.6267 82.1487 56.0451 98.8003C56.0451 98.8003 54.3583 99.5063 52.7116 100.579L52.6685 100.514C56.008 91.7883 45.1527 85.139 50.8791 94.5319C44.9253 85.7706 37.5611 87.3297 47.4741 95.4355C43.7601 92.4527 40.6346 92.7395 47.275 98.4391C48.4179 99.4587 49.9175 100.713 50.8285 102.055C47.0847 105.9 50.127 114.45 57.9921 121.108C56.9725 124.892 60.4741 126.46 63.717 124.289C63.0096 130.209 73.3789 134.001 76.6887 129.849L76.6516 129.737C77.3159 129.513 77.9475 129.118 78.4781 128.535C78.9389 128.551 79.4055 128.56 79.8767 128.56C81.3421 130.922 85.8884 131.399 87.3642 127.894C87.6555 127.84 87.9424 127.78 88.2247 127.719C90.7201 131.873 98.8839 129.657 100.187 124.543L99.954 124.466C100.263 123.727 100.212 122.571 99.8425 121.62C104.215 123.867 107.067 120.309 103.715 117.683C109.317 108.639 108.617 101.352 107.586 92.2654C109.628 92.4898 110.663 91.4495 110.377 90.8238H110.375Z" fill="#1D9DCC"/>
<path d="M106.618 97.228C105.322 97.4049 105.973 101.12 107.253 100.845C108.55 100.669 107.899 96.9531 106.618 97.228Z" fill="white"/>
<path d="M105.286 90.3009C109.941 93.1619 106.483 86.8737 104.161 88.238C103.812 88.9752 104.628 89.7495 105.286 90.3009Z" fill="white"/>
<path d="M103.038 100.981C103.681 103.926 106.229 103.348 105.533 100.411C104.887 97.4657 102.341 98.0438 103.038 100.981Z" fill="white"/>
<path d="M100.681 92.6847C103.421 95.6051 104.405 91.9059 101.831 90.3632C99.7103 88.9216 99.3417 91.463 100.681 92.6847Z" fill="white"/>
<path d="M100.933 104.493C102.635 104.157 101.672 99.9255 99.9924 100.361C98.2907 100.695 99.2552 104.928 100.933 104.493Z" fill="white"/>
<path d="M95.6204 92.2521C94.4211 93.0517 96.3754 96.1876 97.4812 95.5307C98.6181 94.9169 96.9105 91.6279 95.6204 92.2521Z" fill="white"/>
<path d="M76.042 95.241C74.5825 94.975 73.991 99.0398 75.4623 99.2018C76.9203 99.4663 77.5148 95.4045 76.042 95.241Z" fill="white"/>
<path d="M74.9721 102.947C73.5156 102.681 72.9226 106.746 74.3924 106.909C75.8504 107.172 76.4449 103.111 74.9721 102.947Z" fill="white"/>
<path d="M71.7539 94.48C70.3732 93.942 69.0133 97.8151 70.4267 98.258C71.8059 98.7975 73.1658 94.9229 71.7539 94.48Z" fill="white"/>
<path d="M69.9945 102.666C68.535 102.4 67.9435 106.464 69.4134 106.629C70.8713 106.893 71.4658 102.83 69.9945 102.666Z" fill="white"/>
<path d="M67.9959 93.071C67.0432 92.3844 65.0428 95.4266 66.0475 96.0315C66.9986 96.7152 69.0021 93.6744 67.9959 93.071Z" fill="white"/>
<path d="M66.1174 101.44C64.658 101.174 64.0665 105.237 65.5363 105.402C66.9943 105.665 67.5888 101.605 66.1174 101.44Z" fill="white"/>
<path d="M93.9407 75.9009C92.3356 73.7221 90.411 76.6604 89.4583 77.7542C84.7856 72.8319 81.9945 77.4288 79.52 80.5855C78.7457 82.4239 71.7827 80.0371 72.3579 83.7586C72.3594 86.025 74.3554 86.3803 77.1287 87.2705C78.4157 88.0731 86.0356 93.2035 88.8549 93.0222C89.2175 92.9701 89.2235 92.5852 89.4345 90.9801C89.6472 89.375 90.7811 85.9537 91.7055 83.3662C92.1499 82.8698 95.5251 77.8092 93.9422 75.9024L93.9407 75.9009ZM89.3825 84.0305C88.4507 87.0446 88.039 89.9561 87.9855 91.4809C85.1423 90.9935 80.2869 87.5662 78.5153 84.6622C81.1593 84.5998 85.7993 83.0556 89.3825 84.0216V84.0305Z" fill="#F6A500"/>
<path d="M58.4469 58.8597C57.8004 58.9058 57.3203 58.3113 57.2757 57.7213C57.3218 54.9406 60.8308 53.9507 63.1225 53.8705L63.1507 53.5123C50.8508 51.5074 57.891 42.6956 65.6506 50.6127L65.9329 50.3898C55.7197 34.7206 70.9772 32.0483 70.0007 49.5233L70.35 49.6095C72.5109 41.465 81.1043 34.7904 88.4714 41.7756C89.5623 43.3629 88.84 45.8404 87.9037 47.3059C86.0519 49.8131 82.6098 48.3284 80.1427 47.8245C76.3558 46.8763 73.4398 48.9719 72.0844 53.0664C70.3797 53.4499 68.7895 54.0206 67.3538 54.7696L67.2423 54.5645C64.2089 55.917 61.6081 57.9071 58.4454 58.8582L58.4469 58.8597Z" fill="#E33113"/>
<path d="M87.0285 92.6713C87.0285 92.6713 87.6022 95.4833 86.4578 98.203C82.2265 109.225 98.5229 102.642 88.4404 93.1023L88.4538 93.0087C88.103 92.9626 87.6126 92.8393 87.0359 92.6505L87.0285 92.6713Z" fill="#E33113"/>
<path d="M85.6063 83.6796C81.6857 84.0304 81.0808 84.6234 78.5156 84.662C79.1101 85.0469 80.0598 86.6937 80.8846 87.5928L81.1417 87.5334C82.9891 84.9905 89.1004 87.3818 87.4894 91.2311L87.2664 91.2638C88.2785 91.5714 88.0541 91.7513 88.0333 90.4924C88.0036 89.7211 88.6991 86.3593 89.3828 84.02C88.8062 83.8936 86.2603 83.6202 85.6063 83.6781V83.6796Z" fill="#C06817"/>
<path d="M84.8268 86.6074C82.1471 86.0783 81.1409 87.5318 81.1409 87.5318L80.8838 87.5913C82.8828 89.3703 85.9637 90.9739 87.4886 91.2295C88.0325 90.0123 87.5896 87.1513 84.8268 86.6074Z" fill="#DA89A1"/>
<path d="M89.4585 77.7541C90.4112 76.6617 92.3358 73.722 93.941 75.9008L94.1654 75.8785C101.379 67.5765 76.5908 51.4822 85.098 75.6808C86.4341 75.6853 88.3543 76.146 89.4585 77.7526V77.7541Z" fill="white"/>
<path d="M76.1938 81.4963C81.0136 81.2837 79.4144 79.7767 82.6455 76.785L82.5281 76.6467C77.7989 49.8012 56.7779 78.5238 72.4842 82.7343C72.8899 81.3937 74.2513 81.4725 76.1953 81.4963H76.1938Z" fill="white"/>
<path d="M50.9409 93.4023C50.009 93.1154 49.2377 90.8341 49.3759 93.2864C49.1292 94.945 47.1198 94.7012 46.0646 94.1603C47.8005 95.6435 47.9773 96.7611 45.3794 97.1178C46.4064 97.4552 47.8525 100.324 48.7933 99.3724C51.9396 96.232 55.0235 96.7329 51.9396 91.6753C52.0288 92.3827 52.0347 93.9239 50.9394 93.4008L50.9409 93.4023Z" fill="#1C87AE"/>
<path d="M107.899 92.9816C107.505 92.1389 105.964 91.7376 105.117 92.0691C104.925 92.7349 105.639 93.3517 105.573 94.0561C105.662 95.257 104.56 96.1041 103.442 96.2334C101.988 96.44 101.171 94.8186 99.8854 94.5629C100.689 100.316 95.724 98.8774 94.1976 95.1946C94.0995 99.6294 102.436 103.012 101.56 96.5158C104.817 98.7006 108.758 97.2456 107.901 92.9816H107.899Z" fill="#1C87AE"/>
<path d="M82.4891 52.7276C81.6419 52.4794 80.6536 52.5909 79.8228 52.8584C78.8404 53.1616 77.8491 53.8631 76.8117 53.6C76.9559 54.7444 79.3858 54.4471 79.4795 56.8622C79.1629 58.8345 75.9021 56.724 75.1323 56.1533C76.3138 60.7101 83.1653 59.0232 79.313 54.6136C80.0754 54.4546 83.4075 53.8735 82.4876 52.7291L82.4891 52.7276Z" fill="#1C87AE"/>
<path d="M78.3427 97.2962C78.3278 97.2397 78.3115 97.1818 78.2951 97.1253C77.9593 100.517 74.4325 103.868 73.2316 98.8731C72.8467 98.5 72.4424 99.3814 72.2225 99.6325C70.7392 101.648 68.1487 100.658 68.3256 98.1731C68.3449 97.8714 68.654 97.0629 68.339 96.8399C67.2897 97.0213 66.8037 98.5996 65.5895 98.7334C62.6795 98.9935 64.5595 95.6242 65.1124 94.3208C61.4355 96.0136 62.5041 102.138 67.0281 98.8523C67.1857 101.744 70.6277 103.553 72.4959 100.9C74.966 105.842 79.4737 101.239 78.3442 97.2962H78.3427Z" fill="#1C87AE"/>
<path d="M84.0168 125.387C75.4695 125.008 65.0749 125.289 58.4122 119.185C57.2708 122.978 61.3504 125.12 64.3184 123.356C64.7227 128.73 68.3936 127.926 71.482 125.212C72.2414 129.98 77.3228 129.148 79.625 125.991C82.5395 131.065 85.6992 129.442 87.6907 125.016C86.4735 125.209 85.2355 125.335 84.0168 125.387Z" fill="#1C87AE"/>
<path d="M89.336 124.712C88.8099 124.824 88.2749 124.922 87.7383 125.008C90.4447 128.343 94.0384 127.734 94.2242 123.155C92.6666 123.824 91.0362 124.351 89.336 124.712Z" fill="#1C87AE"/>
<path d="M102.657 117.55C100.186 119.882 97.3766 121.791 94.2764 123.131C97.121 125.35 100.266 125.157 99.2611 120.802C102.323 121.569 105.955 121.107 102.657 117.55Z" fill="#1C87AE"/>
<path d="M78.5552 129.217C78.8361 129.254 79.6773 129.19 79.7204 128.914C79.5852 128.462 79.6 127.893 79.2879 127.52C79.2968 127.859 78.5953 128.967 78.5537 129.217H78.5552Z" fill="#1C87AE"/>
<path d="M87.6151 127.471C87.1722 128.581 87.7934 128.199 88.492 127.958C88.813 128.051 88.9141 127.811 89.0553 127.596C88.2126 126.743 87.7637 125.369 87.6166 127.469L87.6151 127.471Z" fill="#1C87AE"/>
<path d="M68.765 128.428C67.9 128.91 63.749 127.721 65.91 129.308C68.4752 131.465 72.3081 132.321 75.4203 131.087C76.1441 130.044 73.2549 130.646 72.7912 129.773C72.0674 129.302 71.9084 128.188 71.1757 127.829C70.2735 127.73 69.523 127.938 68.7665 128.427L68.765 128.428Z" fill="#1C87AE"/>
<path d="M89.4178 129.189C92.3204 130.686 96.9143 129.947 98.998 127.3C99.1837 127.029 99.9581 126.069 99.2863 126.072C97.6306 126.766 95.9943 125.76 94.8499 124.562C94.2361 126.994 94.0162 129.058 90.7613 128.296C89.7433 127.779 87.2747 128.162 89.4178 129.189Z" fill="#1C87AE"/>
<path d="M84.5564 103.255C86.9997 106.399 91.6947 102.798 89.4847 103.693C80.5986 105.601 90.9278 92.9566 85.6413 92.3057C87.9241 95.938 82.379 99.6164 84.5564 103.255Z" fill="#1C87AE"/>
<path d="M64.8935 48.7059C64.8817 48.6836 64.8698 48.6613 64.8564 48.6405C64.8683 48.6628 64.8802 48.6851 64.8935 48.7059Z" fill="#D12E17"/>
<path d="M80.3634 46.3799C77.9855 46.1005 75.8944 44.7807 74.5553 42.7446C71.2663 44.5117 70.0268 55.0802 69.7028 46.8956C69.3327 49.0908 66.3841 51.1091 64.8934 48.7073C65.3155 49.4222 66.0705 50.1564 65.9768 50.9679C65.3051 51.118 64.443 50.0925 64.0418 49.6734C65.3809 51.4568 63.1396 53.2864 61.3369 52.9564C64.1012 52.9758 65.2085 54.2762 61.4766 54.0637C62.1468 54.0547 62.887 54.3579 63.1084 55.0327C63.4399 56.2291 61.6742 56.6601 61.0723 57.2813C62.7844 56.4832 64.7106 55.9957 66.448 55.1828C69.2302 54.0592 72.3378 53.6208 73.2593 50.3006C73.7869 49.2022 74.6222 49.2706 75.4411 48.6746C75.9196 48.0207 76.0192 47.7502 76.8872 47.5035C81.1823 47.0606 87.8242 51.283 88.6714 44.2873C86.2622 45.94 83.0327 46.7217 80.3649 46.3814L80.3634 46.3799Z" fill="#D12E17"/>
<path d="M64.8565 48.6405C64.8164 48.5692 64.7778 48.4978 64.7451 48.4205C64.7763 48.4934 64.8149 48.5677 64.8565 48.6405Z" fill="#D12E17"/>
<path d="M69.6479 46.0159C69.6628 46.3101 69.6806 46.6029 69.7029 46.8957C69.752 46.5806 69.6643 46.3428 69.6479 46.0159Z" fill="#D12E17"/>
<path d="M86.9878 92.9729C86.2729 94.0831 87.1141 94.4963 88.1678 94.5364C89.2126 94.6657 89.8844 96.2099 90.8282 96.2099C90.9902 94.9704 88.3923 92.2268 86.9893 92.9714L86.9878 92.9729Z" fill="#D12E17"/>
<path d="M85.6158 102.672C84.9559 101.226 85.4717 98.3039 86.5001 97.1759C86.0201 99.4097 86.7884 103.821 90.1934 102.449C90.4728 102.355 91.1847 101.789 91.3601 102.149C91.3497 104.546 86.564 104.738 85.6158 102.672Z" fill="#D12E17"/>
<path d="M58.8825 66.5879C58.184 68.6226 57.86 69.9572 57.9239 70.5978L59.419 71.1937C59.8901 66.8882 61.6171 64.0064 63.1554 60.2358C61.0137 62.4384 59.5914 64.5518 58.8825 66.5879Z" fill="#97BEE5"/>
<path d="M57.7864 71.3381C57.776 72.643 58.0614 74.7371 58.8193 75.3271L59.3499 71.9103L57.7864 71.3381Z" fill="#97BEE5"/>
<path d="M87.4083 42.8918C87.9211 43.9663 86.6251 44.7243 86.2461 43.4372C85.8225 42.7209 83.1949 42.1636 85.0349 41.4338C86.041 41.2614 87.019 41.9436 87.4098 42.8918H87.4083Z" fill="#F5AE80"/>
<path d="M83.3439 41.5929C82.7346 41.4086 83.1061 40.7651 83.5431 40.6164C84.4467 40.3118 84.2505 41.8663 83.3439 41.5929Z" fill="#F5AE80"/>
<path d="M66.2015 41.3341C65.7616 41.1944 65.3782 40.38 65.5283 39.9415C66.0128 38.5118 67.4603 41.7339 66.2015 41.3341Z" fill="#F5AE80"/>
<path d="M61.3625 49.7091C62.0536 48.7609 58.8746 48.2333 59.0484 49.348C59.1361 49.7106 59.5434 49.5947 59.7544 49.5456C60.334 49.287 60.8527 49.9722 61.3625 49.7106V49.7091Z" fill="#F5AE80"/>
<path d="M61.944 49.8949C61.565 50.2813 62.3423 50.9754 62.6098 50.6306C62.8892 50.2709 62.3616 49.4683 61.944 49.8949Z" fill="#F5AE80"/>
<path d="M88.6819 79.3057C87.5836 77.7898 85.7466 77.8165 84.1475 77.4063C85.2398 75.122 88.5749 77.6159 88.78 79.4305C88.78 79.4305 88.7161 79.3429 88.6834 79.3072L88.6819 79.3057Z" fill="#FBD299"/>
<path d="M90.9829 101.357C89.8088 103.085 89.9589 99.6281 90.867 99.4988C91.4986 99.5122 91.2549 100.747 90.9829 101.357Z" fill="#F5AE80"/>
<path d="M90.6412 98.5474C90.61 98.3244 90.6917 98.0762 90.8938 98.0391C91.8034 98.0524 90.9533 99.6323 90.6412 98.5474Z" fill="#F5AE80"/>
<path d="M64.3393 55.8324C62.2334 56.0657 59.9208 58.3129 58.0571 58.029C57.6647 54.1455 63.5026 54.7281 65.8256 53.9553C65.9816 53.4485 64.4776 53.4366 64.2427 53.2984L62.8873 52.9417C50.9515 49.6408 60.2389 44.4465 66.7247 52.3621C68.2184 52.8139 63.9693 46.3682 64.0555 45.1153C60.8185 33.016 70.1237 38.7751 69.7388 50.1268C69.2944 54.798 73.3949 43.5117 74.9688 42.993C77.8639 38.194 90.2857 38.4645 88.1396 45.628C85.946 51.7765 78.3796 44.0645 74.8974 48.4727C74.9019 48.4816 74.9078 48.489 74.9138 48.4964C75.2987 48.3998 75.6851 48.3107 76.0819 48.3879C78.6784 46.5168 81.9763 49.0775 84.9027 48.8992C88.2035 49.0865 89.5738 45.2357 89.07 42.4758C82.2929 34.0236 72.4169 40.832 70.1802 49.5516C71.2309 31.7066 55.3581 34.6479 65.7795 50.4865C57.8238 42.3019 50.5383 51.6948 63.1162 53.6908C60.6773 53.4114 54.7681 56.3407 57.9798 58.9698C60.3667 58.9416 62.4905 57.1715 64.3408 55.8339L64.3393 55.8324Z" fill="#9B1A16"/>
<path d="M93.4824 130.28C97.4536 129.94 100.914 126.682 101.275 122.687C104.255 124.126 107.46 120.406 104.595 118.123C109.584 110.788 109.929 101.491 108.689 92.9627C112.629 92.1185 111.308 89.5919 108.056 88.8503C106.072 78.5092 102.559 67.96 95.5631 59.9121C95.5542 60.3714 95.4829 60.8618 95.3551 61.3136C101.576 68.9721 104.874 78.6504 106.766 88.2499C104.336 87.2838 109.809 90.3588 110.134 90.659C110.685 91.362 109.605 91.9193 109.01 92.0382C106.653 92.5108 104.448 90.9964 102.556 89.7836C109.15 95.5204 102.483 98.4691 98.4197 92.3622L98.7585 93.2421C101.666 99.6893 96.3345 99.3192 94.0695 94.5291C93.64 94.5172 94.2672 95.8013 94.3935 96.112C95.9629 99.936 101.985 100.111 99.9995 94.9884C102.376 98.215 108.157 96.6455 105.707 92.3444C106.274 92.6134 106.876 92.8259 107.506 92.9166C108.689 101.229 108.486 110.356 103.627 117.516C103.479 117.421 102.981 117.276 103.186 117.598C107.558 120.81 102.855 123.552 99.4243 121.155L99.6146 121.699C101.142 126.215 96.7283 126.627 94.3623 123.638C95.0073 128.718 89.6703 129.553 87.6327 125.337C88.1514 131.098 79.399 132.078 79.5863 126.055C78.5281 130.907 71.0866 130.996 71.3987 125.541L70.9811 126.197C69.2125 129.956 62.2986 128.015 64.1296 123.75C61.3326 126.144 56.7966 125.013 58.3349 120.765C58.326 120.443 58.0317 120.728 57.9767 120.886C51.1401 115.685 44.2975 102.929 55.5393 99.1973C56.5113 98.857 56.3508 98.698 56.4385 97.8746C57.9767 82.4328 50.877 58.9357 71.8907 53.459C71.9605 55.1577 73.1005 48.9855 75.7489 49.201C76.6704 49.7345 73.8569 52.6743 73.2654 53.2866C74.065 53.0012 74.9434 52.5212 75.6523 52.0634C82.6167 48.6778 83.8726 53.0428 74.8096 53.7414L75.575 53.9331C80.7679 55.3851 79.2965 59.2225 74.6892 55.7166C74.3979 56.0539 75.6672 56.9219 76.0075 57.2459C80.0976 60.2822 81.6046 54.7773 77.2396 53.777C83.7923 52.1288 90.3213 55.9915 94.829 60.7206C94.985 60.3387 95.1247 59.9315 95.2169 59.5436C91.6544 55.834 86.9892 53.2569 81.997 52.2819C83.1413 49.1861 77.7835 49.4566 76.223 50.7541C78.6797 46.2315 71.8387 48.7952 71.9784 52.3696C50.3435 57.8835 55.6924 81.4058 55.6136 98.0827C54.9537 98.2699 54.4722 98.4394 53.6176 98.8273C54.5792 95.5442 53.4571 89.0331 48.9999 89.4745C48.6655 89.6216 48.4441 90.0333 48.4679 90.3558C46.9965 88.932 44.84 87.3923 42.6553 87.9898C42.6583 87.9883 42.5825 88.0165 42.6122 88.0061C40.4631 89.1832 42.9213 91.6786 43.9587 92.7828C39.1389 94.0134 48.3757 100.202 49.7445 101.605C45.5029 108.712 52.0393 117.027 57.5487 121.801C56.4028 124.991 60.3264 127.128 62.8337 125.307C62.8396 125.31 62.8441 125.313 62.85 125.316C64.5577 131.762 73.8346 134.186 78.4241 129.42C78.9383 129.44 79.457 129.449 79.9772 129.451C81.8944 131.748 86.1093 131.578 87.5004 128.801C87.5911 128.785 87.6817 128.766 87.7724 128.749C89.1947 130.195 91.5043 130.491 93.4839 130.279L93.4824 130.28ZM94.9137 125.046C94.9493 125.089 94.985 125.132 95.0222 125.173C94.9865 125.191 94.9493 125.209 94.9152 125.227C94.9152 125.166 94.9152 125.105 94.9152 125.046H94.9137ZM88.0325 126.966C88.1707 127.153 88.3164 127.337 88.4858 127.498C88.3015 127.54 88.1172 127.58 87.9329 127.617C87.9805 127.4 88.0087 127.18 88.0325 126.964V126.966ZM79.2876 128.201C79.3069 128.266 79.3292 128.332 79.353 128.397C79.298 128.397 79.2445 128.394 79.1895 128.393C79.2237 128.329 79.2564 128.265 79.2891 128.201H79.2876ZM70.9172 127.309C70.9172 127.318 70.9202 127.327 70.9202 127.337C70.9127 127.336 70.9068 127.333 70.8994 127.331C70.9053 127.324 70.9113 127.315 70.9157 127.308L70.9172 127.309ZM49.3923 90.3633C49.3923 90.3633 49.3923 90.3662 49.3893 90.3662C49.3923 90.3603 49.3938 90.3588 49.3923 90.3633ZM49.4012 90.3633C49.4012 90.3633 49.4012 90.3633 49.3982 90.3633H49.4012ZM49.3804 90.3737C49.3804 90.3737 49.3789 90.3737 49.3774 90.3751C49.373 90.3766 49.376 90.3752 49.3804 90.3737ZM48.6893 99.3727C45.063 96.2962 39.9994 90.7913 48.3326 96.1818C48.563 96.2918 48.667 96.4092 48.6641 96.2948C46.8375 94.1635 44.0285 92.0234 42.7801 89.4017C42.6657 88.6214 43.8472 88.8919 44.3154 89.0153C47.4231 89.9694 49.8322 93.5378 51.4448 95.3882C51.1758 93.6627 49.5394 92.1542 49.3893 90.3677C52.8909 91.3992 53.4616 96.1803 52.8834 99.2018C52.124 99.5942 51.048 100.293 50.2573 101.061C49.7995 100.498 49.2585 99.9345 48.6878 99.3712L48.6893 99.3727ZM74.4737 131.06C71.7034 131.78 68.0904 130.993 65.9874 128.89C67.3622 129.336 68.9732 129.099 70.0998 128.173C70.4862 128.277 70.8771 128.375 71.2709 128.467C72.0111 129.95 73.7143 130.8 75.3402 130.729C75.0905 130.854 74.8007 130.967 74.4722 131.059L74.4737 131.06ZM91.7584 129.544C90.7538 129.412 89.752 129.099 89.0104 128.489C89.217 128.442 89.4236 128.391 89.6302 128.339C91.4463 129.424 94.123 128.724 94.6967 126.557C95.1009 126.37 95.5037 126.171 95.9005 125.961C96.7447 126.556 97.8549 126.88 98.8759 126.559C97.3214 128.791 94.4084 129.886 91.7584 129.543V129.544Z" fill="#235A70"/>
<path d="M63.5364 98.2774C64.5144 100.401 67.1687 98.692 68.0857 97.3693C66.9963 101.086 71.2023 103.18 73.0066 99.505C73.775 104.84 79.0392 101.277 78.5428 97.4466C78.461 95.6453 78.2054 97.3886 78.0077 98.0693C75.3563 104.778 72.9501 99.7264 73.7482 95.2202C72.2115 102.972 66.6575 101.792 69.5066 94.1561C67.5983 98.5969 61.8421 100.899 65.4759 93.9227C64.1473 94.6599 63.0712 96.6871 63.5349 98.2774H63.5364Z" fill="#235A70"/>
<path d="M88.9453 93.4695C88.8576 93.4858 88.712 93.4918 88.6064 93.4858C96.5235 101.036 86.178 107.941 85.8049 100.904C86.3637 98.3547 87.7682 95.8489 87.2659 93.2064C87.0519 93.141 86.8408 93.0682 86.6313 92.9954C87.2852 96.2101 84.6769 98.9952 84.9994 102.207C88.8205 109.513 96.8 99.1884 89.1236 93.4175C89.0835 93.4412 88.9587 93.4695 88.9468 93.471L88.9453 93.4695Z" fill="#9B1A16"/>
<path d="M91.1895 64.0631C82.342 57.3157 81.3418 69.7226 84.4361 75.2498C84.6709 75.2246 84.9072 75.2201 85.1406 75.2261C77.1923 52.3086 100.282 67.3164 94.3596 75.4431C94.5662 75.715 94.7074 76.0465 94.7965 76.3586C98.6622 72.5167 94.5171 66.8289 91.1895 64.0631Z" fill="#235A70"/>
<path d="M70.9861 82.0688C58.646 76.0244 77.9089 51.6623 82.3497 76.3692C82.5474 76.179 82.7569 75.9858 82.9873 75.8163C82.6588 71.3398 80.3463 66.0058 75.6558 64.6311C67.8189 63.4049 60.7178 80.7922 71.7946 83.1255C71.8139 82.9026 71.854 82.6693 71.9328 82.4315C71.6816 82.3557 71.3591 82.2412 70.9861 82.0688Z" fill="#235A70"/>
<path d="M87.3238 88.0671C86.1512 85.973 82.5783 85.5316 80.8989 87.1263C81.0267 87.2809 81.159 87.4414 81.3031 87.5826C83.638 85.1437 88.6406 87.697 87.3699 91.096C87.4709 91.1332 87.5705 91.1703 87.6716 91.2045C88.0119 90.1627 87.8841 89.0941 87.3238 88.0671Z" fill="#C93759"/>
<path d="M94.3592 75.4431C92.717 73.3446 90.3881 75.5486 89.5959 77.2696C88.2301 75.556 85.7094 74.8204 83.6228 75.4357C81.7026 76.4775 80.637 78.5582 79.1612 80.0786C78.4151 80.9079 77.1875 80.8098 76.1501 80.8321C74.4246 80.7013 71.8505 80.8485 71.794 83.1254C71.5606 84.6784 72.546 86.2048 74.0218 86.6299C79.4302 87.804 83.1933 92.9047 88.8216 93.4843C89.3432 93.4992 89.6568 92.9017 89.6791 92.4543C89.9734 89.3496 90.9246 86.3712 91.9798 83.4493C93.6013 81.2126 96.159 78.2951 94.3577 75.4446L94.3592 75.4431ZM94.1497 77.6471C94.1006 79.6922 92.7883 81.4192 91.6944 83.0585C90.5218 86.0279 89.4592 89.1668 89.0846 92.3458C88.3148 94.0476 82.5126 90.3543 81.1601 89.6142L77.2127 87.1337C75.7934 86.6001 74.1169 86.4039 73.0305 85.2952C72.1789 84.2727 72.2636 81.9765 73.8509 81.7476C80.6608 82.0895 79.3782 80.0102 83.6287 76.152C88.2137 74.3076 91.8758 79.9597 89.4755 83.8774C84.8623 82.1296 79.1597 86.6269 75.3104 83.0629C75.5393 82.9039 75.8335 82.7434 76.0639 82.6171C75.1766 82.0151 73.8078 83.0778 74.0991 84.0676C74.3681 83.7778 74.707 83.5147 75.025 83.2665C75.7622 84.5343 77.3168 85.1481 78.748 85.0842C80.799 88.3747 84.2723 90.5698 88.0071 91.6354C87.9744 91.6458 88.0577 91.6221 88.0547 91.6206C88.1825 91.5626 88.2301 91.4214 88.2256 91.2936C88.1156 88.9647 88.9063 86.5882 89.4428 84.4035C90.6883 83.9012 90.6184 81.8383 90.7046 80.6582C91.0881 79.7412 91.6395 78.6518 92.1002 77.7839C92.4316 77.8255 92.769 77.9072 93.09 77.9622C92.8463 76.9219 91.1431 76.9412 90.6883 77.8047C91.0138 77.7378 91.4106 77.7111 91.7554 77.7438C91.3853 78.3992 90.9721 79.1557 90.6363 79.8453C90.5307 79.0427 90.2677 78.2728 89.8218 77.5877C91.0301 75.3807 94.2225 73.9613 94.1512 77.6457L94.1497 77.6471ZM87.8555 90.0021C87.8065 90.4197 87.8555 90.8492 87.8764 91.2698C84.4967 90.1135 81.2062 88.1711 79.3663 85.0574C82.5676 84.6799 85.6946 83.598 88.9405 84.3128C88.4322 86.1201 88.0859 88.07 87.857 90.0036L87.8555 90.0021ZM89.5513 83.9056H89.5469C89.5573 83.9056 89.5573 83.9086 89.5513 83.9056C89.5974 83.9294 89.5513 83.9056 89.5513 83.9056Z" fill="#A55C45"/>
<path d="M89.2974 71.9936C88.8605 69.2396 84.546 69.9917 85.0647 72.7263C85.5016 75.4803 89.8146 74.7282 89.2974 71.9936ZM86.6802 72.7293C85.7677 72.9002 85.518 71.463 86.4365 71.3189C87.349 71.1465 87.5972 72.5851 86.6802 72.7293Z" fill="#05171D"/>
<path d="M75.51 72.625C71.851 72.6993 72.0471 78.4405 75.7017 78.2637C79.3608 78.1894 79.1646 72.4481 75.51 72.625ZM74.8739 75.8426C73.6314 75.9036 73.5646 73.9522 74.8085 73.9284C76.0495 73.8675 76.1164 75.8189 74.8739 75.8426Z" fill="#05171D"/>
<path d="M68.214 69.3704C68.5945 68.767 69.0002 68.1769 69.4431 67.6137C68.7847 67.5483 68.1843 67.0489 67.7681 66.5793C67.7325 67.2436 68.0698 67.9793 68.6004 68.4043C66.9299 67.8797 65.1078 66.8958 64.2874 65.2863C63.9575 67.5096 66.0263 69.1668 68.0832 69.3644C66.0887 69.6959 63.7479 69.2099 62.2944 67.7504C62.8398 69.9381 65.5611 70.8343 67.5883 70.4449C67.777 70.0971 68.0089 69.7092 68.214 69.3704Z" fill="#235A70"/>
<path d="M90.3851 63.47C90.9662 62.5753 90.8027 61.208 90.1384 60.4099C90.1309 61.0847 89.8099 62.235 89.3789 62.877C89.7282 63.0524 90.0641 63.253 90.3851 63.47Z" fill="#235A70"/>
<path d="M95.0061 60.2628C94.419 61.9898 93.1602 63.5696 91.4585 64.286C91.7364 64.5208 92.0009 64.766 92.2566 65.0157C94.6642 64.0199 96.1148 60.9524 95.3717 58.4749C95.3553 58.9817 95.1993 59.7337 95.0061 60.2643V60.2628Z" fill="#235A70"/>
<path d="M91.4313 63.8132C92.4642 62.489 92.7793 60.4826 92.2977 58.8983C91.9574 60.4306 91.4253 62.223 90.4087 63.4863C90.6792 63.6691 90.9393 63.8623 91.1905 64.0629C91.2678 63.9901 91.3495 63.9084 91.4313 63.8132Z" fill="#235A70"/>
<path d="M68.8708 106.88C67.3771 103.411 63.9737 100.51 60.2314 99.991C59.8658 98.3636 60.7962 95.9916 59.6741 94.657C56.2677 92.0546 53.1303 96.0421 50.6111 98.0069C46.4913 102.15 40.5034 104.821 36.9453 109.519C36.2676 110.203 35.3729 112.555 37.2708 111.515C38.0154 111.6 37.5785 113.397 37.8668 114.03C37.9054 115.302 39.1018 115.977 39.0513 114.253C39.1791 113.367 39.8375 112.798 40.166 113.953C40.9938 115.335 42.318 116.378 43.7656 117.051C45.5149 117.72 47.3905 118.172 49.1665 118.71C50.6275 120.609 53.6281 123.218 56.0507 121.428C57.2828 119.712 57.4225 119.732 59.4541 119.891C61.2183 119.254 60.6208 115.207 63.2128 116.906C69.0417 119.432 70.9619 110.962 68.8723 106.878L68.8708 106.88Z" fill="#1D9DCC"/>
<path d="M70.0735 109.297C69.3185 104.446 64.7855 100.273 59.9523 99.6742C59.285 100.263 58.588 100.866 57.8761 101.395C57.9177 101.143 58.3234 100.113 57.9712 100.218C57.0111 102.843 54.0149 103.601 51.7573 104.739C49.1951 105.023 46.4917 105.783 44.2281 106.974C46.4827 107.116 50.9042 106.013 53.2525 104.921C55.8147 103.925 58.2045 102.482 60.2882 100.689C72.7323 103.04 70.2756 121.056 62.5978 116.085C63.4226 112.805 62.4729 109.382 63.0392 106.083C62.7538 105.72 62.5829 107.57 62.4715 107.946C60.7058 101.043 64.411 120.353 57.7379 119.216C58.0916 116.925 58.2253 113.813 57.616 111.907C57.2831 116.981 57.616 125.87 50.066 119.514C50.7244 119.536 51.3932 119.466 52.0234 119.291C52.3102 119.856 52.9002 120.174 53.4516 120.429C53.5556 120.454 54.061 120.75 53.9346 120.45C53.4769 120.059 52.9329 119.633 52.7888 119.022C53.5943 118.726 54.4533 117.843 54.1754 116.98C54.1531 116.894 54.0223 116.885 53.9911 116.971C52.2255 119.786 47.7297 118.215 45.2923 117.1C44.885 116.824 44.5581 116.828 44.7944 117.195C41.7149 116.292 39.1468 113.459 39.6432 110.125C39.6506 110.024 39.499 110.02 39.4841 110.112C38.8049 111.337 39.2553 112.797 38.8599 114.108C38.7336 115.262 38.4586 115.175 38.1242 114.111C37.607 112.686 37.9726 111.178 38.4735 109.871C38.5255 109.727 38.4334 109.599 38.3353 109.721C37.876 110.414 37.3306 111.54 36.3586 111.562C39.4797 105.664 46.725 102.917 51.2 98.0438C53.5482 96.0894 57.5432 92.2223 60.1143 95.6317C60.3283 96.0092 60.4101 95.6941 60.306 95.4504C59.8795 93.6045 57.4674 92.7737 55.7865 93.6312C52.389 95.1398 50.0184 98.2712 47.0772 100.502C43.8685 103.146 40.034 105.138 37.3752 108.372C37.3752 108.372 37.341 108.41 37.3529 108.397C36.482 109.333 34.645 113.175 37.4317 111.662C36.4953 113.37 38.799 117.907 39.3697 114.04C40.303 116.522 43.0362 118.027 45.6088 117.983C46.6269 118.788 47.9154 119.233 49.2025 119.432C49.2887 122.748 56.6722 124.201 57.4555 120.227C59.8097 121.311 61.8636 118.931 62.3868 116.84C67.1635 120.807 70.6457 113.425 70.0735 109.294V109.297Z" fill="#235A70"/>
<path d="M52.2747 112.827C55.1565 110.082 56.0274 103.568 60.3196 102.15C56.7081 101.868 55.2768 106.168 54.1176 108.926C53.5365 110.157 52.7295 111.597 52.1454 112.729C52.0919 112.807 52.2093 112.906 52.2732 112.826L52.2747 112.827Z" fill="#235A70"/>
<path d="M117.921 38.5372C119.186 38.4346 119.914 35.6584 120.33 32.8257C109.166 19.4735 88.4063 15.4547 75.4034 19.2788C65.1024 22.3092 53.776 31.8656 47.8965 43.6067C52.1887 43.0166 58.7117 42.3701 60.409 43.5829C62.9965 45.4318 70.7857 47.89 70.7857 47.89C71.1305 48.2838 85.2243 42.6496 83.2506 38.4242C82.4629 36.7374 93.3911 33.3741 93.3911 33.3741C93.3911 33.3741 94.3913 39.0915 98.1841 38.8924C101.977 38.6932 110.948 36.8815 110.948 36.8815C110.948 36.8815 115.317 38.7497 117.923 38.5372H117.921Z" fill="#FFE15B" stroke="#FF7D00" stroke-width="1.50328" stroke-linecap="round" stroke-linejoin="round"/>
<g style="mix-blend-mode:multiply" opacity="0.18">
<path d="M65.8809 23.7493C65.8809 23.7493 90.0498 18.6531 102.09 28.2719C114.13 37.8907 103.35 35.2853 103.35 35.2853L98.1839 38.8924L110.948 36.8815C110.948 36.8815 116.291 39.958 117.923 38.5372C119.553 37.1164 120.332 32.8257 120.332 32.8257C120.332 32.8257 96.9042 7.28352 65.8824 23.7493H65.8809Z" fill="#E14837"/>
</g>
<path d="M78.4635 25.7647C79.11 26.0427 79.7357 26.3473 80.3376 26.6951C80.669 26.8853 81.4196 27.1915 81.3155 27.7251C81.2769 27.9227 80.9395 28.2304 80.837 28.428C80.3881 29.293 80.6616 30.0436 81.3215 30.4656C81.6633 30.6841 82.0928 30.7733 82.5209 30.8209C83.5969 30.9397 83.8659 31.3306 84.1587 32.2714C84.392 33.0175 84.7338 33.7353 84.6432 34.5854C84.5391 35.5559 83.8243 36.3912 83.0916 37.1581C82.7899 37.4746 83.4022 37.6693 83.6385 37.54C84.4425 37.1001 85.1842 35.9587 85.4398 35.1487C85.7816 34.0638 85.254 33.0977 84.9701 32.1911C84.7769 31.5699 84.6878 30.7436 84.0918 30.4196C83.7009 30.207 83.2402 30.3126 82.7899 30.2516C80.6913 29.9663 81.6083 28.8799 82.1835 27.5586C82.237 27.4338 82.1552 27.3178 82.0601 27.2733C80.883 26.7293 79.8382 26.0397 78.5943 25.5894C78.4665 25.5433 78.3178 25.7038 78.4635 25.7677V25.7647Z" fill="#FF7D00" stroke="#FF7D00" stroke-width="0.300123" stroke-miterlimit="10"/>
<path d="M75.3887 19.9907C75.3887 19.9907 86.5338 21.3833 89.4364 27.3059C89.4364 27.3059 96.2403 19.7158 91.5885 12.7097C86.9366 5.7037 70.9464 4.25315 64.5542 24.4657" fill="url(#paint1_linear_110_931)"/>
<path d="M75.3887 19.9907C75.3887 19.9907 86.5338 21.3833 89.4364 27.3059C89.4364 27.3059 96.2403 19.7158 91.5885 12.7097C86.9366 5.7037 70.9464 4.25315 64.5542 24.4657" stroke="#BB1E2E" stroke-width="1.50328" stroke-linecap="round" stroke-linejoin="round"/>
<path d="M74.4477 20.1246C64.5035 23.0495 53.5708 32.2745 47.895 43.6084L74.4477 20.1246Z" fill="#FFE15B"/>
<path d="M74.4477 20.1246C64.5035 23.0495 53.5708 32.2745 47.895 43.6084" stroke="#FF7D00" stroke-width="1.50328" stroke-linecap="round" stroke-linejoin="round"/>
<path d="M101.027 109.947C101.027 109.947 113.105 104.686 116.861 108.724C120.153 112.263 110.64 119.225 125.358 118.201C129.008 117.947 131.538 123.094 131.538 123.094C131.538 123.094 137.331 115.757 138.102 110.864C138.498 108.358 142.339 108.34 145.992 108.919C143.982 145.191 112.402 156.574 87.3196 156.574C62.2367 156.574 31.5894 140.579 31.2476 105.008C36.0911 105.985 43.1982 107.688 45.4186 109.641C48.8949 112.698 51.2119 119.731 51.2119 119.731L57.7765 118.814C57.7765 118.814 55.4595 126.457 56.6173 129.21C57.7765 131.961 71.2922 127.07 72.8364 122.483C72.8364 122.483 78.3309 121.814 79.1885 117.55L92.5763 115.34C92.5763 115.34 96.1878 111.255 101.027 109.947Z" fill="#FFE15B" stroke="#FF7D00" stroke-width="1.50328" stroke-linecap="round" stroke-linejoin="round"/>
<path d="M92.3221 115.555C93.1127 115.706 92.8541 115.801 92.9344 115.926C93.135 116.757 93.7043 116.589 94.4251 116.819C95.9009 117.393 96.2828 118.827 96.7436 120.114L96.7673 120.184C96.7213 120.013 96.4062 119.865 96.3215 119.903C96.2397 119.917 96.2442 119.924 96.1922 119.958C96.3036 119.877 96.4508 119.374 96.6975 119.209C96.9279 119.001 97.3648 118.98 97.6175 119.187C97.7319 119.269 97.8181 119.395 97.8865 119.508C98.4007 120.49 98.744 121.495 99.2151 122.449C99.178 122.366 98.9655 122.26 98.8584 122.284C100.603 122.198 101.96 123.802 102.249 125.365C102.442 126.157 102.232 126.779 102.699 127.406C103.739 128.433 104.453 130.389 105.509 130.442C106.166 130.423 106.942 129.761 107.758 129.867C109.155 130.007 109.921 130.885 111.086 131.249C112.055 131.542 113.15 131.786 113.901 132.553C114.357 132.927 114.347 133.875 114.571 134.229C115.139 135.06 116.279 135.522 117.276 135.195C117.453 135.143 117.64 135.246 117.691 135.422C117.743 135.601 117.639 135.788 117.462 135.839C116.192 136.259 114.731 135.732 113.959 134.623C113.672 134.171 113.672 133.725 113.563 133.422C113.128 132.481 111.795 132.318 110.863 132.032C109.439 131.685 108.219 130.227 106.804 131.028C104.31 132.486 103.216 129.534 101.797 128.06C101.219 127.433 101.244 126.339 101.095 125.622C100.844 124.572 100.055 123.527 98.9268 123.577C98.5211 123.622 98.1376 123.289 98.0009 122.947C97.5238 122.039 97.1478 121.052 96.6737 120.207C96.8015 120.401 97.1612 120.477 97.3247 120.424C97.4718 120.389 97.6085 120.296 97.6784 120.195C97.564 120.474 97.4465 120.816 97.0468 121.138C96.592 121.5 95.8028 121.473 95.4654 120.944C95.2499 120.574 95.1072 120.149 94.8932 119.783C94.6376 119.333 94.2898 118.735 93.8469 118.64C93.5155 118.585 93.0206 118.588 92.5985 118.392C92.007 118.142 91.5299 117.661 91.2817 117.137C91.1524 116.876 91.0647 116.607 91.0112 116.339C91.0082 116.082 90.7125 115.785 91.5032 115.546C91.7781 115.455 92.0545 115.491 92.3206 115.55L92.3221 115.555Z" fill="#FF7D00"/>
<path d="M130.613 132.689C131.119 131.925 131.637 131.124 131.66 130.296C131.679 129.904 131.529 129.369 131.771 128.795C132.125 128.028 132.703 127.758 133.033 127.111C133.865 125.695 132.401 124.733 131.241 123.987C130.922 123.785 130.827 123.363 131.031 123.047C131.244 122.712 131.706 122.632 132.019 122.874C132.819 123.51 133.629 124.133 134.088 125.124C134.611 126.177 134.118 127.455 133.3 128.189C132.944 128.523 132.587 128.8 132.422 129.1C132.245 129.384 132.299 129.821 132.248 130.342C132.106 131.401 131.447 132.168 130.884 132.887C130.758 133.052 130.494 132.865 130.613 132.691V132.689Z" fill="#FF7D00"/>
<path d="M50.8065 120.447C50.0084 120.123 48.442 120.447 47.8222 121.245C47.4165 121.731 47.0182 122.461 46.5872 122.956C46.3776 123.217 46.2171 123.463 46.174 123.632C46.1368 123.8 46.1398 123.877 46.3241 124.149C46.6555 124.579 47.0405 125.193 47.1356 125.806C47.3749 127.241 45.691 127.406 44.6922 127.605L44.6313 127.618C44.6373 127.618 44.6729 127.603 44.6967 127.587C44.7814 127.527 44.8201 127.444 44.8022 127.357C44.7992 127.346 44.8171 127.431 44.823 127.464C45.0593 128.636 45.1723 129.972 45.5186 131.105C45.5721 131.282 45.4725 131.469 45.2956 131.522C45.1247 131.574 44.9449 131.482 44.884 131.317C44.6283 130.623 44.4634 129.907 44.3118 129.208L44.0844 128.173C44.0517 128.054 43.9506 127.621 43.9194 127.514C43.8392 127.159 44.0978 126.774 44.4634 126.713C44.7636 126.613 45.9912 126.38 46.0848 126.144C46.1056 126.144 46.0848 125.893 45.9347 125.627C45.7148 125.133 45.2332 124.811 45.0252 124.221C44.7398 123.522 45.1946 122.645 45.5468 122.188C46.3226 121.083 46.8577 119.634 48.2725 119.156C49.2772 118.781 50.2507 118.46 51.4947 118.904C52.59 119.346 51.8722 120.964 50.8095 120.447H50.8065Z" fill="#FF7D00"/>
<g style="mix-blend-mode:multiply" opacity="0.18">
<path d="M54.4829 149.179C54.4829 149.179 46.6714 127.431 54.0103 129.345C65.8882 132.444 73.8171 148.306 73.8171 148.306C73.8171 148.306 95.4669 153.731 108.191 143.498C109.036 139.979 114.388 129.555 125.232 129.039C129.539 128.834 126.264 135.237 126.264 135.237C126.264 135.237 133.495 132.655 145.991 108.92C145.373 130.072 122.134 174.483 54.4829 149.179Z" fill="#E14837"/>
</g>
<path d="M127.523 160.826C125.227 166.068 128.08 182.77 128.08 182.77C128.08 182.77 142.293 173.545 144.589 168.303C144.671 168.116 144.748 167.927 144.821 167.739C148.063 159.306 131.781 152.174 127.78 160.273C127.691 160.455 127.605 160.64 127.523 160.828V160.826Z" fill="#FFCF00"/>
<path d="M130.527 163.219C128.467 167.922 130.665 176.873 130.665 176.873C130.665 176.873 138.735 172.419 140.795 167.716C140.868 167.549 140.939 167.381 141.007 167.211C144.027 159.697 134.232 155.406 130.755 162.72C130.677 162.883 130.601 163.05 130.528 163.218L130.527 163.219Z" fill="#FFA600"/>
<path d="M132.377 160.618C131.29 163.099 132.12 166.079 134.278 168.624C137.613 168.485 140.365 167.076 141.452 164.594C141.49 164.505 141.527 164.415 141.56 164.326C143.072 160.325 134.414 156.533 132.499 160.357C132.456 160.443 132.414 160.529 132.375 160.618H132.377Z" fill="#FF7E00"/>
<path d="M138.673 148.143C138.673 148.143 130.268 130.8 125.289 128.889C115.553 137.074 114.348 147.293 114.348 147.293C114.348 147.293 125.392 147.865 131.655 155.844C136.818 153.52 138.673 148.143 138.673 148.143Z" fill="url(#paint2_linear_110_931)" stroke="#BB1E2E" stroke-width="1.50328" stroke-linecap="round" stroke-linejoin="round"/>
<path d="M126.8 161.843L127.451 159.707C128 157.907 129.905 156.892 131.705 157.441L146.943 162.085C148.743 162.634 149.758 164.539 149.21 166.339L148.526 168.58C148.067 170.084 146.643 171.074 145.072 170.989C141.645 170.805 135.352 169.851 128.337 165.78C126.973 164.988 126.341 163.351 126.8 161.843Z" fill="#00A4E1" stroke="#3C3CB2" stroke-width="1.35255" stroke-miterlimit="10"/>
<path d="M126.664 160.688C125.669 160.028 125.322 158.729 125.831 157.652L136.306 135.483C136.687 134.707 137.228 134.067 137.833 133.59C138.558 133.004 139.393 132.627 140.251 132.456C142.156 132.058 144.234 132.604 145.635 134.241C153.647 143.356 152.345 160.236 151.631 165.949C151.483 167.128 150.498 168.027 149.312 168.058C145.53 168.153 136.871 167.465 126.665 160.691L126.664 160.688Z" fill="url(#paint3_linear_110_931)" stroke="#BB1E2E" stroke-width="1.50328" stroke-linecap="round" stroke-linejoin="round"/>
<path d="M29.8665 168.98C32.6591 174.623 48.7548 184.032 48.7548 184.032C48.7548 184.032 51.0332 165.529 48.2406 159.886C48.141 159.683 48.037 159.486 47.9285 159.29C43.1146 150.592 25.5862 159.269 29.5826 168.37C29.6718 168.574 29.7669 168.778 29.8665 168.98Z" fill="#FFCF00"/>
<path d="M34.0084 168.141C36.5141 173.203 45.6127 177.684 45.6127 177.684C45.6127 177.684 47.5671 167.731 45.0629 162.671C44.9737 162.489 44.8815 162.311 44.7879 162.134C40.5908 154.273 30.0446 159.493 33.7498 167.597C33.833 167.779 33.9192 167.962 34.0084 168.141Z" fill="#FFA600"/>
<path d="M33.1243 164.741C34.447 167.412 37.5443 168.819 41.2168 168.801C43.458 165.893 44.2174 162.576 42.8947 159.905C42.8472 159.81 42.7981 159.716 42.7461 159.624C40.4439 155.519 31.1239 160.134 32.9906 164.453C33.0322 164.549 33.0768 164.646 33.1243 164.741Z" fill="#FF7E00"/>
<path d="M39.0176 149.017C39.0176 149.017 47.4221 131.674 52.401 129.763C62.1372 137.947 63.3425 148.167 63.3425 148.167C63.3425 148.167 52.2984 148.739 46.0355 156.718C40.8724 154.394 39.0176 149.017 39.0176 149.017Z" fill="url(#paint4_linear_110_931)" stroke="#BB1E2E" stroke-width="1.50328" stroke-linecap="round" stroke-linejoin="round"/>
<path d="M51.0141 163.124L49.2455 157.32L27.4873 163.952L29.2856 169.852C29.6661 171.102 30.8417 171.93 32.1466 171.882C35.4995 171.759 42.2216 170.888 49.7181 166.437C50.8595 165.759 51.399 164.393 51.0126 163.123L51.0141 163.124Z" fill="#00A4E1" stroke="#3C3CB2" stroke-width="1.35255" stroke-miterlimit="10"/>
<path d="M50.8163 161.702C51.9266 160.972 52.3412 159.544 51.7735 158.343L41.3848 136.357C41.0043 135.581 40.4633 134.941 39.8585 134.464C39.1332 133.878 38.2979 133.501 37.4404 133.33C35.5351 132.931 33.4573 133.478 32.0558 135.115C24.1417 144.12 25.3143 160.701 26.0337 166.611C26.1942 167.926 27.2955 168.916 28.6197 168.937C32.4928 168.996 40.9122 168.21 50.8149 161.703L50.8163 161.702Z" fill="url(#paint5_linear_110_931)" stroke="#BB1E2E" stroke-width="1.50328" stroke-linecap="round" stroke-linejoin="round"/>
<path d="M159.455 56.9523C158.01 57.0325 156.686 57.0177 155.385 56.8899C153.915 56.7458 152.474 56.4591 150.922 56C151.214 56.0862 149.061 63.8191 148.662 64.614C147.75 63.2501 145.989 62.6751 144.401 62.6113C142.447 62.5325 141.25 63.7537 142.532 65.4563C143.654 66.945 145.337 67.3134 147.081 67.1396C149.121 66.9375 149.354 65.9763 150.017 64.1549C150.583 62.5994 151.202 59.2566 151.202 59.2566C151.956 59.7023 152.936 60.1213 153.989 60.4273C155.365 60.827 156.864 61.0305 158.14 60.8374C157.695 63.4477 157.384 66.4889 157.16 66.9346C156.248 65.5707 154.487 64.9958 152.899 64.9319C150.945 64.8531 149.748 66.0744 151.03 67.777C152.152 69.2656 153.835 69.634 155.579 69.4602C157.619 69.2582 158.169 68.2984 158.515 66.4755C158.861 64.6526 159.81 57.9878 159.455 56.9553V56.9523Z" fill="#93E777" stroke="#008B00" stroke-width="0.541555" stroke-linecap="round" stroke-linejoin="round"/>
<path d="M165.352 31.9777C164.655 31.5929 163.863 31.4532 163.115 31.7786C162.243 32.1574 161.373 32.768 160.675 33.4084C160.64 33.4411 160.605 33.4737 160.571 33.5064C160.368 33.0488 160.167 32.5913 159.974 32.1307C159.953 32.0817 159.934 32.0312 159.913 31.9821C160.05 31.7578 160.188 31.5349 160.326 31.3106C160.972 30.2617 161.431 29.1029 161.831 27.9396C162.333 26.4777 162.593 24.9578 162.489 23.4083C162.364 21.5646 161.901 19.6079 160.643 18.1921C159.956 17.4195 158.747 16.5563 157.734 17.2606C157.659 17.3111 157.592 17.369 157.527 17.4299C156.78 18.1223 156.548 19.3851 156.377 20.3181C155.827 23.3117 156.235 26.4703 157.001 29.3822C157.282 30.4474 157.616 31.4978 157.988 32.5348C157.306 33.7189 156.646 34.949 156.291 36.2579C155.814 38.0125 155.875 39.9988 156.838 41.5885C157.591 42.832 158.867 43.563 160.292 43.7175C161.014 43.7962 161.739 43.7427 162.445 43.5882C162.517 43.7576 162.59 43.927 162.665 44.0963C162.849 44.5168 163.026 44.9476 163.235 45.3562C163.237 45.3621 163.239 45.3681 163.241 45.374C163.085 45.4587 163.296 45.3577 163.144 45.475C163.109 45.5018 162.981 45.5716 162.935 45.6013C162.893 45.6132 162.822 45.634 162.809 45.637C162.752 45.6474 162.697 45.6578 162.641 45.6652C162.538 45.059 162.234 43.9522 161.458 43.9849C160.151 44.0399 159.952 45.5449 160.081 46.5833C160.206 47.5847 160.705 48.6187 161.553 49.1996C162.682 49.9737 163.972 49.6156 164.71 48.6648C164.926 48.3884 165.095 48.0616 165.199 47.6976C165.519 46.5863 165.471 45.4364 165.202 44.3192C165.073 43.7784 164.853 43.2629 164.615 42.7562C165.673 42.1441 166.432 41.2438 166.96 40.1221C168.153 37.5846 168.11 33.4975 165.354 31.9777H165.352ZM161.957 47.705C161.957 47.705 161.96 47.705 161.962 47.7035C161.996 47.6917 162.014 47.6872 161.957 47.705ZM161.792 45.3978C161.653 45.2314 161.736 45.3517 161.792 45.3978V45.3978ZM158.224 26.7288C158.176 26.5134 158.205 26.6367 158.224 26.7288V26.7288ZM160.64 22.3876C160.637 22.3743 160.634 22.3624 160.631 22.349C160.65 22.3965 160.65 22.4025 160.64 22.3876ZM158.109 22.1083C158.109 22.1083 158.092 22.1841 158.078 22.2495C158.083 22.19 158.092 22.1232 158.109 22.1083ZM158.069 22.346C158.071 22.3341 158.072 22.3133 158.075 22.2881C158.078 22.2762 158.083 22.2613 158.087 22.245C158.126 22.0964 158.157 21.9464 158.2 21.7978C158.233 21.6864 158.28 21.5764 158.309 21.465C158.212 21.835 158.298 21.5022 158.361 21.3863C158.401 21.309 158.447 21.2377 158.494 21.1664C158.429 21.2719 158.56 21.1114 158.64 21.0371C158.675 21.0045 158.736 20.9777 158.769 20.9644C158.826 20.948 158.882 20.9346 158.943 20.9302C158.999 20.9257 159.053 20.9302 159.109 20.9302C159.112 20.9302 159.114 20.9302 159.115 20.9302C159.12 20.9317 159.123 20.9332 159.129 20.9346C159.267 20.9822 159.396 21.0312 159.524 21.101C159.793 21.2481 159.901 21.3373 160.133 21.5764C160.203 21.6478 160.264 21.725 160.332 21.7978C160.336 21.8023 160.339 21.8052 160.342 21.8097C160.393 21.887 160.443 21.9642 160.491 22.0444C160.506 22.0682 160.544 22.1573 160.57 22.2093C160.57 22.2049 160.57 22.2019 160.57 22.1989C160.576 22.2153 160.582 22.2316 160.588 22.2465C160.595 22.2584 160.592 22.2465 160.571 22.193C160.571 22.1885 160.574 22.1856 160.579 22.1841C160.579 22.1841 160.595 22.242 160.611 22.3C160.611 22.3 160.611 22.3029 160.611 22.3044C160.613 22.3074 160.614 22.3104 160.616 22.3133C160.622 22.3356 160.628 22.3564 160.632 22.3743C160.626 22.3624 160.619 22.349 160.611 22.3327C160.613 22.4797 160.68 22.6966 160.695 22.8125C160.698 22.8393 160.706 22.8779 160.715 22.9121C160.712 22.8987 160.708 22.8853 160.703 22.869C160.617 22.5704 160.703 22.9626 160.705 23.0606C160.712 23.4335 160.69 23.8064 160.681 24.1808C160.681 24.1868 160.681 24.1912 160.681 24.1972C160.675 24.2685 160.671 24.3383 160.665 24.4096C160.644 24.6592 160.611 24.9073 160.583 25.1569C160.498 25.928 160.402 26.6857 160.24 27.4449C160.136 27.9337 159.889 28.7612 159.649 29.3644C159.524 29.6734 159.389 29.975 159.246 30.2721C159.191 30.1235 159.136 29.9765 159.084 29.8279C159.084 29.8234 159.008 29.6065 158.974 29.5085C158.946 29.4208 158.882 29.2277 158.875 29.2009C158.704 28.6587 158.552 28.109 158.417 27.5563C158.358 27.3112 158.303 27.0645 158.248 26.8164C158.243 26.7941 158.239 26.7763 158.234 26.7585C158.202 26.5787 158.17 26.399 158.141 26.2177C158.095 25.9354 158.054 25.6546 158.02 25.3709C158.005 25.2446 157.991 25.1183 157.979 24.992C157.973 24.9341 157.959 24.7395 157.955 24.7097C157.949 24.579 157.943 24.4497 157.942 24.319C157.939 24.0947 157.94 23.8718 157.945 23.6475C157.945 23.6415 157.945 23.6356 157.945 23.6297C157.945 23.6326 157.942 23.6341 157.942 23.6371C157.942 23.6341 157.945 23.6311 157.945 23.6282C157.946 23.5613 157.949 23.4945 157.95 23.4276C157.953 23.3429 157.965 23.331 157.974 23.3578C157.974 23.285 157.97 23.2151 157.974 23.1661C157.998 22.8928 158.029 22.6194 158.072 22.3475L158.069 22.346ZM159.206 40.9303C158.678 40.7669 158.206 40.5099 157.82 40.1132C157.462 39.7463 157.254 39.3377 157.156 38.8905C157.168 38.9187 157.13 38.6454 157.127 38.6617C157.117 38.5072 157.116 38.3468 157.127 38.1937C157.15 37.9278 157.214 37.5965 157.289 37.3127C157.48 36.5966 157.747 35.8924 158.074 35.2283C158.246 34.8777 158.427 34.533 158.615 34.1928C158.754 34.5449 158.898 34.8955 159.044 35.2432C158.713 35.674 158.407 36.1004 158.254 36.6427C158.007 37.5237 158.141 38.6216 158.84 39.2664C159.322 39.7106 159.592 38.9321 159.623 38.5756C159.658 38.1893 159.591 37.7064 159.365 37.3558C159.432 37.1107 159.519 36.8626 159.622 36.6308C160.238 38.1209 160.833 39.617 161.427 41.119C160.659 41.1993 159.891 41.1428 159.206 40.9303ZM159.289 37.6619C159.276 37.7213 159.32 37.6723 159.289 37.6619V37.6619ZM163.289 45.3012C163.289 45.3012 163.289 45.2923 163.289 45.2864C163.293 45.2715 163.296 45.2596 163.299 45.2477C163.305 45.2433 163.299 45.27 163.289 45.2997V45.3012ZM166.241 36.2683C166.239 36.4109 166.241 36.5521 166.236 36.6947C166.235 36.7452 166.235 36.7749 166.235 36.7927C166.232 36.8017 166.229 36.8225 166.223 36.8611C166.166 37.2251 166.122 37.4286 166.053 37.6425C165.869 38.2086 165.697 38.5756 165.376 39.0331C164.942 39.6527 164.311 40.1504 163.583 40.5069C162.816 38.7449 162.091 36.9636 161.324 35.2016C161.275 35.0872 161.223 34.9743 161.174 34.8614C161.766 34.4127 162.437 34.0383 163.198 34.0799C163.878 34.1185 164.651 34.2938 165.248 34.6385C165.409 34.7306 165.602 34.8881 165.759 35.05C165.706 34.9995 165.899 35.2283 165.92 35.2566C165.96 35.3145 166.073 35.524 166.055 35.4779C166.082 35.5329 166.105 35.5879 166.131 35.6443C166.104 35.5968 166.184 35.8434 166.206 35.9088C166.089 35.5775 166.206 35.9429 166.221 36.0529C166.23 36.1197 166.236 36.1881 166.245 36.2549C166.245 36.2594 166.245 36.2624 166.245 36.2683H166.241Z" fill="#FF8945" stroke="#E45106" stroke-width="0.750974" stroke-linecap="round" stroke-linejoin="round"/>
<path d="M21.0301 121.378C21.6972 122.207 25.1662 124.798 26.9044 125.357C27.625 124.097 28.1821 123.103 28.8061 121.653C26.6504 120.887 23.6805 118.841 21.9542 117.556C21.6764 117.349 21.4268 117.159 21.2217 117C21.4996 117.215 18.4183 126.305 17.9592 127.116C17.2713 125.173 15.7158 123.882 14.2732 123.271C12.5157 122.528 11.3658 123.604 12.379 126.033C13.2526 128.125 14.7011 129.114 16.264 129.512C16.5196 129.578 16.7424 129.612 16.9445 129.621C18.2118 129.682 18.5505 128.689 19.2621 127.036C19.9871 125.352 21.0301 121.378 21.0301 121.378Z" fill="#FF8945" stroke="#E45106" stroke-width="0.750974" stroke-linecap="round" stroke-linejoin="round"/>
<path d="M5.51479 112.51C4.49265 112.51 3.60273 111.916 3.03668 111.418C0.999817 109.626 0.866108 106.827 2.71429 104.612C2.84206 104.459 2.97874 104.306 3.13474 104.144C4.1866 103.048 5.46428 102.214 6.9039 101.314C8.00478 100.626 9.14875 99.9796 10.2571 99.3527L10.9049 98.9857C11.8616 98.4419 12.8466 97.8833 13.8212 97.3113C13.7886 97.292 13.7544 97.2712 13.7202 97.2519C12.4916 96.5224 11.2228 95.7692 9.94953 95.5716C9.84256 95.5553 9.72668 95.5464 9.60634 95.5464C8.61688 95.5464 7.47291 96.0812 6.88755 96.8196C6.52356 97.2772 6.40025 97.7674 6.51762 98.2755C6.56368 98.4746 6.45819 98.6797 6.26951 98.7569C6.21751 98.7777 6.16403 98.7881 6.11055 98.7881C5.96941 98.7881 5.83272 98.7168 5.75398 98.589C5.0468 97.4436 5.04383 95.9906 5.74358 94.7025C6.49385 93.3223 7.86216 92.4457 9.31366 92.4146C9.35378 92.4146 9.39389 92.4146 9.434 92.4146C11.0505 92.4146 12.5525 93.1262 14.004 93.8141C15.1361 94.3504 16.3068 94.9045 17.4983 95.0962C17.6127 95.0665 17.7301 95.0516 17.8341 95.0516C17.9143 95.0516 17.9901 95.0605 18.0569 95.0784C18.259 95.1333 18.4031 95.27 18.4506 95.4557C18.5071 95.6726 18.4209 95.8925 18.1936 96.1109C17.1254 97.1375 15.8239 97.9071 14.5641 98.6529C14.4007 98.7495 14.2372 98.846 14.0753 98.9426C13.2567 99.4314 12.4173 99.9157 11.6061 100.384C10.636 100.944 9.63308 101.522 8.65997 102.112C7.62148 102.74 6.45374 103.472 5.41376 104.353C6.04072 104.706 6.53396 105.288 6.8935 105.71C7.57394 106.512 8.37917 107.806 8.34797 109.421C8.31975 110.904 7.42685 112.116 6.12837 112.438C5.92929 112.488 5.7213 112.513 5.51479 112.513V112.51Z" fill="#4A6ED0"/>
<path d="M9.43273 92.8335C12.2273 92.8335 14.7069 95.114 17.5237 95.5225C17.6292 95.4884 17.7406 95.4691 17.8327 95.4691C17.8758 95.4691 17.9145 95.4735 17.9471 95.4824C18.0719 95.5151 18.1031 95.6161 17.9026 95.8078C16.7333 96.9324 15.2417 97.757 13.86 98.5815C12.0639 99.6542 10.232 100.666 8.44327 101.75C7.11359 102.556 5.7646 103.422 4.62657 104.493C5.42289 104.652 6.06173 105.376 6.57429 105.979C7.38547 106.934 7.95449 108.133 7.92923 109.411C7.90694 110.601 7.23245 111.731 6.02608 112.03C5.85374 112.073 5.68289 112.092 5.51203 112.092C4.69491 112.092 3.91642 111.638 3.31026 111.104C1.35808 109.387 1.41603 106.818 3.03244 104.881C3.16021 104.728 3.29392 104.579 3.43357 104.435C4.49137 103.333 5.84483 102.468 7.12399 101.67C8.42693 100.856 9.77295 100.11 11.1101 99.3526C12.254 98.7034 13.398 98.0526 14.5301 97.3811C14.5687 97.3588 14.6073 97.3365 14.6475 97.3128C13.2301 96.4986 11.633 95.4111 10.0121 95.16C9.88141 95.1392 9.74621 95.1303 9.60507 95.1303C7.93814 95.1303 5.67546 96.509 6.10928 98.3736C4.69194 96.0767 6.67383 92.8944 9.32131 92.8364C9.35845 92.8364 9.39559 92.8364 9.43125 92.8364M9.43125 92C9.38816 92 9.34656 92 9.30348 92C7.70192 92.0342 6.19693 92.9954 5.37535 94.5063C4.6028 95.9281 4.61023 97.5386 5.39764 98.8133C5.55363 99.0674 5.827 99.2115 6.11076 99.2115C6.21773 99.2115 6.3247 99.1907 6.4287 99.1476C6.80754 98.9916 7.01851 98.583 6.92491 98.1849C6.83577 97.8016 6.93085 97.4406 7.21462 97.084C7.71975 96.4481 8.74784 95.9697 9.60656 95.9697C9.7061 95.9697 9.79969 95.9772 9.88586 95.9905C10.9095 96.1495 11.9628 96.7096 12.9954 97.3143C12.2243 97.7615 11.4533 98.1982 10.6985 98.6261C10.4831 98.7479 10.2662 98.8713 10.0493 98.9931C8.938 99.6215 7.78958 100.271 6.68275 100.963C5.21936 101.878 3.9179 102.727 2.83336 103.859C2.67142 104.028 2.52731 104.187 2.3936 104.349C1.46357 105.465 0.968839 106.797 1.00152 108.1C1.03569 109.477 1.66116 110.769 2.76205 111.737C3.38306 112.282 4.36509 112.933 5.51649 112.933C5.75866 112.933 5.99934 112.903 6.2311 112.847C7.71678 112.479 8.73595 111.106 8.76864 109.431C8.80281 107.686 7.9426 106.298 7.21462 105.441C6.93085 105.107 6.56835 104.679 6.1167 104.324C7.02 103.615 7.99757 103.006 8.87858 102.471C9.84724 101.884 10.8486 101.306 11.8158 100.749C12.6284 100.281 13.4693 99.7953 14.2909 99.3051C14.4528 99.2085 14.6148 99.1119 14.7782 99.0154C16.0574 98.2577 17.3811 97.4762 18.4835 96.4154C18.9099 96.0054 18.9217 95.6117 18.8549 95.3547C18.7702 95.0234 18.5117 94.7708 18.1641 94.6772C18.0615 94.649 17.9501 94.6356 17.8327 94.6356C17.7154 94.6356 17.6025 94.6475 17.4836 94.6727C16.3827 94.4811 15.3116 93.9745 14.1824 93.4396C12.6878 92.7324 11.1427 92 9.43273 92H9.43125Z" fill="#3C3CB2"/>
<path d="M9.44709 76.9173C8.64631 76.9173 7.91387 76.4776 7.53354 75.7704C5.46548 71.918 4.88903 67.4387 5.90969 63.157C6.93778 58.8426 9.51246 55.0838 13.1568 52.573C16.1519 50.5094 19.6552 49.4189 23.2876 49.4189C28.5039 49.4189 33.4422 51.6653 36.8355 55.583C37.2411 56.051 37.4283 56.6705 37.3496 57.2811C37.2723 57.8858 36.941 58.4311 36.4389 58.7787C36.4389 58.7787 36.4359 58.7802 36.4344 58.7817C36.0749 59.0298 35.6559 59.1605 35.2206 59.1605C34.5907 59.1605 33.9905 58.8857 33.5745 58.4043C30.9983 55.433 27.2514 53.7289 23.2921 53.7289C20.5347 53.7289 17.8768 54.5564 15.6022 56.1238C9.89279 60.0564 8.0565 67.6259 11.3309 73.7291C11.8539 74.7052 11.5686 75.91 10.6683 76.534C10.6683 76.534 10.6653 76.5355 10.6639 76.537C10.3028 76.7851 9.88239 76.9173 9.4456 76.9173H9.44709Z" fill="#FF3D56"/>
<path d="M23.2877 49.8379C28.238 49.8379 33.1169 51.9298 36.5191 55.8579C37.2011 56.6438 37.0569 57.8472 36.1997 58.437C35.9011 58.6435 35.5609 58.7416 35.2236 58.7416C34.7289 58.7416 34.2401 58.5306 33.8925 58.131C31.1677 54.9873 27.2589 53.3114 23.2936 53.3114C20.5541 53.3114 17.7877 54.1107 15.3661 55.7791C9.43972 59.8618 7.63759 67.7269 10.9625 73.9267C11.3845 74.7126 11.1616 75.6857 10.4277 76.1923C10.1261 76.4003 9.78439 76.4984 9.44714 76.4984C8.82762 76.4984 8.22146 76.1656 7.90353 75.5713C3.74958 67.8324 5.99741 58.0136 13.3961 52.9162C16.4179 50.8348 19.8706 49.8364 23.2892 49.8364M23.2892 49C19.572 49 15.9856 50.1157 12.9221 52.2284C9.19161 54.7986 6.5575 58.645 5.50416 63.0604C4.45973 67.4417 5.04954 72.025 7.16663 75.968C7.61976 76.8119 8.49334 77.3348 9.44863 77.3348C9.9701 77.3348 10.4723 77.1773 10.9031 76.8802C11.9832 76.1359 12.3264 74.6948 11.7024 73.53C10.1826 70.6968 9.75914 67.4016 10.5109 64.2519C11.2671 61.0785 13.1613 58.3137 15.843 56.467C18.0462 54.9486 20.6239 54.1464 23.2951 54.1464C27.1326 54.1464 30.7651 55.7985 33.261 58.6777C33.7573 59.2497 34.4719 59.578 35.2236 59.578C35.7436 59.578 36.2458 59.422 36.6751 59.1264C37.2768 58.7119 37.675 58.0597 37.7671 57.3346C37.8607 56.6052 37.6364 55.8668 37.1535 55.3097C33.68 51.3013 28.6272 49.0015 23.2907 49.0015L23.2892 49Z" fill="#A10326"/>
<path d="M31.78 61.4811C31.0876 61.958 30.1457 61.8763 29.5618 61.2717C26.6648 58.2721 21.9284 57.7149 18.3836 60.1574C14.8388 62.5998 13.6725 67.2233 15.442 70.9999C15.7985 71.762 15.54 72.6698 14.8477 73.1481C13.9682 73.7543 12.7455 73.4349 12.2923 72.4677C9.81872 67.1832 11.4529 60.7145 16.4121 57.2975C21.3728 53.8804 27.9974 54.6589 32.0548 58.853C32.7976 59.6211 32.6595 60.8779 31.78 61.4841V61.4811Z" fill="#FFC648" stroke="#E29907" stroke-width="0.750974" stroke-linecap="round" stroke-linejoin="round"/>
<path d="M18.3075 70.8082C17.3419 70.8082 16.492 70.1678 16.241 69.2527C15.4209 66.2471 16.5901 63.0425 19.1529 61.2761C20.3801 60.4307 21.8152 59.9835 23.3024 59.9835C24.7895 59.9835 26.3956 60.4857 27.642 61.3964C28.1992 61.8035 28.5127 62.4364 28.5023 63.1332C28.4919 63.8374 28.1412 64.494 27.5633 64.8922C27.1963 65.1462 26.7685 65.2785 26.3272 65.2785C25.886 65.2785 25.4566 65.1403 25.103 64.8803C24.5875 64.5015 23.9501 64.2935 23.3054 64.2935C22.6606 64.2935 22.102 64.4777 21.5968 64.8253C20.5375 65.5548 20.0562 66.88 20.3994 68.1206C20.6356 68.9778 20.288 69.9034 19.5332 70.4234C19.1692 70.6744 18.7443 70.8067 18.3046 70.8067L18.3075 70.8082Z" fill="#4A6ED0"/>
<path d="M23.304 60.4025C24.76 60.4025 26.2011 60.8601 27.3971 61.7351C28.3509 62.4319 28.3018 63.8775 27.3287 64.5475C27.0301 64.754 26.6795 64.861 26.3304 64.861C25.9812 64.861 25.644 64.757 25.3543 64.5445C24.757 64.1063 24.038 63.876 23.31 63.876C22.637 63.876 21.958 64.0721 21.3637 64.4821C20.1262 65.3349 19.621 66.8607 19.9999 68.2335C20.193 68.9303 19.8944 69.6701 19.3001 70.0802C18.9941 70.2911 18.6494 70.3892 18.3092 70.3892C17.5708 70.3892 16.8607 69.9227 16.6467 69.1412C15.8935 66.3853 16.9097 63.3307 19.3923 61.6207C20.5867 60.7977 21.9521 60.4025 23.304 60.4025ZM23.304 59.566C21.7307 59.566 20.2138 60.0385 18.9168 60.9314C16.2084 62.7974 14.9709 66.1862 15.8385 69.3626C16.1386 70.4605 17.1533 71.2271 18.3092 71.2271C18.8336 71.2271 19.3403 71.0696 19.7741 70.771C20.6759 70.1485 21.0919 69.0402 20.8066 68.0121C20.511 66.9424 20.9255 65.8014 21.8377 65.173C22.273 64.8729 22.7811 64.7154 23.3085 64.7154C23.8641 64.7154 24.4138 64.8952 24.8581 65.222C25.2844 65.5355 25.7925 65.7004 26.3304 65.7004C26.8682 65.7004 27.3674 65.5414 27.8041 65.2398C28.495 64.7644 28.9125 63.98 28.9243 63.1406C28.9362 62.3071 28.5589 61.5479 27.8918 61.0606C26.574 60.0979 24.9442 59.5675 23.304 59.5675V59.566Z" fill="#3C3CB2"/>
<path d="M135.953 27.1792L137.879 28.0557C138.096 28.1538 138.325 28.2013 138.547 28.2013C139.136 28.2013 139.708 27.873 139.999 27.3084C140.095 27.1212 140.159 26.9296 140.182 26.7305C140.272 26.0248 139.913 25.3057 139.238 24.9863L136.713 23.8007C134.735 22.8677 131.947 22.5855 129.803 22.9955L128.688 23.205V29.2086C129.354 29.1135 130.017 29.1076 130.525 29.3542C136.254 32.5826 144.597 30.6022 149.426 27.564C149.972 27.2208 150.171 26.5091 149.902 25.9149C149.625 25.2998 148.929 24.9967 148.307 25.2359C145.676 26.2506 142.893 26.9103 139.999 27.3084" fill="#4A6ED0"/>
<path d="M135.953 27.1792L137.879 28.0557C138.096 28.1538 138.325 28.2013 138.547 28.2013C139.136 28.2013 139.708 27.873 139.999 27.3084M139.999 27.3084C140.095 27.1212 140.159 26.9296 140.182 26.7305C140.272 26.0248 139.913 25.3057 139.238 24.9863L136.713 23.8007C134.735 22.8677 131.947 22.5855 129.803 22.9955L128.688 23.205V29.2086C129.354 29.1135 130.017 29.1076 130.525 29.3542C136.254 32.5826 144.597 30.6022 149.426 27.564C149.972 27.2208 150.171 26.5091 149.902 25.9149C149.625 25.2998 148.929 24.9967 148.307 25.2359C145.676 26.2506 142.893 26.9103 139.999 27.3084Z" stroke="#3C3CB2" stroke-width="0.628257" stroke-linecap="round" stroke-linejoin="round"/>
<path d="M123.872 31.648C123.033 31.648 122.349 30.9646 122.349 30.1252V22.3982C122.349 21.5588 123.033 20.8754 123.872 20.8754H127.516C128.356 20.8754 129.039 21.5588 129.039 22.3982V30.1252C129.039 30.5308 128.883 30.9126 128.596 31.2008C128.308 31.489 127.926 31.648 127.519 31.648H123.872Z" fill="#4A6ED0"/>
<path d="M127.516 21.2246C128.164 21.2246 128.689 21.7505 128.689 22.3968V30.1238C128.69 30.7715 128.166 31.296 127.518 31.296H123.872C123.224 31.296 122.7 30.77 122.7 30.1238V22.3968C122.7 21.749 123.226 21.2246 123.872 21.2246H127.516ZM127.516 20.5248H123.872C122.839 20.5248 122 21.3642 122 22.3968V30.1238C122 31.1563 122.839 31.9957 123.872 31.9957H127.518C128.018 31.9957 128.489 31.7996 128.843 31.446C129.197 31.0924 129.39 30.6215 129.388 30.1208V22.3953C129.388 21.3627 128.549 20.5233 127.516 20.5233V20.5248Z" fill="#3C3CB2"/>
<path d="M125.695 29.9499C124.973 29.9499 124.386 29.3541 124.386 28.6202C124.386 27.8863 124.973 27.2905 125.695 27.2905C126.417 27.2905 127.004 27.8863 127.004 28.6202C127.004 29.3541 126.417 29.9499 125.695 29.9499Z" fill="#4A6ED0"/>
<path d="M125.695 27.6412C126.224 27.6412 126.653 28.0794 126.653 28.6202C126.653 29.161 126.224 29.5993 125.695 29.5993C125.166 29.5993 124.737 29.161 124.737 28.6202C124.737 28.0794 125.166 27.6412 125.695 27.6412ZM125.695 26.9414C124.781 26.9414 124.037 27.6946 124.037 28.6202C124.037 29.5458 124.781 30.299 125.695 30.299C126.609 30.299 127.353 29.5458 127.353 28.6202C127.353 27.6946 126.609 26.9414 125.695 26.9414Z" fill="#3C3CB2"/>
<path d="M141.56 19.2085C141.477 19.2085 141.394 19.1833 141.323 19.1343C140.948 18.8772 132.187 12.7711 134.337 7.68118C134.986 6.14202 136.132 5.2937 137.561 5.2937C139.155 5.2937 140.778 6.35299 141.596 7.49993C142.415 6.35447 144.037 5.29518 145.631 5.29518C147.06 5.29518 148.204 6.14202 148.854 7.68118C151.003 12.7726 142.173 18.8772 141.797 19.1343C141.725 19.1833 141.644 19.2071 141.56 19.2071V19.2085Z" fill="#FF3D56"/>
<path d="M137.562 5.714C139.278 5.714 141.085 7.08825 141.597 8.34811C142.11 7.08974 143.918 5.71549 145.634 5.71549C146.744 5.71549 147.815 6.29044 148.472 7.84595C150.513 12.6803 141.563 18.7909 141.563 18.7909C141.563 18.7909 132.685 12.6803 134.726 7.84595C135.383 6.29044 136.454 5.714 137.565 5.714M137.565 4.87756C135.958 4.87756 134.676 5.81651 133.955 7.52058C133.396 8.84283 133.468 10.3255 134.166 11.9301C134.686 13.1246 135.56 14.3918 136.764 15.6992C138.77 17.8757 140.996 19.4164 141.089 19.4818C141.232 19.5798 141.398 19.6288 141.563 19.6288C141.728 19.6288 141.893 19.5798 142.036 19.4832C142.131 19.4194 144.374 17.8772 146.396 15.7022C147.611 14.3963 148.494 13.1275 149.02 11.9345C149.727 10.33 149.801 8.84581 149.243 7.52207C148.524 5.818 147.243 4.88054 145.634 4.88054C144.025 4.88054 142.55 5.76006 141.599 6.83123C140.648 5.76006 139.115 4.87905 137.564 4.87905L137.565 4.87756Z" fill="#A10326"/>
<path d="M141.596 1.4873V1" stroke="#A10326" stroke-width="0.750974" stroke-linecap="round" stroke-linejoin="round"/>
<path d="M141.596 22.3625V21.8722" stroke="#A10326" stroke-width="0.750974" stroke-linecap="round" stroke-linejoin="round"/>
<path d="M131.372 11.682H130.88" stroke="#A10326" stroke-width="0.750974" stroke-linecap="round" stroke-linejoin="round"/>
<path d="M152.312 11.682H151.822" stroke="#A10326" stroke-width="0.750974" stroke-linecap="round" stroke-linejoin="round"/>
<path d="M132.743 16.7764L132.315 17.0215" stroke="#A10326" stroke-width="0.750974" stroke-linecap="round" stroke-linejoin="round"/>
<path d="M150.877 6.33948L150.452 6.58313" stroke="#A10326" stroke-width="0.750974" stroke-linecap="round" stroke-linejoin="round"/>
<path d="M146.71 20.507L146.956 20.9319" stroke="#A10326" stroke-width="0.750974" stroke-linecap="round" stroke-linejoin="round"/>
<path d="M136.239 2.43079L136.482 2.85272" stroke="#A10326" stroke-width="0.750974" stroke-linecap="round" stroke-linejoin="round"/>
<path d="M150.452 16.7764L150.877 17.0215" stroke="#A10326" stroke-width="0.750974" stroke-linecap="round" stroke-linejoin="round"/>
<path d="M132.315 6.33948L132.743 6.58313" stroke="#A10326" stroke-width="0.750974" stroke-linecap="round" stroke-linejoin="round"/>
<path d="M146.71 2.85272L146.956 2.43079" stroke="#A10326" stroke-width="0.750974" stroke-linecap="round" stroke-linejoin="round"/>
<path d="M136.239 20.9319L136.482 20.507" stroke="#A10326" stroke-width="0.750974" stroke-linecap="round" stroke-linejoin="round"/>
<defs>
<linearGradient id="paint0_linear_110_931" x1="101.36" y1="152.992" x2="73.1479" y2="153.702" gradientUnits="userSpaceOnUse">
<stop offset="0.01" stop-color="#FF5138"/>
<stop offset="1" stop-color="#BB1E2E"/>
</linearGradient>
<linearGradient id="paint1_linear_110_931" x1="64.5542" y1="17.6529" x2="93.2144" y2="17.6529" gradientUnits="userSpaceOnUse">
<stop offset="0.01" stop-color="#FF5138"/>
<stop offset="1" stop-color="#BB1E2E"/>
</linearGradient>
<linearGradient id="paint2_linear_110_931" x1="136.298" y1="140.074" x2="114.143" y2="146.594" gradientUnits="userSpaceOnUse">
<stop offset="0.01" stop-color="#FF5138"/>
<stop offset="1" stop-color="#BB1E2E"/>
</linearGradient>
<linearGradient id="paint3_linear_110_931" x1="155.332" y1="153.937" x2="129.354" y2="146.02" gradientUnits="userSpaceOnUse">
<stop offset="0.01" stop-color="#FF5138"/>
<stop offset="1" stop-color="#BB1E2E"/>
</linearGradient>
<linearGradient id="paint4_linear_110_931" x1="41.3913" y1="140.938" x2="63.5475" y2="147.459" gradientUnits="userSpaceOnUse">
<stop offset="0.01" stop-color="#FF5138"/>
<stop offset="1" stop-color="#BB1E2E"/>
</linearGradient>
<linearGradient id="paint5_linear_110_931" x1="22.3874" y1="154.786" x2="48.3099" y2="146.885" gradientUnits="userSpaceOnUse">
<stop offset="0.01" stop-color="#FF5138"/>
<stop offset="1" stop-color="#BB1E2E"/>
</linearGradient>
</defs>
</svg>
